<svg height="512pt" viewBox="0 0 512 512" width="512pt" xmlns="http://www.w3.org/2000/svg"><path d="m486.398438 221.867188v238.933593h8.535156c4.710937 0 8.53125 3.820313 8.53125 8.53125v25.601563c0 4.710937-3.820313 8.53125-8.53125 8.53125h-477.867188c-4.710937 0-8.53125-3.820313-8.53125-8.53125v-25.601563c0-4.710937 3.820313-8.53125 8.53125-8.53125h8.535156v-238.933593zm0 0" fill="#ffc17d"/><path d="m196.265625 8.535156h136.535156c51.882813 0 93.867188 19.113282 93.867188 42.664063-.503907 7.925781-4.464844 15.230469-10.839844 19.96875-3.871094 3.242187-6.144531 8.007812-6.226563 13.054687v86.445313h-136.535156zm0 0" fill="#937966"/><path d="m290.132812 51.199219c-.5 7.925781-4.464843 15.230469-10.835937 19.96875-3.875 3.242187-6.148437 8.007812-6.230469 13.054687v86.445313h-153.601562v-86.445313c-.082032-5.046875-2.355469-9.8125-6.226563-13.054687-6.375-4.738281-10.335937-12.042969-10.839843-19.96875 0-23.550781 41.984374-42.664063 93.867187-42.664063s93.867187 19.113282 93.867187 42.664063zm0 0" fill="#f4d4bb"/><path d="m17.066406 460.800781h290.132813v42.664063h-290.132813c-4.710937 0-8.53125-3.820313-8.53125-8.53125v-25.601563c0-4.710937 3.820313-8.53125 8.53125-8.53125zm0 0" fill="#937966"/><path d="m76.800781 298.667969h179.199219c4.710938 0 8.535156 3.820312 8.535156 8.53125v110.933593c0 4.714844-3.824218 8.535157-8.535156 8.535157h-179.199219c-4.714843 0-8.535156-3.820313-8.535156-8.535157v-110.933593c0-4.710938 3.820313-8.53125 8.535156-8.53125zm0 0" fill="#5ec4e8"/><path d="m443.734375 460.800781h51.199219c4.710937 0 8.53125 3.820313 8.53125 8.53125v25.601563c0 4.710937-3.820313 8.53125-8.53125 8.53125h-51.199219zm0 0" fill="#937966"/><path d="m315.734375 298.667969h119.464844c4.714843 0 8.535156 3.820312 8.535156 8.53125v196.265625h-136.535156v-196.265625c0-4.710938 3.820312-8.53125 8.535156-8.53125zm0 0" fill="#5ec4e8"/><path d="m76.800781 204.800781v34.984375l-27.050781 23.722656c-1.628906 1.367188-4.003906 1.367188-5.632812 0l-25.601563-22.441406c-.945313-.808594-1.476563-2-1.449219-3.242187v-33.023438zm0 0" fill="#f77a8e"/><path d="m136.535156 204.800781v34.984375l-27.050781 23.722656c-1.632813 1.367188-4.003906 1.367188-5.632813 0l-27.050781-23.722656v-34.984375zm0 0" fill="#ffda88"/><path d="m196.265625 204.800781v34.984375l-27.050781 23.722656c-1.628906 1.367188-4 1.367188-5.628906 0l-27.050782-23.722656v-34.984375zm0 0" fill="#f77a8e"/><path d="m256 204.800781v34.984375l-27.050781 23.722656c-1.628907 1.367188-4.003907 1.367188-5.632813 0l-27.050781-23.722656v-34.984375zm0 0" fill="#ffda88"/><path d="m315.734375 204.800781v34.984375l-27.050781 23.722656c-1.628906 1.367188-4.003906 1.367188-5.632813 0l-27.050781-23.722656v-34.984375zm0 0" fill="#f77a8e"/><path d="m375.464844 204.800781v34.984375l-27.050782 23.722656c-1.628906 1.367188-4 1.367188-5.628906 0l-27.050781-23.722656v-34.984375zm0 0" fill="#ffda88"/><path d="m435.199219 204.800781v34.984375l-27.050781 23.722656c-1.628907 1.367188-4 1.367188-5.632813 0l-27.050781-23.722656v-34.984375zm0 0" fill="#f77a8e"/><path d="m494.933594 204.800781v33.023438c.027344 1.242187-.503906 2.433593-1.449219 3.242187l-25.601563 22.441406c-1.628906 1.367188-4.003906 1.367188-5.632812 0l-27.050781-23.722656v-34.984375zm0 0" fill="#ffda88"/><path d="m349.867188 384h17.066406c4.710937 0 8.53125 3.820312 8.53125 8.535156v42.664063c0 4.714843-3.820313 8.535156-8.53125 8.535156h-17.066406c-4.714844 0-8.535157-3.820313-8.535157-8.535156v-42.664063c0-4.714844 3.820313-8.535156 8.535157-8.535156zm0 0" fill="#f4f6f8"/><path d="m102.398438 341.332031c0-9.425781 7.640624-17.066406 17.066406-17.066406 9.425781 0 17.070312 7.640625 17.070312 17.066406v17.066407h-34.136718zm0 0" fill="#ffda88"/><path d="m170.667969 341.332031c0-9.425781 7.640625-17.066406 17.066406-17.066406s17.066406 7.640625 17.066406 17.066406v17.066407h-34.132812zm0 0" fill="#ffda88"/><path d="m128 409.601562c0-9.425781 7.640625-17.066406 17.066406-17.066406 9.425782 0 17.066406 7.640625 17.066406 17.066406v17.066407h-34.132812zm0 0" fill="#ffda88"/><path d="m196.265625 409.601562c0-9.425781 7.640625-17.066406 17.066406-17.066406s17.066407 7.640625 17.066407 17.066406v17.066407h-34.132813zm0 0" fill="#ffda88"/><path d="m494.933594 204.800781h-59.734375l-25.597657-42.667969h43.007813c5.175781.011719 10.070313 2.363282 13.3125 6.402344zm0 0" fill="#fdd267"/><path d="m435.199219 204.800781h-59.734375l-25.597656-42.667969h59.734374zm0 0" fill="#eb6371"/><path d="m375.464844 204.800781h-59.730469l-17.066406-42.667969h51.199219zm0 0" fill="#fdd267"/><path d="m315.734375 204.800781h-59.734375v-42.667969h42.667969zm0 0" fill="#eb6371"/><path d="m256 162.132812v42.667969h-59.734375l17.066406-42.667969zm0 0" fill="#fdd267"/><path d="m213.332031 162.132812-17.066406 42.667969h-59.730469l25.597656-42.667969zm0 0" fill="#eb6371"/><path d="m162.132812 162.132812-10.238281 17.066407-15.359375 25.601562h-59.734375l25.597657-42.667969zm0 0" fill="#fdd267"/><path d="m102.398438 162.132812-25.597657 42.667969h-59.734375l29.011719-36.265625c3.242187-4.039062 8.136719-6.390625 13.3125-6.402344zm0 0" fill="#eb6371"/><g fill="#373737"><path d="m128 435.199219h128c9.425781 0 17.066406-7.640625 17.066406-17.066407v-110.933593c0-9.425781-7.640625-17.066407-17.066406-17.066407h-179.199219c-9.425781 0-17.066406 7.640626-17.066406 17.066407v110.933593c0 9.425782 7.640625 17.066407 17.066406 17.066407zm8.535156-17.066407v-8.53125c0-4.714843 3.820313-8.535156 8.53125-8.535156 4.714844 0 8.535156 3.820313 8.535156 8.535156v8.53125zm68.265625 0v-8.53125c0-4.714843 3.820313-8.535156 8.53125-8.535156 4.714844 0 8.535157 3.820313 8.535157 8.535156v8.53125zm34.132813 0v-8.53125c0-14.140624-11.460938-25.601562-25.601563-25.601562-14.136719 0-25.597656 11.460938-25.597656 25.601562v8.53125h-17.066406v-8.53125c0-14.140624-11.460938-25.601562-25.601563-25.601562-14.136718 0-25.601562 11.460938-25.601562 25.601562v8.53125h-42.664063v-42.667968h179.199219v42.667968zm-110.933594-59.734374h-17.066406v-8.53125c0-4.714844 3.820312-8.535157 8.53125-8.535157 4.714844 0 8.535156 3.820313 8.535156 8.535157zm68.265625 0h-17.066406v-8.53125c0-4.714844 3.820312-8.535157 8.535156-8.535157 4.710937 0 8.53125 3.820313 8.53125 8.535157zm59.734375-51.199219v51.199219h-42.667969v-8.53125c0-14.140626-11.460937-25.601563-25.597656-25.601563-14.140625 0-25.601563 11.460937-25.601563 25.601563v8.53125h-17.066406v-8.53125c0-14.140626-11.460937-25.601563-25.601562-25.601563-14.136719 0-25.597656 11.460937-25.597656 25.601563v8.53125h-17.066407v-51.199219zm0 0"/><path d="m494.933594 452.265625v-201.128906l4.121094-3.609375c2.8125-2.453125 4.421874-6.007813 4.410156-9.738282v-32.988281c-.046875-.359375-.117188-.714843-.210938-1.066406-.058594-.582031-.175781-1.152344-.351562-1.707031-.203125-.542969-.472656-1.0625-.792969-1.546875-.144531-.339844-.316406-.671875-.511719-.988281l-29.011718-36.257813c-4.839844-6.097656-12.203126-9.648437-19.988282-9.632813h-34.464844v-69.378906c.09375-2.570312 1.292969-4.976562 3.285157-6.601562 8.273437-6.339844 13.320312-16.011719 13.78125-26.421875 0-29.191407-44.023438-51.199219-102.398438-51.199219h-136.535156c-58.375 0-102.398437 22.007812-102.398437 51.199219.449218 10.421875 5.492187 20.109375 13.773437 26.453125 1.984375 1.621094 3.183594 4.011718 3.292969 6.570312v69.378906h-51.53125c-7.785156-.019531-15.148438 3.519532-19.996094 9.605469l-29.011719 36.257813c-.195312.316406-.367187.648437-.511719.992187-.320312.484375-.585937 1-.792968 1.542969-.175782.554688-.292969 1.128906-.351563 1.707031-.089843.359375-.160156.726563-.203125 1.09375v32.988281c-.011718 3.734376 1.597656 7.285157 4.410156 9.738282l4.121094 3.609375v73.128906c0 4.714844 3.820313 8.535156 8.535156 8.535156 4.710938 0 8.53125-3.820312 8.53125-8.535156v-58.214844l4.414063 3.859375c4.8125 4.175782 11.960937 4.175782 16.773437 0l21.480469-18.773437 21.476563 18.773437c4.8125 4.175782 11.964844 4.175782 16.777344 0l21.480468-18.773437 21.476563 18.773437c4.8125 4.175782 11.964843 4.175782 16.777343 0l21.476563-18.773437 21.480469 18.773437c4.8125 4.175782 11.960937 4.175782 16.777344 0l21.476562-18.773437 21.476562 18.773437c4.816407 4.175782 11.964844 4.175782 16.777344 0l21.480469-18.773437 21.476563 18.773437c4.8125 4.175782 11.964843 4.175782 16.777343 0l21.476563-18.773437 21.480468 18.773437c4.8125 4.175782 11.964844 4.175782 16.777344 0l21.476563-18.773437 21.480469 18.773437c4.8125 4.175782 11.960937 4.175782 16.773437 0l4.414063-3.859375v186.214844h-25.601563v-68.265625c0-4.710938-3.820313-8.535156-8.53125-8.535156-4.714844 0-8.535156 3.824218-8.535156 8.535156v110.933594h-119.464844v-187.734375h119.464844v25.601562c0 4.710938 3.820312 8.53125 8.535156 8.53125 4.710937 0 8.53125-3.820312 8.53125-8.53125v-25.601562c0-9.425781-7.640625-17.066407-17.066406-17.066407h-119.464844c-9.425781 0-17.066406 7.640626-17.066406 17.066407v145.066406h-264.535157v-76.800781c0-4.710938-3.820312-8.53125-8.53125-8.53125-4.714843 0-8.535156 3.820312-8.535156 8.53125v76.800781c-9.425781 0-17.066406 7.640625-17.066406 17.066406v25.601563c0 9.425781 7.640625 17.066406 17.066406 17.066406h477.867188c9.425781 0 17.066406-7.640625 17.066406-17.066406v-25.601563c0-9.425781-7.640625-17.066406-17.066406-17.066406zm-35.679688-278.390625 17.921875 22.390625h-37.144531l-15.363281-25.597656h27.929687c2.59375-.007813 5.046875 1.175781 6.65625 3.207031zm-339.789062-3.207031h27.597656l-15.359375 25.597656h-39.832031l15.359375-25.597656zm47.5 0h33.765625l-10.242188 25.597656h-38.886719zm52.144531 0h28.355469v25.597656h-38.59375zm45.425781 0h28.355469l10.238281 25.597656h-38.59375zm56.976563 25.597656-10.242188-25.597656h33.765625l15.363282 25.597656zm58.785156 0-15.359375-25.597656h39.832031l15.359375 25.597656zm-47.496094-179.199219c48.84375 0 85.332031 18.015625 85.332031 34.132813-.648437 5.40625-3.503906 10.304687-7.894531 13.527343-5.734375 4.863282-9.082031 11.976563-9.171875 19.496094v69.378906h-119.464844v-69.378906c.09375-2.570312 1.289063-4.976562 3.285157-6.601562 8.273437-6.339844 13.316406-16.011719 13.78125-26.421875 0-13.371094-9.320313-25.199219-24.945313-34.132813zm-213.984375 47.640625c-4.382812-3.214843-7.238281-8.105469-7.882812-13.507812 0-16.117188 36.488281-34.132813 85.332031-34.132813 48.847656 0 85.335937 18.015625 85.335937 34.132813-.648437 5.40625-3.507812 10.304687-7.894531 13.527343-5.738281 4.863282-9.085937 11.976563-9.171875 19.496094v69.378906h-136.535156v-69.378906c-.09375-7.527344-3.441406-14.644531-9.183594-19.515625zm-66.082031 109.167969c1.621094-2.027344 4.074219-3.207031 6.667969-3.207031h27.929687l-15.363281 25.597656h-37.144531zm-5.800781 80.699219-21.332032-18.652344v-22.589844h42.664063v22.589844zm59.734375 0-21.335938-18.652344v-22.589844h42.667969v22.589844zm59.730469 0-21.332032-18.652344v-22.589844h42.667969v22.589844zm59.734374 0-21.332031-18.652344v-22.589844h42.664063v22.589844zm59.734376 0-21.332032-18.652344v-22.589844h42.664063v22.589844zm59.734374 0-21.335937-18.652344v-22.589844h42.667969v22.589844zm59.730469 0-21.332031-18.652344v-22.589844h42.667969v22.589844zm59.734375 0-21.332031-18.652344v-22.589844h42.664063v22.589844zm-448 214.757812h281.601563v25.601563h-281.601563zm435.199219 25.601563v-25.601563h42.667969v25.601563zm0 0"/><path d="m349.867188 375.464844c-9.425782 0-17.066407 7.644531-17.066407 17.070312v42.664063c0 9.425781 7.640625 17.066406 17.066407 17.066406h17.066406c9.425781 0 17.066406-7.640625 17.066406-17.066406v-42.664063c0-9.425781-7.640625-17.070312-17.066406-17.070312zm0 59.734375v-42.664063h17.066406v42.664063zm0 0"/><path d="m156.101562 74.292969c3.347657 3.230469 8.667969 3.1875 11.960938-.105469s3.335938-8.613281.105469-11.960938l-8.535157-8.535156c-3.347656-3.234375-8.671874-3.1875-11.960937.105469-3.292969 3.289063-3.339844 8.613281-.105469 11.960937zm0 0"/><path d="m156.101562 104.898438c-3.332031 3.335937-3.332031 8.734374 0 12.066406l8.53125 8.535156c3.347657 3.234375 8.671876 3.1875 11.964844-.105469 3.289063-3.289062 3.335938-8.613281.101563-11.960937l-8.53125-8.535156c-3.332031-3.328126-8.734375-3.328126-12.066407 0zm0 0"/><path d="m198.765625 99.898438c3.347656 3.234374 8.671875 3.1875 11.964844-.101563 3.289062-3.292969 3.335937-8.613281.101562-11.964844l-8.53125-8.53125c-3.347656-3.234375-8.671875-3.1875-11.964843.101563-3.289063 3.292968-3.335938 8.617187-.101563 11.964844zm0 0"/><path d="m224.367188 113.441406c-3.332032 3.332032-3.332032 8.734375 0 12.066406l8.53125 8.535157c3.351562 3.234375 8.671874 3.1875 11.964843-.105469 3.289063-3.292969 3.335938-8.613281.101563-11.960938l-8.53125-8.535156c-3.332032-3.332031-8.734375-3.332031-12.066406 0zm0 0"/><path d="m224.367188 65.757812c2.140624 2.21875 5.316406 3.109376 8.296874 2.328126 2.984376-.78125 5.316407-3.113282 6.097657-6.09375.777343-2.984376-.109375-6.15625-2.328125-8.300782l-8.535156-8.53125c-3.347657-3.234375-8.667969-3.1875-11.960938.101563-3.292969 3.292969-3.335938 8.613281-.105469 11.960937zm0 0"/><path d="m307.199219 93.867188h68.265625c4.714844 0 8.535156-3.820313 8.535156-8.535157 0-4.710937-3.820312-8.53125-8.535156-8.53125h-68.265625c-4.710938 0-8.53125 3.820313-8.53125 8.53125 0 4.714844 3.820312 8.535157 8.53125 8.535157zm0 0"/></g></svg>