<svg id="Layer_1" enable-background="new 0 0 512 512" height="512" viewBox="0 0 512 512" width="512" xmlns="http://www.w3.org/2000/svg"><g><g><g><g><path d="m72.973 89.829h365.732v57h-365.732z" fill="#497d96"/><path d="m398.705 89.829h40v57h-40z" fill="#3e6e85"/><g><path d="m44.797 212.142h422.406v292.187h-422.406z" fill="#f2f2f2"/><path d="m427.203 212.142h40v292.187h-40z" fill="#e8e8e8"/><g><path d="m82.667 332.163h212.863v116h-212.863z" fill="#93dcfc"/><path d="m332.667 332.163h96.667v172.167h-96.667z" fill="#934d36"/></g></g><g><g><path d="m78.5 240.685c0 21.159-15.894 38.311-35.5 38.311s-35.5-17.153-35.5-38.311z" fill="#fa9a0f"/><path d="m149.5 240.685c0 21.159-15.894 38.311-35.5 38.311s-35.5-17.152-35.5-38.311z" fill="#da6966"/><path d="m220.5 240.685c0 21.159-15.894 38.311-35.5 38.311s-35.5-17.152-35.5-38.311z" fill="#fa9a0f"/><path d="m291.5 240.685c0 21.159-15.894 38.311-35.5 38.311s-35.5-17.152-35.5-38.311z" fill="#da6966"/><path d="m362.5 240.685c0 21.159-15.894 38.311-35.5 38.311s-35.5-17.152-35.5-38.311z" fill="#fa9a0f"/><path d="m433.5 240.685c0 21.159-15.894 38.311-35.5 38.311s-35.5-17.152-35.5-38.311z" fill="#da6966"/><path d="m504.5 240.685c0 21.159-15.894 38.311-35.5 38.311s-35.5-17.152-35.5-38.311z" fill="#fa9a0f"/></g><g><path d="m125.266 134.543c-17.431 0-34.862 0-52.294 0-21.824 35.38-43.648 70.761-65.472 106.142h71c15.589-35.381 31.177-70.761 46.766-106.142z" fill="#ffd508"/><path d="m177.56 134.543c-17.431 0-34.862 0-52.293 0-15.589 35.381-31.177 70.761-46.766 106.142h71c9.352-35.381 18.705-70.761 28.059-106.142z" fill="#e5646e"/><path d="m229.853 134.543c-17.431 0-34.862 0-52.294 0-9.353 35.381-18.706 70.761-28.06 106.142h71c3.119-35.381 6.236-70.761 9.354-106.142z" fill="#ffd508"/><path d="m282.147 134.543c-17.431 0-34.862 0-52.294 0-3.118 35.381-6.235 70.761-9.353 106.142h71c-3.118-35.381-6.236-70.761-9.353-106.142z" fill="#e5646e"/><path d="m334.44 134.543c-17.431 0-34.862 0-52.294 0 3.118 35.381 6.236 70.761 9.353 106.142h71c-9.352-35.381-18.705-70.761-28.059-106.142z" fill="#ffd508"/><path d="m386.734 134.543c-17.431 0-34.862 0-52.293 0 9.353 35.381 18.706 70.761 28.06 106.142h71c-15.59-35.381-31.178-70.761-46.767-106.142z" fill="#e5646e"/><path d="m439.027 134.543c-17.431 0-34.862 0-52.294 0 15.589 35.381 31.177 70.761 46.766 106.142h71c-21.823-35.381-43.647-70.761-65.472-106.142z" fill="#ffd508"/></g></g></g><g><path d="m300.1 183.555c-10.299 2.97-21.049 4.273-31.952 3.872-72.665-2.668-115.216-72.63-121.094-119.074-2.376-18.771 2.965-39.439 18.109-51.74 19.409-15.767 41.356-8.27 62.374-.749 16.17 5.787 31.061 4.007 47.864 3.285 25.318-1.086 50.807 9.14 68.186 27.354 15.956 16.724 23.63 38.3 21.607 60.752-3.232 35.877-28.781 65.827-65.089 76.299-.002 0-.003 0-.005.001z" fill="#ffd8d5"/><path d="m171.434 65.267c4.442 35.102 38.096 95.417 97.616 97.602 36.484 1.339 68.487-22.505 71.669-57.82 3.231-35.867-30.044-62.817-64.264-61.349-14.78.634-29.448 3.747-44.086.044-14.515-3.672-31.421-17.772-47.032-10.901-12.076 5.316-15.41 20.509-13.903 32.424z" fill="#d82e3d"/><g><path d="m276.455 43.701c-5.048.217-10.082.72-15.107 1.145 28.306 5.508 52.128 29.602 49.371 60.204-2.656 29.485-25.409 50.96-54.081 56.472 4.005.725 8.139 1.191 12.412 1.348 36.484 1.339 68.487-22.505 71.669-57.82 3.231-35.867-30.044-62.817-64.264-61.349z" fill="#c10a54"/></g><circle cx="288.792" cy="101.512" fill="#f2f2f2" r="20.512"/></g></g></g><g fill="#060606"><path d="m504.5 496.829h-29.797v-210.749c21.023-2.982 37.297-22.196 37.297-45.395 0-1.372-.397-2.771-1.117-3.938l-64.679-104.855v-42.063c0-4.142-3.358-7.5-7.5-7.5h-67.613c-3.297-15.113-10.792-29.174-22.078-41.003-18.849-19.756-46.493-30.847-73.934-29.67-15.061.648-30.493 2.344-45.016-2.854-21.794-7.799-45.333-14.526-66.141-.409-19.484 13.219-27.177 38.232-24.308 60.901.529 4.183 1.349 8.55 2.44 13.035h-69.081c-4.142 0-7.5 3.358-7.5 7.5v42.586l-64.356 104.332c-.719 1.166-1.117 2.567-1.117 3.938 0 23.199 16.274 42.413 37.297 45.396v210.749h-29.797c-9.697 0-9.697 15 0 15h77.462c9.697 0 9.697-15 0-15h-32.665v-211.425c10.826-2.553 20.131-9.458 26.203-18.906 7.753 12.063 20.771 19.996 35.5 19.996s27.747-7.934 35.5-19.996c7.753 12.063 20.771 19.996 35.5 19.996s27.747-7.934 35.5-19.996c7.753 12.063 20.771 19.996 35.5 19.996s27.747-7.934 35.5-19.996c7.753 12.063 20.771 19.996 35.5 19.996s27.747-7.934 35.5-19.996c7.753 12.063 20.771 19.996 35.5 19.996s27.747-7.934 35.5-19.996c6.072 9.448 15.377 16.353 26.203 18.906v211.424h-22.87v-164.666c0-4.142-3.358-7.5-7.5-7.5h-96.667c-4.142 0-7.5 3.358-7.5 7.5v164.667h-199.166c-9.697 0-9.697 15 0 15h378.5c9.697-.001 9.697-15.001 0-15.001zm-82.667 0h-81.667v-157.166h81.667zm-49.169-388.902c.321-3.558.412-7.094.295-10.598h58.246v29.713h-44.471-17.87c1.91-6.141 3.207-12.533 3.8-19.115zm-292.191-10.598h66.132c3.562 9.841 8.334 19.929 14.283 29.713h-35.622-44.793zm-37.473 174.167c-13.089 0-24.109-9.935-27.161-23.311h54.322c-3.052 13.376-14.072 23.311-27.161 23.311zm30.609-38.311h-52.67l56.22-91.142h36.608zm40.391 38.311c-13.089 0-24.109-9.935-27.161-23.311h54.322c-3.052 13.376-14.072 23.311-27.161 23.311zm29.725-38.311h-53.725l40.157-91.142h37.662zm41.275 38.311c-13.089 0-24.109-9.935-27.161-23.311h54.322c-3.052 13.376-14.072 23.311-27.161 23.311zm28.632-38.311h-54.392l21.191-80.162c10.637 11.493 23.237 21.565 37.711 28.962zm42.368 38.311c-13.089 0-24.109-9.935-27.161-23.311h54.322c-3.052 13.376-14.072 23.311-27.161 23.311zm-27.31-38.311 3.961-44.95c15.04 5.327 31.345 7.619 47.269 6.476l3.39 38.474zm39.733-53.253c-68.323-2.508-108.373-68.625-113.928-112.521-1.801-14.234 1.298-33.524 15.397-44.978 16.43-13.347 37.507-5.81 55.117.492 16.448 5.886 33.62 4.449 50.713 3.717 23.204-.996 46.53 8.366 62.438 25.038 14.442 15.137 21.39 34.634 19.564 54.901-2.952 32.767-26.379 60.148-59.682 69.761-.017.005-.035.01-.052.015-9.524 2.744-19.467 3.947-29.567 3.575zm26.37 12.678c15.242-3.247 29.809-9.881 42.083-19.51l15.884 60.085h-54.391zm32.207 78.886c-13.089 0-24.109-9.935-27.161-23.311h54.322c-3.052 13.376-14.072 23.311-27.161 23.311zm41.275-38.311-18.964-71.737c5.273-5.901 9.788-12.408 13.409-19.405h19.123l40.157 91.142zm29.725 38.311c-13.089 0-24.109-9.935-27.161-23.311h54.322c-3.052 13.376-14.072 23.311-27.161 23.311zm40.391-38.311-40.157-91.142h36.608l56.22 91.142zm3.448 15h54.322c-3.052 13.376-14.072 23.311-27.161 23.311s-24.109-9.935-27.161-23.311z"/><path d="m303.03 448.163v-116c0-4.142-3.358-7.5-7.5-7.5h-212.863c-4.142 0-7.5 3.358-7.5 7.5v116c0 4.142 3.358 7.5 7.5 7.5h212.863c4.142 0 7.5-3.358 7.5-7.5zm-15-7.5h-197.863v-101h197.863z"/><path d="m301.877 76.745c-21.454-11.337-47.013 9.825-39.852 33.028 7.153 23.178 40.188 26.301 51.533 4.825 7.216-13.657 1.976-30.638-11.681-37.853zm-1.581 30.846c-3.352 6.344-11.24 8.776-17.583 5.426-6.344-3.352-8.778-11.239-5.426-17.583 3.316-6.277 11.268-8.762 17.583-5.426 6.344 3.351 8.778 11.239 5.426 17.583z"/><path d="m348.188 105.722c1.183-13.132-1.918-25.992-8.97-37.205-5.144-8.179-18.094-.536-12.776 7.862 5.343 8.437 7.697 18.118 6.807 27.997-2.73 30.311-30.2 52.25-63.924 50.998-56.036-2.057-86.561-60.315-90.45-91.048-5.068-40.053 32.43-18.174 51.654-13.31 11.952 3.024 23.537 2.005 34.741 1.02 11.853-1.042 23.184-1.22 34.543 2.916 8.925 3.249 14.358-10.711 5.165-14.077-13.506-4.944-26.892-5.023-41.022-3.781-10.418.916-20.258 1.782-29.747-.619-16.98-4.295-32.892-18.056-50.971-10.488-15.725 6.583-21.258 24.308-19.243 40.223 2.681 21.184 14.11 46.09 29.827 64.997 14.241 17.131 38.804 37.831 74.954 39.158 38.522 1.412 75.807-24.622 79.412-64.643z"/></g></g></svg>