<?xml version="1.0" encoding="utf-8"?>
<!-- Generator: Adobe Illustrator 16.0.0, SVG Export Plug-In . SVG Version: 6.00 Build 0)  -->
<!DOCTYPE svg PUBLIC "-//W3C//DTD SVG 1.1//EN" "http://www.w3.org/Graphics/SVG/1.1/DTD/svg11.dtd">
<svg version="1.1" id="Layer_1" xmlns="http://www.w3.org/2000/svg" xmlns:xlink="http://www.w3.org/1999/xlink" x="0px" y="0px"
	 width="91px" height="91px" viewBox="0 0 91 91" enable-background="new 0 0 91 91" xml:space="preserve">
<g>
	<g>
		<path fill="#FFFFFF" d="M46.164,72.259c-15.763,0-31.154-1.778-40.542-4.848C5.567,73.482,5.664,79.56,6.259,80.538
			c1.794,2.937,9.418,5.311,20.917,6.507c21.404,2.23,52.013-0.146,57.942-6.438c0.763-0.895,0.985-6.996,0.938-13.217
			C75.391,70.757,60.634,72.259,46.164,72.259z"/>
		<path fill="#E5C7B4" d="M86.036,65.613c-0.047-3.073-0.159-6.03-0.296-8.305c-1.824,1.565-4.897,2.703-10.274,2.435
			c-4.107-0.191-5.658-1.104-8.739-3.473l-0.488-0.375c-3.133-2.417-5.838-4.496-9.967-3.318c-1.695,0.484-3.142,1.824-4.673,3.243
			c-1.833,1.696-3.73,3.452-6.271,3.917c-0.535,0.099-1.049,0.145-1.545,0.145c-3.836,0-6.542-2.726-8.96-5.162
			c-3.141-3.164-5.852-5.901-10.58-3.678c-1.601,0.753-2.873,1.682-4.104,2.58c-2.904,2.121-5.643,4.129-11.2,2.228
			c-1.067-0.363-2.106-0.946-3.035-1.67c-0.014,0.515-0.03,1.119-0.049,1.813c-0.06,2.09-0.16,5.757-0.214,9.637
			C23.261,71.635,63.928,72.807,86.036,65.613z"/>
		<path fill="#F17897" d="M83.098,38.548c-6.521-7.389-20.124-11.35-38.305-11.121C10.405,27.843,5.059,37.999,4.366,47.88
			c0,0.004-0.002,0.006-0.004,0.008c0,0.002,0.002,0.004,0.002,0.008c-0.257,2.899,2.448,5.435,5.125,6.346
			c4.717,1.617,6.783,0.099,9.646-1.992c1.235-0.901,2.636-1.924,4.385-2.745c5.804-2.733,9.368,0.853,12.51,4.018
			c2.672,2.692,5.196,5.256,8.994,4.544c2.055-0.376,3.688-1.89,5.419-3.491c1.61-1.492,3.276-3.034,5.361-3.632
			c4.955-1.417,8.268,1.135,11.474,3.605l0.484,0.373c2.89,2.222,4.131,2.954,7.783,3.125c9.956,0.454,10.828-3.996,11.319-6.662
			c0.048-0.261,0.093-0.49,0.141-0.698C87.604,46.32,86.252,42.123,83.098,38.548z"/>
	</g>
	<g>
		<path fill="#434B56" d="M44.111,91c-6.176,0-12.164-0.286-17.346-0.826C13.731,88.816,5.899,86.125,3.49,82.176
			c-0.988-1.622-1.419-6.291-0.866-26.28c0.04-1.443,0.071-2.529,0.075-3.069c0.012-1.261,1.038-2.274,2.294-2.274
			c0.008,0,0.014,0,0.021,0c1.267,0.012,2.285,1.047,2.273,2.316c-0.004,0.553-0.035,1.67-0.075,3.154
			C6.82,70.152,6.905,78.173,7.462,79.87c1.3,1.929,7.146,4.422,19.778,5.738c22.841,2.384,51.175-0.569,56.6-5.852
			c1.021-2.656,0.72-18.81,0.231-24.363c-0.113-1.263,0.819-2.378,2.083-2.488c1.241-0.122,2.378,0.822,2.488,2.085
			c0.021,0.241,1.76,24.5-1.32,27.772C81.884,88.535,62.211,91,44.111,91z"/>
		<path fill="#434B56" d="M87.764,53.109c-0.105,0-0.21-0.008-0.316-0.021c-1.255-0.175-2.132-1.332-1.96-2.587
			c0.543-3.941-0.687-7.744-3.558-10.999c-6.237-7.067-19.45-10.854-37.205-10.631C11.51,29.275,6.37,38.757,5.721,47.98
			c-0.089,1.263-1.158,2.221-2.451,2.128c-1.262-0.089-2.217-1.185-2.128-2.449c1.112-15.815,14.535-23.024,43.527-23.376
			c24.482-0.313,35.656,6.462,40.703,12.184c3.728,4.225,5.384,9.431,4.663,14.66C89.877,52.274,88.892,53.109,87.764,53.109z"/>
		<path fill="#434B56" d="M45.542,73.776c-15.733,0-30.992-1.996-40.473-5.379c-1.193-0.427-1.814-1.739-1.389-2.934
			c0.425-1.192,1.737-1.817,2.933-1.389c17.016,6.071,55.338,7.421,77.412-0.014c1.198-0.405,2.502,0.241,2.907,1.442
			c0.403,1.2-0.241,2.502-1.442,2.908C74.422,72.139,59.785,73.776,45.542,73.776z"/>
		<path fill="#434B56" d="M44.15,36.684c-0.741,0-1.469-0.359-1.911-1.021c-0.502-0.753-0.806-1.208-0.184-22.97
			c0.034-1.267,1.089-2.299,2.359-2.227c1.267,0.036,2.264,1.091,2.227,2.357c-0.222,7.757-0.448,19.209-0.278,20.966
			c0.25,0.925-0.099,1.944-0.941,2.508C45.031,36.558,44.589,36.684,44.15,36.684z"/>
		<g>
			<path fill="#FAE58F" d="M46.349,2.342c-1.005-0.167-10.013,6.811-7.809,12.419c1.867,4.755,8.413,4.808,11.416,0.401
				C52.961,10.755,47.553,2.544,46.349,2.342z"/>
			<path fill="#434B56" d="M43.99,20.694L43.99,20.694c-3.447,0-6.352-1.953-7.587-5.093c-0.727-1.855-1.026-4.905,1.692-8.893
				c1.852-2.718,5.974-6.662,8.215-6.662c0.126,0,0.292,0.012,0.417,0.034c2.585,0.431,4.872,5.626,5.124,6.217
				c1.722,4.029,1.722,7.636,0.003,10.158C50.042,19.109,47.102,20.694,43.99,20.694z M45.966,5.102
				c-2.164,1.581-6.435,5.907-5.291,8.822c0.772,1.968,2.575,2.182,3.314,2.182l0,0c1.595,0,3.116-0.836,4.07-2.235
				C49.566,11.661,47.382,7.037,45.966,5.102z"/>
		</g>
		<path fill="#434B56" d="M22.217,38.287c-0.741,0-1.469-0.36-1.909-1.021c-0.504-0.753-0.808-1.21-0.186-22.97
			c0.034-1.267,1.107-2.299,2.357-2.229c1.267,0.035,2.265,1.093,2.229,2.36c-0.222,7.754-0.448,19.207-0.279,20.964
			c0.251,0.927-0.099,1.949-0.941,2.51C23.099,38.161,22.656,38.287,22.217,38.287z"/>
		<g>
			<path fill="#FAE58F" d="M24.419,3.947c-1.008-0.17-10.014,6.808-7.812,12.419c1.867,4.751,8.413,4.804,11.418,0.399
				C31.027,12.358,25.62,4.147,24.419,3.947z"/>
			<path fill="#434B56" d="M22.057,22.295L22.057,22.295c-3.445,0-6.352-1.951-7.585-5.089c-0.729-1.857-1.028-4.907,1.692-8.897
				c1.852-2.715,5.972-6.66,8.215-6.66c0.128,0,0.296,0.014,0.421,0.036c2.579,0.429,4.866,5.622,5.117,6.213
				c1.721,4.028,1.723,7.636,0.004,10.16C28.111,20.712,25.172,22.295,22.057,22.295z M24.034,6.705
				c-2.162,1.581-6.435,5.905-5.291,8.824c0.772,1.964,2.575,2.178,3.314,2.178l0,0c1.595,0,3.119-0.834,4.073-2.233
				C27.634,13.264,25.451,8.641,24.034,6.705z"/>
		</g>
		<path fill="#434B56" d="M65.48,39.491c-0.738,0-1.466-0.358-1.908-1.02c-0.504-0.755-0.81-1.209-0.188-22.974
			c0.035-1.267,1.105-2.298,2.358-2.227c1.267,0.036,2.265,1.091,2.229,2.357c-0.222,7.755-0.449,19.208-0.276,20.966
			c0.25,0.925-0.097,1.945-0.939,2.508C66.365,39.364,65.92,39.491,65.48,39.491z"/>
		<g>
			<path fill="#FAE58F" d="M67.682,5.147c-1.009-0.166-10.015,6.81-7.812,12.419c1.868,4.753,8.412,4.806,11.416,0.399
				C74.291,13.56,68.882,5.349,67.682,5.147z"/>
			<path fill="#434B56" d="M65.319,23.497L65.319,23.497c-3.445,0-6.352-1.951-7.585-5.093c-0.729-1.856-1.027-4.903,1.691-8.891
				c1.852-2.718,5.975-6.664,8.218-6.664c0.124,0,0.288,0.014,0.411,0.034c2.593,0.435,4.879,5.636,5.131,6.229
				c1.717,4.023,1.715,7.628-0.002,10.148C71.373,21.912,68.435,23.497,65.319,23.497z M67.296,7.906
				c-2.162,1.583-6.433,5.907-5.289,8.82c0.773,1.968,2.573,2.182,3.313,2.182l0,0c1.595,0,3.117-0.836,4.071-2.235
				C70.896,14.465,68.714,9.843,67.296,7.906z"/>
		</g>
		<path fill="#434B56" d="M43.677,61.328c-4.417,0-7.46-3.067-9.964-5.591c-3.377-3.401-5.311-5.097-8.941-3.388
			c-1.474,0.691-2.691,1.582-3.867,2.441c-3.077,2.245-6.255,4.565-12.518,2.426c-3.903-1.329-7.644-5.057-7.241-9.6
			c0.112-1.263,1.225-2.204,2.49-2.083c1.261,0.113,2.194,1.227,2.081,2.49c-0.186,2.087,1.967,4.105,4.154,4.851
			c4.002,1.367,5.538,0.245,8.328-1.79c1.287-0.941,2.747-2.009,4.62-2.889c6.728-3.163,10.844,0.979,14.15,4.31
			c2.889,2.91,4.804,4.667,7.709,4.138c1.64-0.299,3.124-1.674,4.696-3.131c1.734-1.606,3.528-3.267,5.945-3.958
			c5.658-1.623,9.429,1.286,12.755,3.852l0.48,0.37c2.689,2.068,3.614,2.671,6.97,2.828c8.751,0.414,9.371-2.999,9.832-5.484
			c0.06-0.313,0.112-0.595,0.17-0.841c0.295-1.232,1.531-1.989,2.767-1.697c1.231,0.294,1.992,1.531,1.698,2.765
			c-0.041,0.178-0.079,0.385-0.12,0.611c-0.498,2.686-1.805,9.836-14.56,9.23c-4.48-0.209-6.351-1.31-9.554-3.771l-0.486-0.376
			c-3.357-2.592-5.417-4.013-8.689-3.073c-1.363,0.389-2.688,1.614-4.089,2.913c-1.892,1.752-4.035,3.738-6.991,4.278
			C44.87,61.274,44.261,61.328,43.677,61.328z"/>
	</g>
</g>
</svg>
