<?xml version="1.0" encoding="utf-8"?>
<!-- Generator: Adobe Illustrator 16.0.0, SVG Export Plug-In . SVG Version: 6.00 Build 0)  -->
<!DOCTYPE svg PUBLIC "-//W3C//DTD SVG 1.1//EN" "http://www.w3.org/Graphics/SVG/1.1/DTD/svg11.dtd">
<svg version="1.1" id="Layer_1" xmlns="http://www.w3.org/2000/svg" xmlns:xlink="http://www.w3.org/1999/xlink" x="0px" y="0px"
	 width="91px" height="91px" viewBox="0 0 91 91" enable-background="new 0 0 91 91" xml:space="preserve">
<g>
	<g>
		<g>
			<polyline fill="#B08C7E" points="42.663,13.212 42.663,2.377 48.529,2.377 48.529,13.212 			"/>
			<path fill="#434B56" d="M48.529,15.396c-1.207,0-2.184-0.978-2.184-2.184V4.562h-1.5v8.651c0,1.206-0.977,2.184-2.184,2.184
				s-2.184-0.978-2.184-2.184V2.377c0-1.206,0.977-2.184,2.184-2.184h5.867c1.206,0,2.184,0.978,2.184,2.184v10.835
				C50.713,14.418,49.735,15.396,48.529,15.396z"/>
		</g>
		<g>
			<polygon fill="#ACD263" points="45.5,15.285 50.522,11.849 54.439,16.833 60.121,15.247 62.584,21.338 68.418,21.747 69.21,28.4 
				74.682,30.765 73.73,37.391 78.351,41.505 75.741,47.513 79.103,53.007 75.065,57.865 76.866,64.254 71.764,67.532 
				71.844,74.243 66.127,75.648 64.481,82.092 58.657,81.494 55.432,87.096 50.019,84.557 45.5,88.816 40.98,84.557 35.567,87.096 
				32.342,81.494 26.52,82.092 24.873,75.648 19.157,74.243 19.238,67.532 14.134,64.254 15.934,57.865 11.898,53.007 15.26,47.513 
				12.651,41.505 17.27,37.391 16.319,30.765 21.791,28.4 22.581,21.747 28.417,21.338 30.88,15.247 36.561,16.833 40.478,11.849 
							"/>
			<path fill="#434B56" d="M45.5,91c-0.539,0-1.078-0.197-1.498-0.595l-3.439-3.242l-4.067,1.911
				c-1.027,0.479-2.255,0.098-2.821-0.888l-2.518-4.375l-4.415,0.453c-1.075,0.105-2.071-0.583-2.339-1.633l-1.323-5.176
				l-4.444-1.091c-0.986-0.243-1.675-1.133-1.663-2.148l0.066-5.501l-4.085-2.624c-0.809-0.52-1.182-1.507-0.921-2.43l1.488-5.285
				l-3.302-3.975c-0.597-0.719-0.671-1.738-0.183-2.535l2.769-4.526l-2.156-4.966c-0.376-0.865-0.154-1.874,0.55-2.5l3.744-3.334
				l-0.785-5.465c-0.14-0.976,0.392-1.924,1.295-2.315l4.318-1.867l0.642-5.404c0.124-1.041,0.97-1.848,2.017-1.921l4.475-0.314
				l1.952-4.826c0.417-1.031,1.538-1.585,2.612-1.285l4.277,1.194l3.016-3.838c0.711-0.903,2-1.104,2.951-0.453l3.788,2.592
				l3.79-2.593c0.951-0.65,2.241-0.449,2.95,0.454l3.016,3.838l4.277-1.194c1.068-0.3,2.195,0.253,2.612,1.285l1.951,4.826
				l4.474,0.314c1.047,0.073,1.893,0.879,2.017,1.92l0.644,5.405l4.318,1.867c0.903,0.391,1.435,1.339,1.295,2.315L76.06,36.54
				l3.743,3.334c0.705,0.626,0.927,1.635,0.551,2.5l-2.156,4.966l2.769,4.526c0.487,0.797,0.413,1.816-0.184,2.537l-3.303,3.973
				l1.488,5.285c0.261,0.923-0.112,1.91-0.922,2.43l-4.084,2.624l0.066,5.501c0.012,1.016-0.677,1.905-1.663,2.148l-4.445,1.091
				l-1.322,5.176c-0.269,1.05-1.27,1.738-2.339,1.633l-4.415-0.453l-2.519,4.375c-0.568,0.985-1.795,1.367-2.821,0.888l-4.067-1.909
				l-3.438,3.24C46.578,90.803,46.039,91,45.5,91z M40.979,82.371c0.546,0,1.085,0.204,1.499,0.596l3.021,2.848l3.021-2.848
				c0.652-0.615,1.612-0.77,2.427-0.39l3.594,1.688l2.224-3.859c0.431-0.747,1.257-1.17,2.116-1.084l3.95,0.406l1.181-4.621
				c0.199-0.78,0.813-1.388,1.595-1.58l4.033-0.991l-0.06-4.977c-0.01-0.754,0.369-1.457,1.003-1.863l3.742-2.406l-1.362-4.832
				c-0.195-0.691-0.037-1.437,0.423-1.989l3.037-3.655l-2.545-4.16c-0.371-0.607-0.424-1.358-0.14-2.011l1.979-4.557l-3.439-3.062
				c-0.546-0.487-0.813-1.216-0.709-1.941l0.714-4.974l-3.939-1.703c-0.714-0.309-1.209-0.974-1.302-1.747l-0.578-4.859
				l-4.031-0.283c-0.833-0.058-1.56-0.586-1.872-1.36l-1.731-4.281l-3.801,1.062c-0.85,0.236-1.76-0.061-2.305-0.754l-2.654-3.377
				l-3.335,2.282c-0.744,0.508-1.722,0.508-2.467,0l-3.334-2.281l-2.654,3.377c-0.545,0.694-1.455,0.99-2.305,0.754l-3.8-1.062
				l-1.731,4.281c-0.313,0.774-1.039,1.302-1.873,1.36l-4.032,0.283l-0.578,4.858c-0.091,0.772-0.588,1.438-1.302,1.747
				l-3.939,1.703l0.714,4.974c0.104,0.725-0.163,1.454-0.709,1.941l-3.439,3.062l1.979,4.557c0.284,0.652,0.231,1.403-0.14,2.011
				l-2.546,4.16l3.037,3.657c0.46,0.551,0.618,1.296,0.422,1.987l-1.361,4.832l3.743,2.406c0.634,0.406,1.013,1.109,1.003,1.863
				l-0.06,4.977l4.032,0.991c0.783,0.192,1.396,0.8,1.595,1.58l1.181,4.621l3.95-0.406c0.861-0.086,1.685,0.337,2.116,1.084
				l2.223,3.859l3.594-1.688C40.349,82.438,40.665,82.371,40.979,82.371z"/>
		</g>
		<path fill="#434B56" d="M56.021,75.84c-1.136,0-2.095-0.878-2.177-2.027l-0.527-7.375c-0.054-0.75,0.282-1.477,0.891-1.92
			L58.3,61.53l-1.869-5.379c-0.236-0.679-0.122-1.432,0.304-2.011l3.195-4.347l-3.162-4.541c-0.406-0.585-0.503-1.33-0.259-1.998
			l1.934-5.292l-4.109-3.243c-0.575-0.454-0.885-1.167-0.823-1.896l0.613-7.35c0.1-1.202,1.15-2.096,2.357-1.995
			c1.202,0.1,2.096,1.156,1.995,2.358l-0.516,6.181l4.43,3.496c0.739,0.584,1.021,1.578,0.697,2.464l-2.086,5.711l3.407,4.892
			c0.534,0.768,0.521,1.789-0.033,2.541l-3.44,4.68l2.022,5.823c0.315,0.908,0,1.914-0.775,2.48l-4.422,3.228l0.441,6.167
			c0.086,1.204-0.819,2.25-2.022,2.335C56.125,75.839,56.072,75.84,56.021,75.84z"/>
		<path fill="#434B56" d="M35.114,39.615c-0.815,0-1.597-0.457-1.972-1.242l-2.965-6.201c-0.477-0.996-0.135-2.191,0.797-2.785
			l5.931-3.776c1.016-0.647,2.366-0.348,3.015,0.67c0.648,1.018,0.348,2.367-0.669,3.015l-4.299,2.737l2.13,4.455
			c0.521,1.089,0.061,2.393-1.028,2.912C35.75,39.547,35.429,39.615,35.114,39.615z"/>
		<path fill="#434B56" d="M33.494,56.603c-0.532,0-1.065-0.193-1.486-0.585l-5.124-4.762c-0.857-0.796-0.934-2.126-0.175-3.016
			l5.124-6.011c0.781-0.918,2.159-1.027,3.079-0.246c0.918,0.782,1.027,2.161,0.245,3.08l-3.766,4.419l3.591,3.336
			c0.884,0.822,0.934,2.203,0.113,3.087C34.665,56.368,34.08,56.603,33.494,56.603z"/>
		<path fill="#434B56" d="M35.11,76.288c-0.355,0-0.717-0.089-1.051-0.271c-1.057-0.581-1.442-1.908-0.861-2.966l1.896-3.447
			l-5.181-2.738c-0.563-0.298-0.968-0.824-1.109-1.445c-0.142-0.62-0.006-1.271,0.372-1.782l4.178-5.662
			c0.718-0.97,2.085-1.177,3.054-0.461c0.971,0.717,1.177,2.084,0.461,3.055l-2.672,3.619l4.901,2.59
			c0.517,0.272,0.904,0.743,1.072,1.304c0.167,0.561,0.104,1.166-0.179,1.68l-2.966,5.394C36.628,75.878,35.881,76.288,35.11,76.288
			z"/>
	</g>
</g>
</svg>
