<svg id="Capa_1" enable-background="new 0 0 512 512" height="512" viewBox="0 0 512 512" width="512" xmlns="http://www.w3.org/2000/svg"><g><g><g><g><path d="m403.79 97.779c-14.332 28.06-75.051 49.134-147.79 49.134s-133.458-21.075-147.79-49.134h-85.291v363.973h30.656v-198.97c0-2.761 2.239-5 5-5h394.849c2.761 0 5 2.239 5 5v198.97h30.656v-363.973z" fill="#fff3de"/><g fill="#ffe5c2"><path d="m22.919 97.779h43.919v38.936h-43.919z"/><path d="m49.835 229.367c-1.907 1.734-4.82 1.734-6.727 0l-20.189-18.355v250.739h30.656v-198.97c0-2.761 2.239-5 5-5h8.263v-43.873z"/></g><g fill="#08a9f1"><path d="m12.5 461.752c-2.761 0-5 2.239-5 5v17.078c0 2.761 2.239 5 5 5h41.075v-27.078z"/><path d="m499.5 461.752h-41.075v27.078h41.075c2.761 0 5-2.239 5-5v-17.078c0-2.762-2.239-5-5-5z"/></g><g><path d="m458.425 488.83h-404.85v-226.048c0-2.761 2.239-5 5-5h394.849c2.761 0 5 2.239 5 5v226.048z" fill="#c8effe"/></g><path d="m403.07 360.17h-20.07c-1.657 0-3-1.343-3-3v-6h-137.795c-4.438 0-8.346 2.926-9.595 7.184l-9.481 32.311h188.956l-8.586-29.26c-.123-.422-.269-.832-.429-1.235z" fill="#fff"/><path d="m274.076 351.17h-31.871c-4.438 0-8.346 2.926-9.595 7.184l-9.481 32.311h31.871l9.481-32.311c1.249-4.258 5.157-7.184 9.595-7.184z" fill="#f3f0ff"/><path d="m420 428.17v-32.756c0-2.623-2.126-4.749-4.749-4.749h-197.036c-1.657 0-3 1.343-3 3v34.505z" fill="#cbc4e5"/><path d="m247 428.17v-34.505c0-1.657 1.343-3 3-3h-31.785c-1.657 0-3 1.343-3 3v34.505z" fill="#b5adcf"/><g><path d="m53.575 488.83h122.887v-231.048h-117.887c-2.761 0-5 2.239-5 5z" fill="#c8effe"/></g><g><path d="m90 257.782h-31.425c-2.761 0-5 2.239-5 5v226.048h31.425v-226.048c0-2.761 2.239-5 5-5z" fill="#99e6fc"/></g><g><g><path d="m58.575 257.782c-2.761 0-5 2.239-5 5v38.405h122.887v-43.405z" fill="#cbc4e5"/></g><g><path d="m90 257.782h-31.425c-2.761 0-5 2.239-5 5v38.405h31.425v-38.405c0-2.761 2.239-5 5-5z" fill="#b5adcf"/></g></g></g><g><path d="m16.539 172.215v28.574c0 2.817 1.188 5.504 3.273 7.399l23.296 21.179c1.907 1.734 4.82 1.734 6.727 0l26.569-24.155v-32.998h-59.865z" fill="#62dbfb"/><path d="m76.404 172.215v32.998l26.569 24.155c1.907 1.734 4.82 1.734 6.727 0l26.569-24.155v-32.998z" fill="#ffee9a"/><path d="m136.27 172.215v32.998l26.569 24.155c1.907 1.734 4.82 1.734 6.727 0l26.569-24.155v-32.998z" fill="#62dbfb"/><path d="m196.135 172.215v32.998l26.569 24.155c1.907 1.734 4.82 1.734 6.727 0l26.569-24.156v-32.998h-59.865z" fill="#ffee9a"/><path d="m256 172.215v32.998l26.569 24.155c1.907 1.734 4.82 1.734 6.727 0l26.569-24.155v-32.998z" fill="#62dbfb"/><path d="m315.865 172.215v32.998l26.569 24.155c1.907 1.734 4.82 1.734 6.727 0l26.569-24.155v-32.998z" fill="#ffee9a"/><path d="m375.73 172.215v32.998l26.569 24.155c1.907 1.734 4.82 1.734 6.727 0l26.569-24.155v-32.998z" fill="#62dbfb"/><path d="m435.596 172.215v32.998l26.569 24.155c1.907 1.734 4.82 1.734 6.727 0l23.296-21.179c2.085-1.895 3.273-4.582 3.273-7.399v-28.574h-59.865z" fill="#ffee9a"/></g><g fill="#08a9f1"><path d="m499.5 136.715h-160.44c-23.83 6.444-52.373 10.198-83.06 10.198s-59.231-3.755-83.06-10.198h-160.44c-2.761 0-5 2.239-5 5v25.5c0 2.761 2.239 5 5 5h487c2.761 0 5-2.239 5-5v-25.5c0-2.762-2.239-5-5-5z"/><g><path d="m105 85.042c0-8.038 3.743-15.717 10.55-22.763h-103.05c-2.761 0-5 2.239-5 5v25.5c0 2.761 2.239 5 5 5h95.71c-2.1-4.111-3.21-8.371-3.21-12.737z"/><path d="m499.5 62.279h-103.05c6.807 7.045 10.55 14.725 10.55 22.763 0 4.366-1.11 8.626-3.21 12.737h95.71c2.761 0 5-2.239 5-5v-25.5c0-2.762-2.239-5-5-5z"/></g></g><g><g><ellipse cx="256" cy="85.042" fill="#ffee9a" rx="151" ry="61.871"/></g><g><path d="m145 85.042c0-31.392 57.06-57.321 131-61.33-6.544-.355-13.219-.541-20-.541-83.395 0-151 27.701-151 61.871s67.605 61.871 151 61.871c6.781 0 13.456-.186 20-.541-73.94-4.01-131-29.938-131-61.33z" fill="#fcdd66"/></g><g><g><path d="m326.324 84.255c1.737-6.49 3.541-12.702 5.409-18.62.664-2.105-1.102-4.201-3.284-3.866-17.005 2.616-32.397 10.115-44.694 21.016-1.351 1.198-1.351 3.314 0 4.512 12.297 10.902 27.689 18.401 44.694 21.016 2.181.335 3.948-1.761 3.284-3.866-1.868-5.918-3.672-12.13-5.409-18.62-.137-.511-.137-1.06 0-1.572z" fill="#cbc4e5"/></g><g><path d="m181.915 81.202c-2.386 2.001-2.386 5.679 0 7.68 15.225 12.766 34.863 20.456 56.301 20.456s41.076-7.69 56.301-20.456c2.386-2.001 2.386-5.679 0-7.68-15.225-12.766-34.863-20.456-56.301-20.456s-41.076 7.689-56.301 20.456z" fill="#cbc4e5"/></g><g><path d="m223.789 88.882c-2.386-2.001-2.386-5.679 0-7.68 10.098-8.468 22.145-14.683 35.364-17.921-6.711-1.644-13.718-2.535-20.937-2.535-21.438 0-41.076 7.69-56.301 20.456-2.386 2.001-2.386 5.679 0 7.68 15.225 12.766 34.863 20.456 56.301 20.456 7.219 0 14.226-.891 20.937-2.535-13.218-3.238-25.265-9.454-35.364-17.921z" fill="#b5adcf"/></g></g></g></g><g><path d="m429 360.17h-46c-1.657 0-3-1.343-3-3v-64c0-1.657 1.343-3 3-3h46c1.657 0 3 1.343 3 3v64c0 1.657-1.343 3-3 3z" fill="#ffee9a"/></g><g><path d="m400 357.17v-64c0-1.657 1.343-3 3-3h-20c-1.657 0-3 1.343-3 3v64c0 1.657 1.343 3 3 3h20c-1.657 0-3-1.343-3-3z" fill="#fcdd66"/></g><g><path d="m176.463 428.17h281.962v60.66h-281.962z" fill="#ffee9a"/></g><g><path d="m176.463 428.17h31.537v60.66h-31.537z" fill="#fcdd66"/></g></g><g><path d="m146.711 354.817c-4.142 0-7.5 3.358-7.5 7.5v34.683c0 4.142 3.358 7.5 7.5 7.5s7.5-3.358 7.5-7.5v-34.683c0-4.142-3.358-7.5-7.5-7.5z"/><path d="m177.096 94.629c17.081 14.322 38.788 22.209 61.12 22.209 18.461 0 36.486-5.404 51.833-15.363 11.24 7.321 23.9 12.197 37.261 14.252.539.083 1.078.124 1.612.124 3.025 0 5.902-1.307 7.918-3.658 2.381-2.777 3.146-6.515 2.046-10.002-1.718-5.44-3.4-11.205-5.007-17.149 1.608-5.949 3.29-11.712 5.007-17.149 1.1-3.486.335-7.225-2.046-10.001-2.373-2.766-5.932-4.087-9.531-3.534-13.359 2.055-26.019 6.93-37.259 14.251-15.346-9.959-33.371-15.363-51.834-15.363-22.333 0-44.04 7.888-61.12 22.209-2.841 2.382-4.47 5.876-4.47 9.586-.001 3.71 1.628 7.205 4.47 9.588zm125.029-15.838c6.335-3.63 13.135-6.379 20.239-8.154-1.122 3.794-2.221 7.7-3.285 11.679-.001.002-.001.004-.002.006-.475 1.78-.474 3.661.002 5.444 1.064 3.978 2.163 7.884 3.285 11.68-7.104-1.776-13.905-4.525-20.24-8.154 1.084-1.878 1.682-4.023 1.682-6.251s-.597-4.372-1.681-6.25zm-63.909-10.546c17.799 0 35.122 5.944 49.118 16.796-13.997 10.853-31.32 16.797-49.118 16.797s-35.122-5.945-49.118-16.797c13.997-10.852 31.319-16.796 49.118-16.796z"/><circle cx="221.089" cy="85.042" r="7.5"/><circle cx="147.893" cy="85.042" r="7.5"/><circle cx="364.107" cy="85.042" r="7.5"/><path d="m499.5 105.279c6.893 0 12.5-5.607 12.5-12.5v-25.5c0-6.893-5.607-12.5-12.5-12.5h-100.02c-8.174-7.649-19.554-14.563-33.864-20.427-29.401-12.047-68.33-18.682-109.616-18.682s-80.215 6.635-109.617 18.682c-14.31 5.863-25.69 12.777-33.864 20.427h-100.019c-6.893 0-12.5 5.607-12.5 12.5v25.5c0 6.893 5.607 12.5 12.5 12.5h2.919v23.936h-2.919c-6.893 0-12.5 5.607-12.5 12.5v25.5c0 5.691 3.827 10.496 9.039 12.002v21.572c0 4.92 2.088 9.64 5.728 12.949l.652.593v239.922h-2.919c-6.893 0-12.5 5.607-12.5 12.5v17.078c0 6.893 5.607 12.5 12.5 12.5h487c6.893 0 12.5-5.607 12.5-12.5v-17.078c0-6.893-5.607-12.5-12.5-12.5h-2.919v-36.253c0-4.142-3.357-7.5-7.5-7.5s-7.5 3.358-7.5 7.5v36.252h-15.656v-191.47c0-6.893-5.607-12.5-12.5-12.5h-394.85c-6.893 0-12.5 5.607-12.5 12.5v191.47h-15.656v-226.285l7.644 6.949c2.397 2.18 5.403 3.27 8.409 3.27 3.005 0 6.012-1.09 8.408-3.269l21.524-19.568 21.523 19.568c2.397 2.18 5.403 3.27 8.409 3.27 3.005 0 6.012-1.09 8.408-3.269l21.524-19.568 21.523 19.568c2.397 2.18 5.403 3.27 8.409 3.27s6.012-1.09 8.408-3.269l21.524-19.568 21.523 19.568c2.397 2.18 5.403 3.27 8.409 3.27s6.012-1.09 8.408-3.269l21.528-19.572 21.524 19.568c2.396 2.179 5.402 3.269 8.408 3.269s6.012-1.089 8.408-3.269l21.524-19.568 21.524 19.568c2.396 2.179 5.402 3.269 8.408 3.269s6.012-1.089 8.408-3.269l21.524-19.568 21.524 19.568c2.396 2.179 5.402 3.269 8.408 3.269s6.012-1.089 8.408-3.269l21.524-19.568 21.524 19.568c2.396 2.179 5.402 3.269 8.408 3.269s6.012-1.089 8.408-3.269l7.645-6.95v155.034c0 4.142 3.357 7.5 7.5 7.5s7.5-3.358 7.5-7.5v-168.67l.651-.592c3.641-3.31 5.729-8.029 5.729-12.95v-21.572c5.212-1.506 9.039-6.311 9.039-12.002v-25.5c0-6.893-5.607-12.5-12.5-12.5h-2.919v-23.936h2.923zm-33.575 363.973h31.075v12.078h-31.075zm-15 12.078h-266.962v-45.66h266.962zm-140.982-83.165v22.505h-87.229v-22.505zm-76.797-15 6.661-22.699c.31-1.057 1.296-1.795 2.399-1.795h67.738v24.495h-76.798zm91.797-117.883h125.981v155.388h-23.424v-25.256c0-5.887-4.177-10.815-9.721-11.984l-4.624-15.76h15.845c5.79 0 10.5-4.71 10.5-10.5v-64c0-5.79-4.71-10.5-10.5-10.5h-46c-5.79 0-10.5 4.71-10.5 10.5v50.5h-47.557zm62.557 87.388v-55h37v55zm-62.557 6h47.677c.732 5.08 5.101 9 10.38 9h14.522l4.546 15.495h-77.125zm0 39.495h87.557v22.505h-87.557zm-263.868-132.883h107.888v28.405h-107.888zm0 43.405h107.888v5.313c0 4.142 3.358 7.5 7.5 7.5s7.5-3.358 7.5-7.5v-5.313-43.405h125.98v78.388h-67.738c-7.715 0-14.621 5.17-16.792 12.572l-7.91 26.958c-5.457.369-9.788 4.915-9.788 10.464v27.005h-23.752v-71.669c0-4.142-3.358-7.5-7.5-7.5s-7.5 3.358-7.5 7.5v79.17 53.159h-107.888zm90.995-260.455c27.639-11.325 64.549-17.562 103.93-17.562s76.29 6.237 103.93 17.562c25.147 10.304 39.57 23.721 39.57 36.81s-14.423 26.506-39.57 36.81c-27.64 11.325-64.549 17.562-103.93 17.562s-76.291-6.237-103.93-17.562c-25.147-10.304-39.57-23.721-39.57-36.81s14.423-26.506 39.57-36.81zm-19.6 80.983h-102.051v-23.936h73.512c5.8 8.803 15.43 16.909 28.539 23.936zm-117.47-38.936v-20.5h86.101c-2.373 4.923-3.601 10.03-3.601 15.263 0 1.761.144 3.507.417 5.237zm31.075 378.973v12.078h-31.075v-12.078zm22.829-267.357-22.433 20.394-21.615-19.65c-.52-.473-.818-1.147-.818-1.85v-21.074h44.865v22.18zm59.866 0-22.433 20.394-22.433-20.394v-22.18h44.865v22.18zm59.865 0-22.433 20.394-22.433-20.394v-22.18h44.865v22.18zm59.865 0-22.433 20.394-22.433-20.394v-22.18h44.866zm59.865 0-22.433 20.394-22.432-20.394v-22.18h44.865zm59.865 0-22.433 20.394-22.433-20.394v-22.18h44.865v22.18zm59.866 0-22.433 20.394-22.433-20.394v-22.18h44.865v22.18zm59.865-1.106c0 .703-.298 1.377-.818 1.85l-21.614 19.65-22.433-20.394v-22.18h44.865zm9.039-56.574v20.5h-482v-20.5h156.96c24.882 6.63 53.821 10.198 84.04 10.198s59.158-3.568 84.04-10.198h71.96c4.143 0 7.5-3.358 7.5-7.5s-3.357-7.5-7.5-7.5h-32.47c13.109-7.027 22.74-15.133 28.539-23.936h73.512v23.936h-34.581c-4.143 0-7.5 3.358-7.5 7.5s3.357 7.5 7.5 7.5zm-82.917-53.936c.273-1.73.417-3.476.417-5.237 0-5.233-1.228-10.339-3.601-15.263h86.101v20.5z"/></g></g></svg>