<?xml version="1.0" encoding="utf-8"?>
<!-- Generator: Adobe Illustrator 16.0.0, SVG Export Plug-In . SVG Version: 6.00 Build 0)  -->
<!DOCTYPE svg PUBLIC "-//W3C//DTD SVG 1.1//EN" "http://www.w3.org/Graphics/SVG/1.1/DTD/svg11.dtd">
<svg version="1.1" id="Layer_1" xmlns="http://www.w3.org/2000/svg" xmlns:xlink="http://www.w3.org/1999/xlink" x="0px" y="0px"
	 width="91px" height="91px" viewBox="0 0 91 91" enable-background="new 0 0 91 91" xml:space="preserve">
<g>
	<g>
		<g>
			<path fill="#434B56" d="M67.455,25.872c-0.58,0-1.162-0.221-1.604-0.664c-0.887-0.887-0.885-2.322,0.002-3.209l10.91-10.895
				c0.885-0.885,2.322-0.885,3.207,0.002s0.885,2.322-0.002,3.209L69.059,25.21C68.615,25.651,68.035,25.872,67.455,25.872z"/>
			<path fill="#434B56" d="M44.914,48.417c-0.58,0-1.16-0.221-1.604-0.662c-0.887-0.887-0.887-2.322-0.002-3.209l10.516-10.518
				c0.885-0.885,2.32-0.887,3.207,0c0.887,0.885,0.887,2.32,0.002,3.207L46.518,47.753C46.074,48.196,45.494,48.417,44.914,48.417z"
				/>
			<path fill="#434B56" d="M28.564,64.772c-0.58,0-1.16-0.221-1.604-0.662c-0.887-0.887-0.887-2.322-0.002-3.209l4.742-4.744
				c0.887-0.887,2.32-0.885,3.209,0c0.885,0.885,0.885,2.322,0,3.207l-4.742,4.744C29.725,64.552,29.145,64.772,28.564,64.772z"/>
			<path fill="#434B56" d="M2.49,90.858c-0.58,0-1.16-0.221-1.604-0.662C0,89.31,0,87.874,0.885,86.987l14.541-14.549
				c0.887-0.885,2.32-0.885,3.209,0c0.885,0.885,0.885,2.322,0,3.207L4.094,90.194C3.65,90.638,3.07,90.858,2.49,90.858z"/>
			<g>
				<path fill="#F69B77" d="M53.914,16.854l-5.83,5.824c-1.539,1.539-1.539,4.057,0,5.596l14.047,14.043
					c1.535,1.535,4.051,1.535,5.59-0.002l5.824-5.824c1.539-1.539,1.539-4.055,0.002-5.594L59.506,16.854
					C57.967,15.317,55.449,15.317,53.914,16.854L53.914,16.854z"/>
				<path fill="#434B56" d="M64.924,45.737c-0.002,0,0,0-0.002,0c-1.664,0-3.225-0.645-4.395-1.816L46.48,29.878
					c-1.172-1.172-1.819-2.736-1.819-4.4c0-1.666,0.646-3.229,1.819-4.402l5.83-5.824c1.17-1.172,2.732-1.818,4.398-1.818
					c1.664,0,3.227,0.646,4.4,1.818L75.15,29.294c2.426,2.428,2.424,6.375-0.002,8.801l-5.824,5.824
					C68.152,45.091,66.588,45.737,64.924,45.737z M56.709,17.97c-0.453,0-0.875,0.174-1.189,0.488l-5.832,5.826
					c-0.314,0.314-0.49,0.738-0.49,1.193c0,0.453,0.176,0.877,0.49,1.193l14.047,14.043c0.629,0.629,1.75,0.629,2.383-0.004
					l5.824-5.822c0.658-0.658,0.658-1.729,0.002-2.387L57.902,18.458C57.586,18.144,57.162,17.97,56.709,17.97z"/>
			</g>
			<g>
				<path fill="#434B56" d="M57.486,58.987c-1.248,0-2.264-1.01-2.268-2.26c-0.037-10.373-9.639-19.848-21.855-21.57
					c-1.24-0.174-2.104-1.32-1.93-2.561c0.176-1.24,1.326-2.105,2.563-1.93c14.398,2.029,25.715,13.469,25.758,26.045
					c0.006,1.252-1.006,2.271-2.26,2.275C57.492,58.987,57.49,58.987,57.486,58.987z"/>
				<g>
					
						<ellipse transform="matrix(-0.7072 -0.707 0.707 -0.7072 29.601 115.5871)" fill="#ACD263" cx="38.735" cy="51.664" rx="9.576" ry="8.011"/>
					<path fill="#434B56" d="M40.299,62.761L40.299,62.761c-3.182,0-6.4-1.395-8.832-3.828c-4.619-4.617-5.115-11.635-1.107-15.643
						c1.756-1.756,4.176-2.723,6.814-2.723c3.18,0,6.4,1.395,8.832,3.826c4.619,4.619,5.113,11.637,1.105,15.645
						C45.355,61.794,42.935,62.761,40.299,62.761z M37.174,45.103c-1.01,0-2.455,0.242-3.605,1.395
						c-2.24,2.24-1.744,6.379,1.105,9.229c1.588,1.588,3.637,2.498,5.625,2.498c1.008,0,2.453-0.24,3.605-1.393
						c2.239-2.24,1.742-6.381-1.105-9.23C41.211,46.013,39.16,45.103,37.174,45.103z"/>
				</g>
			</g>
			<g>
				<path fill="#F16A6D" d="M15.598,55.169L9.77,60.995c-1.539,1.539-1.539,4.055,0,5.594L23.813,80.63
					c1.539,1.539,4.055,1.539,5.594,0l5.824-5.824c1.539-1.539,1.539-4.057,0.002-5.594L21.188,55.169
					C19.65,53.63,17.135,53.63,15.598,55.169L15.598,55.169z"/>
				<path fill="#434B56" d="M26.609,84.052c-1.664,0-3.227-0.646-4.4-1.818L8.166,68.192c-2.428-2.426-2.428-6.375,0-8.801
					l5.828-5.826c1.17-1.174,2.732-1.818,4.398-1.818s3.229,0.645,4.4,1.818l14.043,14.043c1.172,1.172,1.816,2.734,1.816,4.4
					c0,1.664-0.646,3.229-1.818,4.4l-5.824,5.824C29.836,83.405,28.273,84.052,26.609,84.052z M18.393,56.282
					c-0.453,0-0.875,0.174-1.191,0.488l-5.828,5.828c-0.658,0.658-0.658,1.729,0,2.387l14.043,14.041
					c0.633,0.629,1.752,0.631,2.387,0l5.824-5.824c0.314-0.316,0.49-0.74,0.49-1.195c0-0.453-0.174-0.875-0.488-1.191L19.584,56.772
					C19.268,56.456,18.846,56.282,18.393,56.282z"/>
			</g>
			<path fill="#434B56" d="M85.189,15.724c-0.861,0-1.684-0.492-2.064-1.326c-0.52-1.139-0.02-2.484,1.121-3.004
				c0.369-0.17,0.699-0.4,0.984-0.686c0.654-0.656,1.014-1.52,1.014-2.438s-0.359-1.781-1.008-2.432
				c-1.299-1.301-3.563-1.299-4.857-0.002c-0.654,0.652-1.012,1.516-1.012,2.434s0.357,1.781,1.008,2.432
				c0.887,0.885,0.887,2.32,0.002,3.207c-0.885,0.885-2.32,0.887-3.207,0.002c-1.508-1.508-2.34-3.512-2.338-5.643
				c0-2.129,0.83-4.133,2.338-5.639c1.502-1.504,3.504-2.334,5.635-2.334c0,0,0,0,0.002,0c2.131,0,4.133,0.83,5.639,2.338
				c1.504,1.504,2.334,3.506,2.334,5.637c0,2.129-0.83,4.133-2.336,5.639c-0.664,0.67-1.445,1.213-2.313,1.609
				C85.824,15.659,85.504,15.724,85.189,15.724z"/>
		</g>
	</g>
</g>
</svg>
