<svg height="512pt" viewBox="0 0 512.00042 512" width="512pt" xmlns="http://www.w3.org/2000/svg"><path d="m162.132812 145.066406-68.265624 59.734375h-85.332032l91.730469-58.367187c1.363281-.910156 2.96875-1.386719 4.609375-1.367188zm0 0" fill="#ef314c"/><path d="m256 156.246094v48.554687h-85.332031l39.765625-47.703125c6.101562 3.390625 12.984375 5.128906 19.964844 5.035156 6.089843.113282 12.117187-1.234374 17.582031-3.925781 2.46875-1.304687 5.226562-1.980469 8.019531-1.960937zm0 0" fill="#ef314c"/><path d="m503.46875 204.800781h-85.335938l-68.265624-59.734375h57.257812c1.640625-.019531 3.246094.457032 4.609375 1.367188zm0 0" fill="#f5f5f5"/><path d="m93.867188 204.800781v42.667969h-76.800782c-4.707031-.015625-8.519531-3.828125-8.53125-8.535156v-34.132813zm0 0" fill="#bb193b"/><path d="m210.433594 157.097656-39.765625 47.703125h-76.800781l68.265624-59.734375h34.902344zm0 0" fill="#f5f5f5"/><path d="m93.867188 204.800781h76.800781v42.667969h-76.800781zm0 0" fill="#cfd8dc"/><path d="m341.332031 204.800781h76.800781v42.667969h-76.800781zm0 0" fill="#bb193b"/><path d="m170.667969 204.800781h85.332031v42.667969h-85.332031zm0 0" fill="#bb193b"/><path d="m256 204.800781h85.332031v42.667969h-85.332031zm0 0" fill="#cfd8dc"/><path d="m503.46875 204.800781v34.132813c-.015625 4.707031-3.828125 8.519531-8.535156 8.535156h-76.800782v-42.667969zm0 0" fill="#cfd8dc"/><path d="m34.132812 247.46875h443.734376v247.464844c0 4.714844-3.820313 8.535156-8.535157 8.535156h-426.664062c-4.714844 0-8.535157-3.820312-8.535157-8.535156zm0 0" fill="#dfc49c"/><path d="m34.132812 247.46875h418.132813v247.464844c0 4.714844-3.820313 8.535156-8.53125 8.535156h-401.066406c-4.714844 0-8.535157-3.820312-8.535157-8.535156zm0 0" fill="#ffe0b2"/><path d="m315.734375 307.199219v196.269531h-119.46875v-196.269531c.015625-4.707031 3.828125-8.519531 8.535156-8.53125h102.398438c4.707031.011719 8.519531 3.824219 8.535156 8.53125zm0 0" fill="#c81e1e"/><path d="m290.132812 307.199219v196.269531h-93.867187v-196.269531c.015625-4.707031 3.828125-8.519531 8.535156-8.53125h76.800781c4.707032.011719 8.519532 3.824219 8.53125 8.53125zm0 0" fill="#f44335"/><path d="m153.601562 307.199219v68.269531h-76.800781v-68.269531c.011719-4.707031 3.824219-8.519531 8.53125-8.53125h59.734375c4.707032.011719 8.519532 3.824219 8.535156 8.53125zm0 0" fill="#0377bc"/><path d="m435.199219 307.199219v68.269531h-76.800781v-68.269531c.015624-4.707031 3.828124-8.519531 8.535156-8.53125h59.734375c4.707031.011719 8.519531 3.824219 8.53125 8.53125zm0 0" fill="#0377bc"/><path d="m128 307.199219v68.269531h-51.199219v-68.269531c.011719-4.707031 3.824219-8.519531 8.53125-8.53125h34.136719c4.707031.011719 8.519531 3.824219 8.53125 8.53125zm0 0" fill="#02a9f4"/><path d="m409.601562 307.199219v68.269531h-51.203124v-68.269531c.015624-4.707031 3.828124-8.519531 8.535156-8.53125h34.132812c4.707032.011719 8.519532 3.824219 8.535156 8.53125zm0 0" fill="#02a9f4"/><path d="m238.933594 332.800781h34.132812c4.714844 0 8.535156 3.820313 8.535156 8.53125v34.136719c0 4.710938-3.820312 8.53125-8.535156 8.53125h-34.132812c-4.710938 0-8.535156-3.820312-8.535156-8.53125v-34.136719c0-4.710937 3.824218-8.53125 8.535156-8.53125zm0 0" fill="#0377bc"/><path d="m238.933594 332.800781h8.535156c4.710938 0 8.53125 3.820313 8.53125 8.53125v34.136719c0 4.710938-3.820312 8.53125-8.53125 8.53125h-8.535156c-4.710938 0-8.535156-3.820312-8.535156-8.53125v-34.136719c0-4.710937 3.824218-8.53125 8.535156-8.53125zm0 0" fill="#02a9f4"/><path d="m418.132812 204.800781h-76.800781l-39.765625-47.703125c5.28125-2.996094 9.851563-7.101562 13.398438-12.03125h34.902344zm0 0" fill="#ef314c"/><path d="m341.332031 204.800781h-85.332031v-48.554687c2.796875-.019532 5.550781.65625 8.023438 1.960937 5.460937 2.691407 11.488281 4.039063 17.578124 3.925781 6.980469.09375 13.863282-1.644531 19.964844-5.035156zm0 0" fill="#f5f5f5"/><path d="m332.800781 81.835938s0 39.679687-17.835937 63.230468c-3.546875 4.929688-8.117188 9.035156-13.398438 12.03125-6.101562 3.390625-12.984375 5.128906-19.964844 5.035156-6.089843.113282-12.117187-1.234374-17.578124-3.925781-5.03125-2.617187-11.015626-2.617187-16.042969 0-5.464844 2.691407-11.492188 4.039063-17.582031 3.925781-6.980469.09375-13.863282-1.644531-19.964844-5.035156-5.28125-2.996094-9.851563-7.101562-13.398438-12.03125-17.835937-23.550781-17.835937-63.230468-17.835937-63.230468 0-32.171876 17.066406-56.234376 42.667969-56.234376 8.632812-.261718 17.148437 2.023438 24.492187 6.570313 5.878906 3.753906 13.402344 3.753906 19.285156 0 7.339844-4.546875 15.859375-6.832031 24.488281-6.570313 25.601563 0 42.667969 24.0625 42.667969 56.234376zm0 0" fill="#c81e1e"/><path d="m307.199219 83.324219s0 70.277343-42.664063 70.277343c-5.101562.089844-10.144531-1.101562-14.664062-3.472656-4.160156-2.261718-9.183594-2.261718-13.339844 0-4.519531 2.371094-9.5625 3.5625-14.664062 3.472656-42.667969 0-42.667969-70.277343-42.667969-70.277343 0-28.109375 14.222656-49.191407 35.558593-49.191407 7.230469-.207031 14.355469 1.785157 20.425782 5.71875 4.835937 3.300782 11.199218 3.300782 16.03125 0 6.074218-3.933593 13.199218-5.925781 20.429687-5.71875 21.332031 0 35.554688 21.082032 35.554688 49.191407zm0 0" fill="#f44335"/><path d="m503.46875 213.332031h-494.933594c-3.796875 0-7.132812-2.503906-8.195312-6.148437-1.058594-3.640625.414062-7.546875 3.613281-9.582032l91.734375-58.371093c2.722656-1.796875 5.921875-2.738281 9.1875-2.695313h92.160156c4.710938 0 8.53125 3.820313 8.53125 8.53125 0 4.714844-3.820312 8.535156-8.53125 8.535156h-92.160156l-67.042969 42.664063h436.328125l-67.003906-42.632813-92.191406-.03125c-4.710938 0-8.53125-3.820312-8.53125-8.535156 0-4.710937 3.820312-8.53125 8.53125-8.53125h92.160156c3.371094-.027344 6.667969.976563 9.449219 2.875l91.472656 58.191406c3.199219 2.035157 4.671875 5.941407 3.613281 9.582032-1.0625 3.644531-4.398437 6.148437-8.191406 6.148437zm0 0"/><path d="m93.871094 213.332031c-3.554688.003907-6.738282-2.199219-7.992188-5.527343-1.25-3.328126-.308594-7.082032 2.367188-9.425782l68.265625-59.730468c3.546875-3.089844 8.925781-2.722657 12.023437.8125 3.097656 3.539062 2.75 8.917968-.78125 12.027343l-68.265625 59.734375c-1.554687 1.363282-3.550781 2.113282-5.617187 2.109375zm0 0"/><path d="m170.667969 213.332031c-3.3125 0-6.320313-1.917969-7.722657-4.914062-1.402343-2.996094-.945312-6.535157 1.171876-9.078125l39.765624-47.703125c3.046876-3.496094 8.332032-3.917969 11.894532-.945313 3.5625 2.96875 4.101562 8.238282 1.210937 11.867188l-39.761719 47.703125c-1.621093 1.949219-4.027343 3.074219-6.558593 3.070312zm0 0"/><path d="m418.132812 213.332031c-2.066406.003907-4.0625-.746093-5.617187-2.109375l-68.265625-59.734375c-2.304688-2.007812-3.359375-5.089843-2.769531-8.085937.589843-3 2.738281-5.449219 5.628906-6.433594 2.894531-.980469 6.089844-.339844 8.382813 1.679688l68.265624 59.730468c2.675782 2.34375 3.617188 6.097656 2.367188 9.425782-1.253906 3.328124-4.4375 5.53125-7.992188 5.527343zm0 0"/><path d="m341.335938 213.332031c-2.53125.003907-4.9375-1.121093-6.558594-3.070312l-39.761719-47.703125c-2.890625-3.628906-2.351563-8.898438 1.210937-11.867188 3.5625-2.972656 8.847657-2.550781 11.894532.945313l39.765625 47.703125c2.117187 2.542968 2.574219 6.082031 1.171875 9.078125-1.402344 2.996093-4.410156 4.914062-7.722656 4.914062zm0 0"/><path d="m494.933594 256h-477.867188c-9.421875-.007812-17.0585935-7.644531-17.066406-17.066406v-34.132813c0-4.714843 3.820312-8.535156 8.535156-8.535156h494.933594c4.710938 0 8.53125 3.820313 8.53125 8.535156v34.132813c-.007812 9.421875-7.644531 17.058594-17.066406 17.066406zm-477.867188-42.667969v25.601563h477.867188v-25.601563zm0 0"/><path d="m256 213.332031c-4.710938 0-8.53125-3.820312-8.53125-8.53125v-48.554687c0-4.714844 3.820312-8.535156 8.53125-8.535156 4.714844 0 8.535156 3.820312 8.535156 8.535156v48.554687c0 4.710938-3.820312 8.53125-8.535156 8.53125zm0 0"/><path d="m93.867188 256c-4.714844 0-8.535157-3.820312-8.535157-8.53125v-42.667969c0-4.714843 3.820313-8.535156 8.535157-8.535156 4.710937 0 8.53125 3.820313 8.53125 8.535156v42.667969c0 4.710938-3.820313 8.53125-8.53125 8.53125zm0 0"/><path d="m170.667969 256c-4.714844 0-8.535157-3.820312-8.535157-8.53125v-42.667969c0-4.714843 3.820313-8.535156 8.535157-8.535156 4.710937 0 8.53125 3.820313 8.53125 8.535156v42.667969c0 4.710938-3.820313 8.53125-8.53125 8.53125zm0 0"/><path d="m341.332031 256c-4.710937 0-8.53125-3.820312-8.53125-8.53125v-42.667969c0-4.714843 3.820313-8.535156 8.53125-8.535156 4.714844 0 8.535157 3.820313 8.535157 8.535156v42.667969c0 4.710938-3.820313 8.53125-8.535157 8.53125zm0 0"/><path d="m418.132812 256c-4.710937 0-8.53125-3.820312-8.53125-8.53125v-42.667969c0-4.714843 3.820313-8.535156 8.53125-8.535156 4.714844 0 8.535157 3.820313 8.535157 8.535156v42.667969c0 4.710938-3.820313 8.53125-8.535157 8.53125zm0 0"/><path d="m256 256c-4.710938 0-8.53125-3.820312-8.53125-8.53125v-42.667969c0-4.714843 3.820312-8.535156 8.53125-8.535156 4.714844 0 8.535156 3.820313 8.535156 8.535156v42.667969c0 4.710938-3.820312 8.53125-8.535156 8.53125zm0 0"/><path d="m469.332031 512h-426.664062c-9.421875-.007812-17.058594-7.644531-17.066407-17.066406v-247.464844c0-4.714844 3.820313-8.535156 8.53125-8.535156h443.734376c4.710937 0 8.53125 3.820312 8.53125 8.535156v247.464844c-.007813 9.421875-7.644532 17.058594-17.066407 17.066406zm-426.664062-256v238.933594h426.679687l-.015625-238.933594zm0 0"/><path d="m315.734375 512h-119.46875c-4.710937 0-8.53125-3.820312-8.53125-8.53125v-196.269531c.007813-9.421875 7.644531-17.054688 17.066406-17.066407h102.398438c9.421875.011719 17.058593 7.644532 17.066406 17.066407v196.269531c0 4.710938-3.820313 8.53125-8.53125 8.53125zm-110.933594-17.066406h102.398438v-187.734375h-102.398438zm0 0"/><path d="m153.601562 384h-76.800781c-4.714843 0-8.535156-3.820312-8.535156-8.53125v-68.269531c.011719-9.421875 7.644531-17.054688 17.066406-17.066407h59.734375c9.421875.011719 17.058594 7.644532 17.066406 17.066407v68.269531c0 4.710938-3.820312 8.53125-8.53125 8.53125zm-68.269531-17.066406h59.734375v-59.734375h-59.734375zm0 0"/><path d="m162.132812 384h-93.867187c-4.710937 0-8.53125-3.820312-8.53125-8.53125 0-4.714844 3.820313-8.535156 8.53125-8.535156h93.867187c4.714844 0 8.535157 3.820312 8.535157 8.535156 0 4.710938-3.820313 8.53125-8.535157 8.53125zm0 0"/><path d="m435.199219 384h-76.800781c-4.710938 0-8.53125-3.820312-8.53125-8.53125v-68.269531c.007812-9.421875 7.644531-17.054688 17.066406-17.066407h59.734375c9.421875.011719 17.054687 7.644532 17.066406 17.066407v68.269531c0 4.710938-3.820313 8.53125-8.535156 8.53125zm-68.265625-17.066406h59.734375v-59.734375h-59.734375zm0 0"/><path d="m273.066406 392.535156h-34.132812c-9.421875-.011718-17.058594-7.644531-17.066406-17.066406v-34.136719c.007812-9.421875 7.644531-17.054687 17.066406-17.066406h34.132812c9.421875.011719 17.058594 7.644531 17.066406 17.066406v34.136719c-.007812 9.421875-7.644531 17.054688-17.066406 17.066406zm-34.132812-51.203125v34.136719h34.144531l-.011719-34.136719zm0 0"/><path d="m443.734375 384h-93.867187c-4.714844 0-8.535157-3.820312-8.535157-8.53125 0-4.714844 3.820313-8.535156 8.535157-8.535156h93.867187c4.710937 0 8.53125 3.820312 8.53125 8.535156 0 4.710938-3.820313 8.53125-8.53125 8.53125zm0 0"/><path d="m247.46875 426.667969h-17.070312c-4.710938 0-8.53125-3.820313-8.53125-8.535157 0-4.710937 3.820312-8.53125 8.53125-8.53125h17.070312c4.710938 0 8.53125 3.820313 8.53125 8.53125 0 4.714844-3.820312 8.535157-8.53125 8.535157zm0 0"/><path d="m281.601562 170.667969c-7.457031.109375-14.828124-1.578125-21.496093-4.914063-2.582031-1.316406-5.632813-1.3125-8.214844.003906-6.667969 3.335938-14.035156 5.015626-21.492187 4.910157-59.050782 0-59.730469-85.21875-59.730469-88.847657 0-37.519531 21.53125-64.753906 51.199219-64.753906 10.269531-.25 20.390624 2.488282 29.128906 7.886719 3.046875 1.960937 6.957031 1.960937 10.003906 0 8.742188-5.398437 18.863281-8.136719 29.132812-7.886719 29.667969 0 51.199219 27.234375 51.199219 64.753906 0 3.628907-.679687 88.847657-59.730469 88.847657zm-25.601562-22.957031c4.136719 0 8.21875.980468 11.898438 2.867187 4.261718 2.085937 8.960937 3.125 13.703124 3.023437 42.03125 0 42.664063-71.027343 42.664063-71.789062 0-28.074219-14.035156-47.679688-34.132813-47.679688-6.996093-.230468-13.90625 1.570313-19.902343 5.179688-8.675781 5.554688-19.792969 5.554688-28.46875 0-5.992188-3.613281-12.902344-5.410156-19.894531-5.179688-20.097657 0-34.132813 19.609376-34.132813 47.6875 0 .710938.617187 71.78125 42.664063 71.78125 4.742187.097657 9.4375-.9375 13.699218-3.023437 3.683594-1.886719 7.761719-2.871094 11.902344-2.867187zm0 0"/><path d="m256 68.265625c-4.710938 0-8.53125-3.820313-8.53125-8.53125v-24.882813c0-.894531.140625-1.785156.414062-2.632812l8.535157-26.316406c.941406-2.902344 3.355469-5.078125 6.335937-5.714844 2.984375-.636719 6.078125.367188 8.117188 2.632812 2.042968 2.265626 2.71875 5.445313 1.78125 8.347657l-8.117188 25.03125v23.535156c0 4.710937-3.820312 8.53125-8.535156 8.53125zm0 0"/><path d="m273.066406 76.800781c-2.253906 0-4.417968-.890625-6.015625-2.484375-2.988281-3.089844-6.839843-5.199218-11.050781-6.050781-4.214844.855469-8.070312 2.964844-11.058594 6.058594-3.351562 3.242187-8.6875 3.191406-11.976562-.113281-3.289063-3.304688-3.316406-8.636719-.0625-11.976563 6.167968-6.273437 14.34375-10.175781 23.097656-11.035156 8.753906.859375 16.929688 4.761719 23.101562 11.035156 2.4375 2.441406 3.167969 6.109375 1.847657 9.296875-1.320313 3.1875-4.429688 5.269531-7.882813 5.269531zm0 0"/><path d="m110.933594 349.867188c-3.449219 0-6.5625-2.078126-7.882813-5.269532-1.320312-3.1875-.589843-6.855468 1.851563-9.296875l40.191406-40.191406c3.34375-3.261719 8.6875-3.226563 11.988281.074219 3.304688 3.304687 3.339844 8.648437.078125 11.992187l-40.191406 40.191407c-1.601562 1.601562-3.769531 2.503906-6.035156 2.5zm0 0"/><path d="m392.535156 349.867188c-3.453125 0-6.5625-2.078126-7.882812-5.269532-1.320313-3.1875-.589844-6.855468 1.847656-9.296875l40.191406-40.191406c3.34375-3.261719 8.6875-3.226563 11.992188.074219 3.300781 3.304687 3.335937 8.648437.074218 11.992187l-40.191406 40.191407c-1.597656 1.601562-3.769531 2.503906-6.03125 2.5zm0 0"/></svg>