<svg id="Capa_1" enable-background="new 0 0 512.02 512.02" height="512" viewBox="0 0 512.02 512.02" width="512" xmlns="http://www.w3.org/2000/svg"><path d="m351.384 103.036h-187.429c-15.698 0-28.424 12.726-28.424 28.423v17.288h244.276v-17.287c.001-15.698-12.725-28.424-28.423-28.424z" fill="#00c2fb"/><path d="m195.919 103.036h-31.964c-15.698 0-28.424 12.726-28.424 28.423v17.288h31.964v-17.287c.001-15.698 12.727-28.424 28.424-28.424z" fill="#00abf2"/><path d="m436.221 260.311c-16.537 0-30.068-13.531-30.068-30.068 0 16.537-13.531 30.068-30.07 30.068-16.537 0-30.068-13.531-30.068-30.068 0 16.537-13.531 30.068-30.069 30.068s-30.069-13.531-30.069-30.068c0 16.537-13.531 30.068-30.069 30.068-16.537 0-30.069-13.531-30.069-30.068 0 16.537-13.531 30.068-30.069 30.068-16.537 0-30.069-13.531-30.069-30.068 0 16.537-13.531 30.068-30.069 30.068-16.536 0-30.066-13.529-30.068-30.065-.002 16.536-13.532 30.065-30.069 30.065-1.319 0-2.616-.095-3.892-.262v218.193h368.611v-218.193c-1.276.167-2.574.262-3.893.262z" fill="#fbc700"/><path d="m104.071 239.26c-3.854 12.167-15.278 21.051-28.677 21.051-1.319 0-2.616-.095-3.892-.262v218.193h32.569z" fill="#eab900"/><path d="m197.963 292.68h-88.761c-4.215 0-7.633 3.417-7.633 7.632v177.929h104.026v-177.928c0-4.216-3.417-7.633-7.632-7.633z" fill="#7b6c79"/><path d="m140.239 292.68h-31.037c-4.215 0-7.633 3.417-7.633 7.632v177.929h31.037v-177.928c.001-4.216 3.418-7.633 7.633-7.633z" fill="#665e68"/><path d="m409.222 390.356v-90.043c0-4.215-3.417-7.632-7.633-7.632h-158.56c-4.215 0-7.633 3.417-7.633 7.632v90.043z" fill="#00c2fb"/><path d="m275.083 292.68h-32.054c-4.215 0-7.633 3.417-7.633 7.632v90.043h32.054v-90.043c0-4.215 3.418-7.632 7.633-7.632z" fill="#00abf2"/><path d="m453.969 475.242h-396.323c-5.537 0-10.026 4.488-10.026 10.026v9.032c0 5.537 4.489 10.026 10.026 10.026h396.323c5.537 0 10.026-4.489 10.026-10.026v-9.032c0-5.538-4.489-10.026-10.026-10.026z" fill="#c9f0fe"/><path d="m78.657 494.299v-9.032c0-5.537 4.489-10.026 10.026-10.026h-31.037c-5.537 0-10.026 4.488-10.026 10.026v9.032c0 5.537 4.489 10.026 10.026 10.026h31.037c-5.537 0-10.026-4.489-10.026-10.026z" fill="#9be8fd"/><path d="m235.396 388.356v18.3c0 4.216 3.417 7.633 7.633 7.633h158.56c4.215 0 7.633-3.417 7.633-7.633v-18.3z" fill="#00abf2"/><path d="m267.45 406.655v-18.3h-32.054v18.3c0 4.216 3.417 7.633 7.633 7.633h32.054c-4.216 0-7.633-3.417-7.633-7.633z" fill="#0092d1"/><path d="m228.491 52.944-32.7 87.347c-1.555 3.936 2.464 7.767 6.321 6.025l85.683-36.84z" fill="#fcd79b"/><path d="m244.986 68.668-16.495-15.724-32.7 87.347c-1.555 3.936 2.464 7.767 6.321 6.025l16.454-7.074z" fill="#ffc365"/><path d="m165.101 230.242c0 16.855 13.713 30.568 30.569 30.568s30.569-13.713 30.569-30.568v-54.911h-61.138z" fill="#ff636e"/><path d="m194.67 230.242v-54.911h-29.569v54.911c0 16.855 13.713 30.568 30.569 30.568 5.36 0 10.4-1.391 14.785-3.825-9.404-5.218-15.785-15.247-15.785-26.743z" fill="#ff4654"/><path d="m285.376 230.242c0 16.855 13.713 30.568 30.569 30.568s30.569-13.713 30.569-30.568v-54.911h-61.138z" fill="#ff636e"/><path d="m314.945 230.242v-54.911h-29.569v54.911c0 16.855 13.713 30.568 30.569 30.568 5.36 0 10.4-1.391 14.784-3.825-9.403-5.218-15.784-15.247-15.784-26.743z" fill="#ff4654"/><path d="m44.825 189.257v40.986c0 16.855 13.713 30.568 30.569 30.568s30.569-13.713 30.569-30.568v-54.911h-47.213c-7.678-.001-13.925 6.246-13.925 13.925z" fill="#ff636e"/><path d="m74.394 230.242v-40.986c0-7.678 6.247-13.925 13.925-13.925h-29.569c-7.678 0-13.925 6.247-13.925 13.925v40.986c0 16.855 13.713 30.568 30.569 30.568 5.36 0 10.4-1.391 14.785-3.825-9.404-5.218-15.785-15.247-15.785-26.743z" fill="#ff4654"/><path d="m452.865 175.331h-47.212v54.911c0 16.855 13.713 30.568 30.568 30.568 16.856 0 30.569-13.713 30.569-30.568v-40.986c0-7.678-6.247-13.925-13.925-13.925z" fill="#ff636e"/><path d="m435.222 230.242v-54.911h-29.569v54.911c0 16.855 13.713 30.568 30.568 30.568 5.36 0 10.4-1.391 14.785-3.825-9.404-5.218-15.784-15.247-15.784-26.743z" fill="#ff4654"/><path d="m104.963 230.242c0 16.855 13.713 30.568 30.569 30.568s30.569-13.713 30.569-30.568v-54.911h-61.138z" fill="#00c2fb"/><path d="m134.532 230.242v-54.911h-29.569v54.911c0 16.855 13.713 30.568 30.569 30.568 5.36 0 10.4-1.391 14.785-3.825-9.404-5.218-15.785-15.247-15.785-26.743z" fill="#00abf2"/><path d="m225.239 230.242c0 16.855 13.713 30.568 30.568 30.568 16.856 0 30.569-13.713 30.569-30.568v-54.911h-61.138v54.911z" fill="#00c2fb"/><path d="m254.807 230.242v-54.911h-29.569v54.911c0 16.855 13.713 30.568 30.568 30.568 5.36 0 10.4-1.391 14.785-3.825-9.403-5.218-15.784-15.247-15.784-26.743z" fill="#00abf2"/><path d="m345.515 175.331v54.911c0 16.855 13.713 30.568 30.568 30.568 16.856 0 30.569-13.713 30.569-30.568v-54.911z" fill="#00c2fb"/><path d="m375.083 230.242v-54.911h-29.569v54.911c0 16.855 13.713 30.568 30.568 30.568 5.36 0 10.4-1.391 14.785-3.825-9.403-5.218-15.784-15.247-15.784-26.743z" fill="#00abf2"/><path d="m453.969 146.748h-396.323c-5.537 0-10.026 4.488-10.026 10.026v9.032c0 5.537 4.489 10.026 10.026 10.026h396.323c5.537 0 10.026-4.489 10.026-10.026v-9.032c0-5.538-4.489-10.026-10.026-10.026z" fill="#c9f0fe"/><path d="m94.12 165.805v-9.032c0-5.537 4.489-10.026 10.026-10.026h-46.5c-5.537 0-10.026 4.488-10.026 10.026v9.032c0 5.537 4.489 10.026 10.026 10.026h46.5c-5.537 0-10.026-4.489-10.026-10.026z" fill="#9be8fd"/><path d="m308.086 90.855-.944-.9-9.071-8.647c-1.987-1.894-5.206-1.796-7.08.169-5.227 5.484-10.912 11.447-16.203 16.997l13.639 13.002c2.451 2.337 6.333 2.244 8.67-.207l11.195-11.744c2.338-2.451 2.246-6.333-.206-8.67z" fill="#ffc365"/><path d="m270.111 61.573c1.908-2.002 1.832-5.172-.169-7.08l-22.88-21.811-.944-.9c-2.451-2.337-6.333-2.244-8.67.207l-11.195 11.744c-2.337 2.451-2.244 6.333.207 8.67l27.449 26.166z" fill="#ffc365"/><path d="m244.819 61.227 12.411-13.02c1.101-1.155 2.513-1.833 3.979-2.037l-14.149-13.487-.944-.9c-2.451-2.337-6.333-2.244-8.67.207l-11.196 11.744c-2.337 2.451-2.244 6.333.208 8.67l17.067 16.269c-1.08-2.439-.662-5.394 1.294-7.446z" fill="#ffb640"/><path d="m331.098 48.6c-.699-12.367-6.341-23.574-15.887-31.557-16.221-13.565-40.655-13.536-56.838.067-3.657 3.074-6.77 6.671-9.252 10.69-1.698 2.749-1.24 6.355 1.089 8.575l19.386 18.48c1.799 1.715 1.867 4.574.153 6.373l-16.288 17.087c-2.751 2.886-4.213 6.669-4.118 10.655.095 3.985 1.737 7.694 4.622 10.445 2.797 2.666 6.438 4.122 10.288 4.122.122 0 .244-.001.367-.004 3.985-.095 7.695-1.737 10.445-4.622l16.288-17.086c1.715-1.8 4.574-1.869 6.373-.153l5.579 5.318c2.32 2.212 5.89 2.532 8.488.762 2.575-1.752 4.974-3.788 7.13-6.05 8.427-8.84 12.864-20.905 12.175-33.102z" fill="#ff636e"/><path d="m257.061 42.905c-.652-1.902-.479-4.06.63-5.856 2.482-4.019 5.596-7.616 9.252-10.69 16.042-13.484 40.188-13.622 56.408-.41-2.265-3.27-4.984-6.268-8.14-8.907-16.221-13.564-40.655-13.535-56.838.068-3.657 3.074-6.77 6.671-9.252 10.69-1.698 2.749-1.24 6.355 1.089 8.575z" fill="#ff4654"/><path d="m257.913 98.22c-.096-3.985 1.367-7.769 4.118-10.655l16.288-17.087c1.714-1.799 1.646-4.658-.153-6.373l-7.277-6.937c.302 1.41-.073 2.94-1.14 4.06l-16.288 17.087c-2.751 2.886-4.213 6.669-4.118 10.655.095 3.985 1.737 7.694 4.622 10.445 1.374 1.31 2.953 2.323 4.66 3.02-.432-1.347-.677-2.762-.712-4.215z" fill="#ff4654"/><path d="m177.65 361.964h-14.219c-2.699 0-4.887 2.188-4.887 4.887v31.426c0 2.699 2.188 4.887 4.887 4.887h14.219c2.699 0 4.887-2.188 4.887-4.887v-31.426c0-2.699-2.188-4.887-4.887-4.887z" fill="#665e68"/><path d="m401.792 285.375h-158.561c-8.345 0-15.133 6.788-15.133 15.133v106.343c0 8.345 6.788 15.133 15.133 15.133h158.561c8.344 0 15.132-6.788 15.132-15.133 0-12.746 0-95.427 0-106.343 0-8.345-6.788-15.133-15.132-15.133zm.132 121.475c0 .073-.06.133-.132.133h-158.561c-.073 0-.133-.06-.133-.133v-10.8h158.825v10.8zm0-25.799h-158.825v-80.543c0-.073.06-.133.133-.133h158.561c.072 0 .132.06.132.133v80.543z"/><path d="m354.277 320.469c-2.93-2.928-7.678-2.928-10.607 0-2.929 2.93-2.929 7.678 0 10.607l26.771 26.771c2.931 2.929 7.678 2.928 10.607 0 2.929-2.93 2.929-7.678 0-10.607z"/><path d="m378.621 309.51c-2.93-2.928-7.678-2.928-10.607 0-2.929 2.93-2.929 7.678 0 10.607l13.386 13.386c2.931 2.929 7.678 2.928 10.607 0 2.929-2.93 2.929-7.678 0-10.607z"/><path d="m177.852 354.659h-14.219c-6.831 0-12.388 5.557-12.388 12.387v31.427c0 6.831 5.557 12.388 12.388 12.388h14.219c6.831 0 12.388-5.557 12.388-12.388v-31.427c0-6.83-5.556-12.387-12.388-12.387zm-2.612 41.201h-8.994v-26.201h8.994z"/><path d="m440.316 347.599c4.143 0 7.5-3.357 7.5-7.5v-73.864c15.163-4.837 26.177-19.053 26.177-35.797v-40.986c0-5.28-1.981-10.095-5.219-13.781 1.843-2.774 2.923-6.097 2.923-9.67v-9.032c0-9.664-7.862-17.526-17.525-17.526h-66.661v-7.788c0-19.808-16.115-35.923-35.924-35.923h-33.916c.003-.19.019-.378.014-.568-.02-.841-.124-1.666-.291-2.472 2.431-1.783 4.708-3.771 6.799-5.965 19.915-20.892 19.114-55.128-4.127-74.721-19.534-16.47-48.546-15.936-67.487 1.244-3.203 2.906-5.995 6.156-8.348 9.713-4.276-.674-8.804.683-12.01 4.046l-11.195 11.744c-4.622 4.849-4.889 12.048-1.352 17.15l-14.91 39.827h-40.605c-19.809 0-35.924 16.115-35.924 35.923v7.788h-70.386c-9.663 0-17.525 7.862-17.525 17.526v9.033c0 3.573 1.08 6.896 2.923 9.67-3.238 3.686-5.219 8.501-5.219 13.781v40.986c0 16.745 11.015 30.962 26.178 35.798v201.701h-6.356c-9.663 0-17.525 7.862-17.525 17.526v9.031c0 9.664 7.862 17.526 17.525 17.526h180.662c4.143 0 7.5-3.357 7.5-7.5s-3.357-7.5-7.5-7.5h-180.663c-1.393 0-2.525-1.134-2.525-2.526v-9.031c0-1.393 1.133-2.526 2.525-2.526h396.323c1.393 0 2.525 1.134 2.525 2.526v9.031c0 1.393-1.133 2.526-2.525 2.526h-180.661c-4.143 0-7.5 3.357-7.5 7.5s3.357 7.5 7.5 7.5h180.661c9.663 0 17.525-7.862 17.525-17.526v-9.031c0-9.664-7.862-17.526-17.525-17.526h-6.355v-92.838c0-4.143-3.357-7.5-7.5-7.5s-7.5 3.357-7.5 7.5v92.838h-219.519v-167.428c0-8.345-6.788-15.133-15.132-15.133h-88.761c-8.345 0-15.133 6.788-15.133 15.133v167.429h-15.067v-200.103c10.76-1.04 20.299-6.679 26.461-14.898 14.991 20.003 45.024 20.131 60.138.001 15.108 20.129 45.116 20.007 60.138 0 14.999 19.984 45.006 20.154 60.138 0 15.03 20.026 45.032 20.119 60.138 0 15.081 20.086 45.079 20.058 60.139 0 6.167 8.22 15.7 13.868 26.461 14.897v72.265c-.002 4.142 3.356 7.5 7.498 7.5zm-331.044-47.091c0-.073.06-.133.133-.133h88.761c.072 0 .132.06.132.133v167.429h-89.025v-167.429zm242.315-189.777c11.537 0 20.924 9.386 20.924 20.923v7.788h-134.832l47.984-20.631c5.4 3.361 12.584 2.529 17.066-2.172l5.632-5.908zm-65.992-12.314 9.308-9.764 7.221 6.883-9.308 9.765c-4.088-3.899-3.071-2.929-7.221-6.884zm-22.938-74.057c13.4-12.155 33.926-12.537 47.741-.888 16.169 13.631 17.349 37.786 2.938 52.904-1.533 1.608-3.203 3.066-4.994 4.362l-4.893-4.664c-4.942-4.708-12.882-4.611-17.684.424-13.23 13.879-9.243 9.696-16.288 17.086-2.634 2.763-7.026 2.868-9.789.235-2.77-2.641-2.876-7.019-.234-9.79l16.288-17.087c4.758-4.992 4.568-12.924-.424-17.684l-18.702-17.828c1.694-2.592 3.714-4.958 6.041-7.07zm-20.522 13.99 21.03 20.048-9.309 9.764-21.029-20.047zm-10.767 29.098 13.055 12.445c-6.854 15.37 5.579 32.498 22.394 30.694l-61.496 26.441c2.816-7.523 23.479-62.721 26.047-69.58zm-88.134 64.207c0-11.537 9.387-20.923 20.924-20.923h34.989c-10.857 29.002-10.381 27.587-10.652 28.711h-45.261zm-45.068 98.782c0 11.911-9.339 21.872-21.315 22.532-12.855.708-23.823-9.545-23.823-22.532v-40.986c0-3.267 2.658-5.925 5.926-5.925h39.213v46.911zm60.138 0c0 12.914-10.919 23.363-24.038 22.515-11.816-.764-21.1-10.633-21.1-22.515v-46.911h45.138zm60.137 0c0 12.444-10.125 22.568-22.569 22.568s-22.568-10.124-22.568-22.568v-46.911h45.138v46.911zm60.138 0c0 12.444-10.125 22.568-22.569 22.568s-22.568-10.124-22.568-22.568v-46.911h45.138v46.911zm60.138 0c0 12.442-10.123 22.568-22.569 22.568-12.445 0-22.569-10.125-22.569-22.568v-46.911h45.138zm60.138 0c0 12.444-10.124 22.568-22.57 22.568-12.445 0-22.569-10.125-22.569-22.568v-46.911h45.139zm-339.902-61.911h-1.104c-1.393 0-2.525-1.133-2.525-2.526v-9.032c0-1.393 1.133-2.526 2.525-2.526h396.323c1.393 0 2.525 1.133 2.525 2.526v9.032c0 1.393-1.133 2.526-2.525 2.526h-1.104c-7.711 0-377.55 0-394.115 0zm354.902 61.911v-46.911h39.212c3.268 0 5.926 2.658 5.926 5.925v40.986c0 12.494-10.192 22.568-22.569 22.568-12.445.001-22.569-10.123-22.569-22.568z"/></svg>