<?xml version="1.0" encoding="utf-8"?>
<!-- Generator: Adobe Illustrator 16.0.0, SVG Export Plug-In . SVG Version: 6.00 Build 0)  -->
<!DOCTYPE svg PUBLIC "-//W3C//DTD SVG 1.1//EN" "http://www.w3.org/Graphics/SVG/1.1/DTD/svg11.dtd">
<svg version="1.1" id="Layer_1" xmlns="http://www.w3.org/2000/svg" xmlns:xlink="http://www.w3.org/1999/xlink" x="0px" y="0px"
	 width="91px" height="91px" viewBox="0 0 91 91" enable-background="new 0 0 91 91" xml:space="preserve">
<g>
	<g>
		<g>
			<path fill="#DABE92" d="M64.695,39.559c0,0-17.07,48.392-19.166,49.135c-2.097,0.74-20.215-43.479-20.368-45.091"/>
			<path fill="#434B56" d="M45.478,91c-0.489,0-0.982-0.145-1.424-0.426c-0.887-0.566-2.537-1.618-11.995-23.671
				c-1.783-4.155-9.021-21.325-9.187-23.083c-0.121-1.264,0.808-2.386,2.071-2.507c1.206-0.113,2.279,0.721,2.483,1.893
				c0.83,3.111,13.068,32.629,17.843,41.378c3.222-7.09,10.761-27.377,17.257-45.792c0.424-1.198,1.736-1.824,2.935-1.402
				c1.196,0.422,1.826,1.735,1.402,2.933c-0.042,0.121-4.325,12.256-8.809,24.325c-9.435,25.39-10.409,25.734-11.761,26.212
				C46.03,90.954,45.755,91,45.478,91z"/>
		</g>
		<g>
			<path fill="#F17897" d="M22.159,30.243c-5.218,2.119-8.205,12.154,1.176,13.974c9.381,1.816,18.35-2.288,20.883-4.153
				c2.531-1.868,13.243,2.533,21.192,0.695c7.951-1.84,10.267-6.932,8.706-11.3c-1.68-4.715-8.14-5.547-10.722-4.216
				c1-6.599,1.228-14.023-6.689-19.41c-7.67-5.222-20.414-4.054-27.599,0.275C21.278,10.826,18.177,20.325,22.159,30.243z"/>
			<path fill="#434B56" d="M28.173,46.969L28.173,46.969c-1.802,0-3.576-0.166-5.273-0.495c-4.634-0.899-7.516-3.707-7.906-7.703
				c-0.351-3.608,1.476-7.431,4.351-9.558c-3.222-10.062,0.087-19.959,8.573-25.075c4.23-2.547,10.187-4.068,15.934-4.068
				c3.866,0,9.457,0.669,14.146,3.862c7.498,5.101,8.599,11.949,8.056,18.441c3.92-0.065,8.648,1.877,10.229,6.313
				c0.953,2.664,0.749,5.459-0.568,7.874c-1.191,2.181-3.857,5.068-9.786,6.44c-1.508,0.348-3.146,0.517-5.007,0.517
				c-3.273,0-6.549-0.529-9.438-0.996c-2-0.325-3.887-0.63-5.137-0.63c-0.514,0-0.753,0.052-0.834,0.076
				C42.707,43.997,35.847,46.969,28.173,46.969z M43.852,4.668c-4.947,0-10.017,1.275-13.56,3.408
				c-7.12,4.292-9.474,12.657-6,21.309c0.473,1.176-0.095,2.511-1.268,2.988c-2.03,0.824-3.675,3.66-3.452,5.949
				c0.186,1.907,1.6,3.131,4.2,3.636c1.41,0.273,2.89,0.41,4.4,0.41c6.828,0,12.839-2.8,14.681-4.157
				c0.852-0.628,1.96-0.921,3.492-0.921c1.618,0,3.59,0.319,5.872,0.689c2.719,0.44,5.798,0.939,8.703,0.939
				c1.509,0,2.807-0.131,3.971-0.4c3.329-0.77,5.739-2.25,6.787-4.165c0.871-1.596,0.629-3.123,0.272-4.123
				c-0.919-2.574-4.016-3.262-5.701-3.262c-0.877,0-1.507,0.165-1.804,0.317c-0.767,0.394-1.691,0.327-2.395-0.176
				c-0.701-0.505-1.062-1.358-0.931-2.214c1.127-7.428,0.566-12.892-5.709-17.162C52.507,5.758,48.403,4.668,43.852,4.668z"/>
		</g>
		<path fill="#B07072" d="M53.796,35.001c-0.759,0-1.497-0.293-2.038-0.865c-0.233-0.246-0.4-0.529-0.505-0.828
			c-0.162-0.281-0.268-0.604-0.297-0.949c-0.117-1.38,0.813-2.647,2.216-3.014c1.402-0.366,2.836,0.285,3.408,1.551
			c0.57,1.27,0.109,2.776-1.095,3.584C54.962,34.83,54.374,35.001,53.796,35.001z"/>
		<path fill="#B07072" d="M33.416,29.126c-0.756,0-1.493-0.291-2.036-0.859c-0.236-0.25-0.408-0.537-0.511-0.842
			c-0.16-0.283-0.263-0.602-0.293-0.947c-0.115-1.382,0.822-2.647,2.224-3.01c1.404-0.358,2.832,0.293,3.4,1.557
			c0.57,1.263,0.111,2.768-1.091,3.578C34.586,28.954,33.996,29.126,33.416,29.126z"/>
		<path fill="#B07072" d="M44.093,21.791c-0.758,0-1.497-0.293-2.038-0.864c-0.236-0.248-0.404-0.535-0.507-0.837
			c-0.161-0.279-0.264-0.598-0.293-0.941c-0.117-1.382,0.813-2.649,2.216-3.014c1.406-0.36,2.836,0.289,3.406,1.553
			c0.57,1.27,0.108,2.776-1.097,3.584C45.26,21.621,44.67,21.791,44.093,21.791z"/>
		<path fill="#B07072" d="M64.693,35.542c-1.174,0-2.174-0.896-2.287-2.085c-0.006-0.073-0.01-0.146-0.01-0.218
			c0-1.174,0.893-2.176,2.085-2.288l0.333-0.031c1.262-0.115,2.387,0.81,2.505,2.075c0.006,0.073,0.01,0.146,0.01,0.218
			c0,1.172-0.893,2.174-2.085,2.287l-0.333,0.03C64.838,35.539,64.765,35.542,64.693,35.542z"/>
		<path fill="#B07072" d="M31.817,19.888c-1.168,0-2.168-0.887-2.285-2.075c-0.008-0.076-0.012-0.153-0.012-0.228
			c0-1.168,0.887-2.168,2.076-2.285l0.331-0.032c1.259-0.131,2.39,0.798,2.515,2.063c0.006,0.075,0.01,0.152,0.01,0.228
			c0,1.168-0.887,2.168-2.073,2.286l-0.333,0.032C31.968,19.884,31.893,19.888,31.817,19.888z"/>
		<path fill="#B07072" d="M50.233,14.165c-1.175,0-2.175-0.895-2.288-2.085c-0.006-0.073-0.01-0.145-0.01-0.218
			c0-1.172,0.894-2.174,2.084-2.287l0.332-0.032c1.277-0.117,2.387,0.812,2.506,2.075c0.006,0.073,0.01,0.145,0.01,0.216
			c0,1.174-0.894,2.176-2.086,2.29l-0.33,0.029C50.378,14.161,50.305,14.165,50.233,14.165z"/>
		<path fill="#B07072" d="M53.607,23.054c-1.174,0-2.176-0.893-2.287-2.085c-0.008-0.073-0.01-0.145-0.01-0.218
			c-0.002-1.172,0.891-2.174,2.083-2.287l0.333-0.032c1.268-0.113,2.386,0.812,2.503,2.075c0.008,0.073,0.012,0.145,0.012,0.216
			c0,1.175-0.893,2.177-2.085,2.29l-0.331,0.03C53.752,23.05,53.679,23.054,53.607,23.054z"/>
		<path fill="#B07072" d="M38.901,12.713c-1.174,0-2.174-0.893-2.287-2.085c-0.006-0.071-0.01-0.145-0.01-0.216
			c0-1.174,0.893-2.176,2.083-2.287l0.333-0.032c1.269-0.119,2.386,0.81,2.505,2.073c0.006,0.073,0.01,0.146,0.01,0.218
			c0,1.172-0.893,2.177-2.085,2.288l-0.331,0.032C39.045,12.709,38.972,12.713,38.901,12.713z"/>
		<path fill="#B07072" d="M43.345,32.877c-1.174,0-2.176-0.896-2.287-2.085c-0.008-0.073-0.01-0.146-0.01-0.218
			c0-1.174,0.893-2.176,2.085-2.288l0.333-0.032c1.263-0.121,2.386,0.81,2.503,2.076c0.008,0.073,0.01,0.146,0.01,0.218
			c0,1.172-0.894,2.174-2.085,2.287l-0.333,0.03C43.487,32.873,43.416,32.877,43.345,32.877z"/>
		<path fill="#B07072" d="M35.079,37.091c-1.174,0-2.177-0.893-2.288-2.085c-0.008-0.071-0.01-0.145-0.01-0.216
			c-0.002-1.174,0.893-2.176,2.083-2.287l0.333-0.032c1.273-0.119,2.386,0.81,2.505,2.074c0.006,0.073,0.01,0.146,0.01,0.218
			c0,1.172-0.893,2.176-2.085,2.287l-0.331,0.032C35.224,37.087,35.15,37.091,35.079,37.091z"/>
		<path fill="#B07072" d="M25.159,39.119c-1.174,0-2.176-0.893-2.287-2.085c-0.008-0.071-0.01-0.145-0.01-0.216
			c-0.002-1.174,0.893-2.177,2.083-2.288l0.333-0.032c1.269-0.121,2.386,0.81,2.505,2.074c0.006,0.073,0.01,0.146,0.01,0.218
			c0,1.172-0.894,2.176-2.085,2.287l-0.331,0.032C25.304,39.115,25.23,39.119,25.159,39.119z"/>
		<path fill="#434B56" d="M39.045,73.813c-0.948,0-1.855-0.108-2.664-0.329c-1.226-0.33-1.951-1.594-1.618-2.819
			c0.333-1.227,1.596-1.955,2.822-1.618c2.179,0.59,5.561-0.339,6.698-1.84c0.766-1.012,2.21-1.212,3.222-0.445
			c1.013,0.767,1.212,2.208,0.446,3.222C46.021,72.531,42.29,73.813,39.045,73.813z"/>
		<path fill="#434B56" d="M34.517,64.81c-0.133,0-0.266,0-0.396-0.004c-1.27-0.023-2.279-1.073-2.256-2.343
			c0.024-1.27,1.083-2.266,2.343-2.255c3.874,0.066,7.833-1.151,8.969-2.062c0.992-0.795,2.439-0.634,3.233,0.358
			c0.792,0.992,0.632,2.439-0.359,3.231C43.862,63.489,38.863,64.81,34.517,64.81z"/>
		<path fill="#434B56" d="M33.336,55.392c-1.22,0-2.38-0.148-3.381-0.493c-1.2-0.414-1.837-1.723-1.424-2.923
			c0.414-1.202,1.723-1.838,2.923-1.426c2.828,0.979,8.656-0.973,9.646-1.818c0.951-0.813,2.408-0.744,3.242,0.188
			c0.834,0.935,0.8,2.332-0.117,3.186C42.636,53.585,37.61,55.392,33.336,55.392z"/>
	</g>
</g>
</svg>
