<?xml version="1.0" encoding="utf-8"?>
<!-- Generator: Adobe Illustrator 16.0.0, SVG Export Plug-In . SVG Version: 6.00 Build 0)  -->
<!DOCTYPE svg PUBLIC "-//W3C//DTD SVG 1.1//EN" "http://www.w3.org/Graphics/SVG/1.1/DTD/svg11.dtd">
<svg version="1.1" id="Layer_1" xmlns="http://www.w3.org/2000/svg" xmlns:xlink="http://www.w3.org/1999/xlink" x="0px" y="0px"
	 width="91px" height="91px" viewBox="0 0 91 91" enable-background="new 0 0 91 91" xml:space="preserve">
<g>
	<g>
		<g>
			<path fill="none" d="M38.184,41.686c-1.696,0.229-3.433,0.685-5.105,1.16c0.35,0.039,0.706,0.075,1.073,0.075
				C35.722,42.92,37.074,42.492,38.184,41.686z"/>
			<path fill="#F9BA8F" d="M38.184,41.686c-1.11,0.806-2.461,1.235-4.033,1.235c-0.367,0-0.723-0.036-1.073-0.075
				c-10.461,7.041-7.513,13.371-6.806,14.576c2.586,4.42,7.09,5.232,11.571,5.451c4.932,0.238,12.076-0.865,15.582-3.412
				c0.572-0.41,1.075-0.836,1.565-1.248c1.186-0.994,2.304-1.934,4.027-2.551c0.888-0.316,1.782-0.523,2.647-0.719
				c1.27-0.293,2.47-0.568,3.573-1.168c3.203-1.738,4.242-4.699,2.705-7.733c-2.555-5.044-9.822-4.979-12.84-4.721
				c-2.422,0.209-5.24,1.021-7.969,2.206c0.589,0.594,0.918,1.26,0.975,1.982c0.12,1.466-0.888,2.774-1.778,3.745
				c-1.411,1.553-5.083,5.1-8.786,4.482c-0.523-0.086-2.111-0.352-2.513-1.619c-0.427-1.338,0.81-2.799,2.077-4.055
				c2.006-1.984,4.746-3.81,7.679-5.263C42.878,41.536,40.582,41.361,38.184,41.686z"/>
			<path fill="#F3DBD2" d="M87.796,46.028c-0.327-1.434-1.396-2.706-3.085-3.69c-1.258-0.731-2.672-1.098-4.168-1.486
				c-2.006-0.52-4.078-1.058-5.832-2.535c-4.117-3.463-8.904-3.648-12.751-3.796l-0.808-0.037c-1.072,1.558-2.858,2.392-5.25,2.392
				c-1.736,0-3.396-0.429-4.331-0.725c-1.574,3.483-4.333,4.242-6.432,4.242c-2.008,0-3.877-0.677-4.896-1.127
				c-0.537,1.02-1.235,1.821-2.06,2.419c2.398-0.325,4.694-0.149,6.604,1.114c3.386-1.677,7.036-2.856,10.175-3.127
				c3.338-0.286,11.445-0.323,14.459,5.624c1.951,3.856,0.621,7.759-3.395,9.933c-1.302,0.707-2.669,1.021-3.992,1.324
				c-0.855,0.197-1.663,0.381-2.46,0.666c-1.441,0.518-2.404,1.326-3.521,2.262c-0.52,0.438-1.054,0.885-1.657,1.322
				c-3.885,2.814-10.771,3.754-15.259,3.754c-0.489,0-0.951-0.012-1.375-0.031c-4.708-0.232-9.926-1.156-12.917-6.268
				c-0.806-1.375-4.09-8.348,6.038-15.874c-0.425-0.13-0.817-0.265-1.119-0.388c-1.354,3.079-3.645,3.755-5.396,3.755
				c-2.155,0-4.25-1.011-5.329-1.629c-0.569,0.576-1.766,1.464-4.327,2.895c-0.605,0.337-1.256,0.508-1.938,0.508
				c-0.119,0-0.238-0.031-0.358-0.04c-2.651,2.631-3.397,5.852-2.763,8.289c0.034,0.063,0.056,0.123,0.071,0.189
				c0.227,0.758,0.571,1.445,1.048,1.994c1.128,1.299,2.513,2.467,3.852,3.6c1.286,1.086,2.617,2.209,3.755,3.473
				c1.929,2.139,3.529,2.006,5.569,1.85c1.398-0.113,2.986-0.236,4.759,0.439c2.179,0.83,3.884,2.395,5.534,3.91
				c1.837,1.688,3.569,3.281,5.75,3.662c1.981,0.344,3.413-0.459,4.935-1.311c1.336-0.748,2.717-1.525,4.513-1.566
				c2.292-0.039,4.423,0.508,6.472,1.055c2.663,0.715,5.173,1.381,8.085,0.785c2.699-0.555,4.475-1.428,6.551-3.225
				c1.477-1.283,3-2.08,4.937-2.584l1.147-0.291c3.902-0.975,7.935-1.98,8.325-6.004c0.109-1.107-0.099-2.063-0.318-3.076
				c-0.18-0.842-0.369-1.711-0.388-2.703c-0.037-2.064,0.832-3.242,1.753-4.49c0.218-0.295,0.446-0.605,0.676-0.943
				C87.729,48.98,88.116,47.423,87.796,46.028z"/>
		</g>
		<path fill="#B1E1F8" d="M75.094,69.645c-1.675,0.436-2.992,1.127-4.27,2.234c-2.284,1.977-4.332,2.984-7.3,3.596
			c-3.292,0.676-6.117-0.078-8.846-0.807c-2.022-0.541-3.923-1.07-6.005-1.002c-1.384,0.035-2.53,0.678-3.745,1.357
			c-1.354,0.758-2.857,1.604-4.805,1.604c-0.389,0-0.794-0.035-1.221-0.107c-2.658-0.467-4.654-2.299-6.584-4.072
			c-1.534-1.412-3.121-2.867-5.003-3.582c-1.427-0.545-2.7-0.445-4.042-0.338c-2.19,0.178-4.454,0.35-6.926-2.391
			c-1.064-1.18-2.292-2.219-3.594-3.316c-1.387-1.172-2.821-2.385-4.035-3.777c-0.292-0.338-0.544-0.713-0.767-1.117
			c-1.05,2.379-0.143,6,1.723,8.148c1.021,1.176,2.323,1.729,3.701,2.316c1.45,0.617,2.95,1.256,4.201,2.641
			c1.924,2.139,3.528,2.014,5.567,1.852c1.401-0.111,2.988-0.236,4.761,0.439c2.178,0.828,3.884,2.396,5.536,3.912
			c1.834,1.686,3.567,3.279,5.748,3.66c1.988,0.346,3.417-0.459,4.932-1.309c1.338-0.75,2.719-1.527,4.513-1.572
			c2.257-0.027,4.419,0.512,6.469,1.059c2.664,0.711,5.18,1.383,8.091,0.785c2.702-0.555,4.475-1.43,6.549-3.227
			c1.478-1.281,3-2.08,4.938-2.584l1.147-0.289c3.901-0.977,7.935-1.98,8.324-6.002c0.073-0.75,0.099-1.443,0.099-2.123
			c-1.907,2.193-5.203,3.021-8.022,3.725L75.094,69.645z"/>
		<path fill="#B1E1F8" d="M11.969,45.868c0.402,0,0.773-0.096,1.132-0.296c3.06-1.708,3.846-2.473,4.035-2.702
			c0.021-0.164,0.092-0.323,0.211-0.454c0.281-0.304,0.746-0.354,1.078-0.118c0.027,0.017,2.625,1.798,5.137,1.798
			c1.931,0,3.254-1.065,4.056-3.227c-1.363-1.433-5.192-4.902-12.83-8.153c-0.421-0.179-0.616-0.664-0.437-1.084
			c0.179-0.419,0.661-0.618,1.086-0.437c9.405,4.005,13.246,8.301,13.972,9.191c0.773,0.329,2.304,0.877,3.935,0.877
			c2.243,0,3.8-1.015,4.769-3.075c-1.415-1.386-8.088-7.636-16.955-11.411c-0.421-0.178-0.615-0.663-0.437-1.084
			c0.179-0.421,0.662-0.617,1.086-0.437c10.283,4.376,17.486,11.759,17.786,12.07c0.075,0.079,0.13,0.171,0.169,0.266
			c0.713,0.342,2.59,1.146,4.566,1.146c2.383,0,4.018-1.148,4.998-3.473c-1.26-1.383-6.384-6.527-15.959-10.062
			c-0.429-0.157-0.648-0.633-0.488-1.061c0.158-0.429,0.636-0.65,1.062-0.489c10.653,3.935,15.911,9.669,16.841,10.755
			c0.561,0.202,2.41,0.812,4.313,0.812c2.671,0,4.173-1.177,4.609-3.563c-1.527-1.389-8.38-7.356-16.002-9.821
			c-0.435-0.14-0.673-0.607-0.532-1.042c0.141-0.433,0.602-0.671,1.042-0.531c8.588,2.776,15.959,9.555,16.861,10.407
			c0.431,0.206,2.484,1.136,4.509,1.136c2.099,0,3.393-1.003,3.972-3.04c-0.775-1.317-4.54-7.129-11.435-8.26
			c-0.452-0.073-0.756-0.498-0.683-0.95c0.073-0.452,0.51-0.758,0.95-0.681c7.649,1.253,11.68,7.471,12.592,9.045
			c0.31,0.052,0.802,0.113,1.411,0.113c2.712,0,4.388-1.159,4.986-3.445c0.093-0.356,0.408-0.606,0.773-0.62
			c2.088-0.067,4.607-0.619,4.883-1.3c0.069-0.173-0.138-0.542-0.528-0.944c-2.239-2.312-17.065-9.583-35.12-9.583
			c-6.033,0-11.835,0.825-17.24,2.452C8.61,21.083,3.817,29.788,2.862,32.304c-0.628,1.659-0.65,3.165-0.054,4.134
			C4.226,39.094,8.581,45.868,11.969,45.868z"/>
		<path fill="#F9BA8F" d="M37.466,49.238c-1.754,1.738-1.696,2.285-1.666,2.377c0.033,0.105,0.329,0.344,1.21,0.49
			c2.949,0.488,6.333-2.908,7.292-3.967c0.962-1.049,1.402-1.866,1.352-2.495c-0.033-0.419-0.292-0.815-0.794-1.214
			c-0.058-0.046-0.108-0.096-0.15-0.153C41.924,45.657,39.33,47.394,37.466,49.238z"/>
		<g>
			<path fill="#434B56" d="M40.916,78.033c-0.467,0-0.959-0.039-1.475-0.131c-3.065-0.533-5.312-2.6-7.294-4.42
				c-1.504-1.381-2.923-2.684-4.554-3.305c-1.129-0.43-2.198-0.346-3.431-0.25c-2.294,0.184-5.146,0.408-8.083-2.852
				c-1-1.107-2.194-2.115-3.458-3.182c-1.427-1.207-2.904-2.451-4.187-3.932c-3.338-3.84-2.232-10.314,0.986-13.539
				c0.871-0.871,2.287-0.873,3.158,0c0.873,0.871,0.875,2.285,0.002,3.158c-1.709,1.711-2.417,5.563-0.775,7.453
				c1.058,1.217,2.34,2.299,3.696,3.445c1.323,1.117,2.69,2.273,3.895,3.605c1.461,1.623,2.444,1.545,4.413,1.391
				c1.473-0.115,3.304-0.26,5.371,0.527c2.431,0.924,4.319,2.66,5.987,4.191c1.752,1.607,3.265,2.998,5.04,3.309
				c1.417,0.248,2.398-0.25,4.004-1.148c1.417-0.793,3.023-1.695,5.165-1.748c2.5-0.066,4.726,0.531,6.871,1.104
				c2.498,0.668,4.857,1.299,7.44,0.766c2.435-0.502,4.036-1.291,5.911-2.912c1.625-1.41,3.375-2.326,5.5-2.881
				c0.381-0.1,0.769-0.197,1.163-0.295c4.34-1.084,6.994-1.945,7.27-4.773c0.086-0.891-0.091-1.703-0.295-2.646
				c-0.186-0.861-0.398-1.84-0.421-2.969c-0.044-2.545,1.058-4.037,2.029-5.354c0.207-0.281,0.425-0.574,0.64-0.896
				c0.577-0.852,1.204-2.14,0.913-3.409c-0.301-1.314-1.484-2.242-2.422-2.788c-1.09-0.635-2.412-0.977-3.814-1.34
				c-2.056-0.533-4.386-1.138-6.384-2.819c-3.748-3.153-8.079-3.321-11.901-3.469c-0.445-0.017-0.879-0.032-1.3-0.054
				c-1.232-0.061-2.181-1.109-2.121-2.342c0.062-1.23,1.115-2.185,2.342-2.119c0.406,0.021,0.823,0.037,1.252,0.054
				c4.086,0.158,9.685,0.373,14.604,4.513c1.223,1.029,2.804,1.438,4.631,1.913c1.632,0.423,3.318,0.862,4.938,1.802
				c2.44,1.421,4.008,3.375,4.53,5.652c0.514,2.24-0.028,4.629-1.564,6.904c-0.254,0.377-0.506,0.721-0.748,1.051
				c-0.873,1.182-1.174,1.641-1.158,2.617c0.016,0.691,0.158,1.348,0.321,2.109c0.249,1.143,0.526,2.436,0.375,4.021
				c-0.602,6.172-6.4,7.617-10.634,8.674c-0.379,0.096-0.752,0.188-1.116,0.283c-1.476,0.387-2.584,0.965-3.703,1.936
				c-2.456,2.123-4.754,3.256-7.936,3.912c-3.613,0.742-6.739-0.092-9.494-0.826c-1.923-0.514-3.719-0.994-5.608-0.953
				c-1.034,0.025-1.941,0.535-3.09,1.18C44.953,77.059,43.216,78.033,40.916,78.033z"/>
			<path fill="#434B56" d="M40.918,84.037c-0.469,0-0.961-0.039-1.479-0.131c-3.063-0.533-5.31-2.598-7.292-4.42
				c-1.504-1.381-2.923-2.684-4.554-3.305c-1.133-0.43-2.198-0.346-3.433-0.25c-2.292,0.184-5.144,0.408-8.081-2.852
				c-0.796-0.883-1.877-1.342-3.126-1.875c-1.56-0.666-3.327-1.416-4.812-3.123c-3.145-3.621-4.252-10.057-0.813-13.5
				c0.873-0.873,2.284-0.875,3.159-0.004c0.871,0.871,0.873,2.285,0.002,3.156c-1.56,1.564-0.742,5.387,1.023,7.42
				c0.808,0.928,1.912,1.396,3.19,1.941c1.517,0.646,3.236,1.379,4.694,2.994c1.463,1.625,2.45,1.545,4.411,1.391
				c1.473-0.117,3.304-0.262,5.373,0.529c2.431,0.922,4.319,2.658,5.987,4.188c1.752,1.611,3.265,3.002,5.04,3.311
				c1.421,0.248,2.398-0.248,4.002-1.148c1.419-0.797,3.025-1.697,5.167-1.748c2.516-0.068,4.724,0.529,6.867,1.104
				c2.498,0.668,4.858,1.297,7.442,0.764c2.439-0.5,4.04-1.289,5.911-2.91c1.631-1.41,3.379-2.326,5.504-2.881
				c0.379-0.1,0.769-0.197,1.163-0.295c4.338-1.084,6.992-1.943,7.268-4.773c0.14-1.451,0.094-2.664,0.042-4.072
				c-0.021-0.541-0.042-1.094-0.052-1.674c-0.023-1.234,0.957-2.252,2.19-2.275c1.229-0.033,2.252,0.961,2.274,2.191
				c0.01,0.553,0.029,1.076,0.048,1.592c0.056,1.434,0.111,2.92-0.058,4.672c-0.602,6.17-6.398,7.615-10.632,8.674
				c-0.379,0.094-0.754,0.188-1.118,0.283c-1.475,0.385-2.584,0.963-3.705,1.934c-2.45,2.123-4.748,3.256-7.936,3.91
				c-3.616,0.746-6.741-0.09-9.496-0.826c-1.923-0.514-3.734-1.01-5.606-0.953c-1.032,0.025-1.939,0.533-3.088,1.18
				C44.955,83.064,43.216,84.037,40.918,84.037z"/>
			<path fill="#434B56" d="M39.076,65.961c-0.519,0-0.992-0.012-1.411-0.031c-4.787-0.236-10.711-1.24-14.059-6.963
				c-2.645-4.506-2.139-12.146,7.994-18.84c1.029-0.679,2.413-0.396,3.094,0.63c0.68,1.031,0.396,2.416-0.632,3.094
				c-9.702,6.411-7.202,11.836-6.604,12.86c1.817,3.105,4.838,4.482,10.428,4.758c4.694,0.229,11.439-0.789,14.688-3.143
				c0.523-0.381,0.991-0.773,1.487-1.189c1.227-1.031,2.495-2.096,4.455-2.799c0.967-0.346,1.901-0.559,2.806-0.766
				c1.175-0.27,2.282-0.525,3.218-1.031c1.493-0.809,3.751-2.646,2.122-5.863c-2.169-4.282-8.737-4.192-11.463-3.957
				c-1.839,0.16-3.914,0.684-5.996,1.463c0.175,0.446,0.254,0.861,0.282,1.213c0.164,2.027-1.144,3.714-2.141,4.806
				c-1.949,2.139-5.864,5.621-10.057,4.92c-1.965-0.326-3.184-1.195-3.625-2.58c-0.743-2.336,1.4-4.457,2.429-5.479
				c4.526-4.48,12.575-8.259,18.72-8.792c7.675-0.673,13.44,1.662,15.835,6.388c2.294,4.529,0.695,9.273-3.978,11.805
				c-1.47,0.799-2.999,1.15-4.35,1.461c-0.813,0.186-1.581,0.361-2.301,0.619c-1.203,0.43-2.035,1.129-3.088,2.014
				c-0.534,0.447-1.086,0.91-1.738,1.383C50.768,65.15,43.379,65.961,39.076,65.961z M44.826,46.197
				c-2.148,1.183-4.113,2.578-5.592,4.039c-0.179,0.18-0.334,0.34-0.467,0.482c1.462-0.203,3.437-1.504,5.277-3.525
				C44.445,46.753,44.685,46.428,44.826,46.197z"/>
			<path fill="#434B56" d="M12.748,48.93c0,0,0,0-0.002,0c-5.628,0-10.757-8.998-11.805-10.956c-1.077-1.802-1.133-4.198-0.16-6.759
				c1.386-3.646,7.011-12.848,29.258-19.547c5.694-1.713,11.792-2.583,18.124-2.583c18.779,0,34.511,7.617,37.32,10.513
				c1.764,1.821,1.487,3.426,1.166,4.221c-0.858,2.121-3.763,2.863-6.104,3.111c-1.294,2.671-3.903,4.169-7.375,4.169
				c-0.155,0-0.305-0.004-0.449-0.009c-1.204,2.427-3.438,3.778-6.355,3.778c-1.27,0-2.5-0.25-3.514-0.55
				c-1.198,2.55-3.63,3.963-6.977,3.963c-1.326,0-2.609-0.227-3.616-0.473c-1.563,2.59-4.04,3.99-7.148,3.99
				c-1.637,0-3.166-0.387-4.319-0.792c-1.546,2.156-3.852,3.319-6.667,3.319c-1.388,0-2.684-0.28-3.709-0.595
				c-1.796,2.931-4.469,3.426-6.073,3.426c-1.967,0-3.838-0.697-5.136-1.336c-0.831,0.65-2.048,1.427-3.834,2.424
				C14.554,48.699,13.671,48.93,12.748,48.93z M48.163,13.552c-5.895,0-11.561,0.804-16.835,2.392
				C14.706,20.95,6.806,27.935,4.956,32.804c-0.55,1.448-0.45,2.446-0.173,2.896c0.025,0.038,0.048,0.079,0.07,0.119
				c1.934,3.625,5.755,8.644,7.896,8.646l0,0c0.159,0,0.298-0.038,0.446-0.122c2.244-1.251,3.15-1.94,3.479-2.225
				c0.098-0.237,0.241-0.46,0.421-0.656c0.758-0.819,2.002-0.954,2.917-0.317c0.621,0.427,2.623,1.546,4.331,1.546
				c0.975,0,2.073-0.3,2.821-2.523c0.21-0.619,0.681-1.115,1.287-1.359c0.61-0.242,1.292-0.206,1.872,0.098
				c0.009,0.006,1.867,0.952,3.803,0.952c1.785,0,2.906-0.787,3.636-2.554c0.245-0.588,0.727-1.044,1.329-1.253
				c0.598-0.211,1.262-0.154,1.82,0.155c0.013,0.008,2.088,1.125,4.202,1.125c1.923,0,3.112-0.919,3.863-2.983
				c0.208-0.567,0.635-1.029,1.187-1.275c0.554-0.246,1.181-0.26,1.742-0.035c0.016,0.006,1.995,0.777,3.973,0.777
				c2.447,0,3.087-1.092,3.292-2.733c0.091-0.723,0.527-1.356,1.173-1.698c0.644-0.338,1.414-0.344,2.064-0.01
				c0.013,0.006,2.049,1.027,3.961,1.027c1.55,0,2.304-0.631,2.688-2.252c0.136-0.577,0.498-1.077,1.004-1.387
				c0.505-0.312,1.113-0.407,1.691-0.269c-0.001,0-0.001,0-0.001,0c0.001,0,0.612,0.137,1.422,0.137c3.001,0,3.454-1.74,3.625-2.394
				c0.251-0.958,1.101-1.639,2.089-1.669c0.94-0.033,2-0.183,2.785-0.371C78.161,19.637,64.324,13.552,48.163,13.552z
				 M16.644,43.765c0.079,0.212,0.196,0.423,0.363,0.629C16.85,44.199,16.729,43.988,16.644,43.765z"/>
			<path fill="#434B56" d="M71.229,30.901c-0.808,0-1.589-0.44-1.985-1.205c-0.06-0.112-3.578-6.652-10.572-7.798
				c-1.218-0.2-2.04-1.348-1.842-2.565c0.2-1.217,1.35-2.039,2.565-1.842c9.276,1.521,13.636,9.804,13.816,10.155
				c0.565,1.096,0.133,2.442-0.964,3.008C71.92,30.821,71.573,30.901,71.229,30.901z"/>
			<path fill="#434B56" d="M61.38,33.594c-0.553,0-1.11-0.206-1.543-0.619c-0.073-0.072-7.502-7.12-15.786-9.8
				c-1.173-0.379-1.817-1.638-1.439-2.812c0.381-1.173,1.639-1.815,2.813-1.436c9.279,3.001,17.17,10.505,17.503,10.823
				c0.889,0.854,0.917,2.267,0.065,3.155C62.556,33.363,61.97,33.594,61.38,33.594z"/>
			<path fill="#434B56" d="M51.073,37.346c-0.652,0-1.298-0.285-1.738-0.833c-0.079-0.095-5.031-6.058-15.672-9.988
				c-1.158-0.427-1.75-1.711-1.323-2.867c0.429-1.158,1.713-1.748,2.869-1.321c11.92,4.4,17.379,11.098,17.606,11.38
				c0.771,0.961,0.615,2.368-0.346,3.138C52.058,37.186,51.563,37.346,51.073,37.346z"/>
			<path fill="#434B56" d="M39.78,40.136c-0.584,0-1.167-0.227-1.606-0.679c-0.069-0.073-7.104-7.261-16.786-11.384
				c-1.135-0.482-1.664-1.794-1.181-2.929c0.484-1.134,1.796-1.662,2.931-1.18c10.542,4.488,17.938,12.069,18.247,12.388
				c0.856,0.886,0.833,2.3-0.054,3.155C40.899,39.928,40.337,40.136,39.78,40.136z"/>
			<path fill="#434B56" d="M29.665,43.288c-0.678,0-1.347-0.306-1.785-0.889c-0.075-0.094-3.484-4.396-12.863-8.388
				c-1.134-0.483-1.664-1.794-1.181-2.931c0.485-1.135,1.796-1.659,2.931-1.179c10.68,4.547,14.528,9.607,14.688,9.82
				c0.736,0.989,0.531,2.389-0.459,3.125C30.596,43.146,30.128,43.288,29.665,43.288z"/>
		</g>
	</g>
</g>
</svg>
