<?xml version="1.0" encoding="utf-8"?>
<!-- Generator: Adobe Illustrator 16.0.0, SVG Export Plug-In . SVG Version: 6.00 Build 0)  -->
<!DOCTYPE svg PUBLIC "-//W3C//DTD SVG 1.1//EN" "http://www.w3.org/Graphics/SVG/1.1/DTD/svg11.dtd">
<svg version="1.1" id="Layer_1" xmlns="http://www.w3.org/2000/svg" xmlns:xlink="http://www.w3.org/1999/xlink" x="0px" y="0px"
	 width="91px" height="91px" viewBox="0 0 91 91" enable-background="new 0 0 91 91" xml:space="preserve">
<g>
	<g>
		<g>
			<path fill="#DABE92" d="M69.861,27.892c1.328,1.61,4.459,3.417,5.251,4.72L86.89,18.709l-4.408-5.331L69.861,27.892z"/>
			<path fill="#FAE58F" d="M70.796,26.829L85.252,8.596L81.087,4.96L65.946,22.438C67.814,23.805,69.424,25.319,70.796,26.829z"/>
			<path fill="#FAE58F" d="M64.521,21.463L75.48,8.812l-5.33-3.162L59.183,18.809C61.134,19.516,62.912,20.425,64.521,21.463z"/>
			<path fill="#DABE92" d="M64.165,10.147l-4.782-2.804l-8.476,9.919c2.343,0.058,4.513,0.408,6.514,0.977L64.165,10.147z"/>
			<path fill="#8CCFB6" d="M50.204,18.958c-1.408,0-2.863,0.114-4.332,0.335L3.621,68.126c4.868,0.682,19.056,3.855,25.634,18.048
				l45.92-49.875C73.811,33.426,66.146,18.958,50.204,18.958z"/>
			<path fill="#6AAA95" d="M3.054,69.781C5.986,80.358,14.59,86.449,28.065,87.422c-0.1-0.082-0.216-0.161-0.254-0.293
				C23.379,72.291,3.925,61.692,3.054,69.781z"/>
		</g>
		<g>
			<path fill="#434B56" d="M28.894,90.15c-0.048,0-0.098-0.002-0.146-0.004C12.976,89.147,3.062,81.783,0.078,68.85
				c-0.166-0.722,0.022-1.48,0.507-2.04l43.53-50.312c0.355-0.411,0.845-0.683,1.382-0.771c1.739-0.282,3.471-0.424,5.145-0.424
				c19.743,0,27.799,18.986,28.133,19.795c0.344,0.835,0.174,1.792-0.438,2.455L30.602,89.401
				C30.16,89.881,29.541,90.15,28.894,90.15z M4.884,68.932c2.73,9.887,10.481,15.434,23.063,16.503l45.922-49.877
				c-2.042-3.995-9.183-15.616-23.228-15.616c-1.164,0-2.367,0.082-3.582,0.244L4.884,68.932z"/>
			<path fill="#434B56" d="M29.033,88.616c-0.9,0-1.755-0.527-2.133-1.406c-4.456-10.393-15.243-14.717-15.353-14.759
				c-1.192-0.468-1.779-1.814-1.314-3.007c0.467-1.19,1.812-1.777,3.006-1.314c0.518,0.204,12.712,5.096,17.923,17.253
				c0.505,1.177-0.04,2.54-1.216,3.043C29.649,88.554,29.337,88.616,29.033,88.616z"/>
			<g>
				<path fill="#FAE58F" d="M51.19,37.01c3.41,3.222,2.281,9.948-2.517,15.018c-4.795,5.067-11.446,6.568-14.853,3.346
					c-3.407-3.222-2.275-9.947,2.517-15.014C41.134,35.286,47.787,33.788,51.19,37.01z"/>
				<path fill="#434B56" d="M38.474,59.392c-2.475,0-4.634-0.808-6.246-2.334c-4.402-4.16-3.338-12.198,2.425-18.292
					c3.418-3.616,7.862-5.773,11.888-5.773c2.474,0,4.632,0.805,6.247,2.331c2.228,2.105,3.117,5.262,2.511,8.885
					c-0.549,3.287-2.304,6.63-4.938,9.413C46.941,57.233,42.497,59.392,38.474,59.392z M46.54,37.631
					c-2.733,0-5.997,1.656-8.518,4.323c-3.841,4.063-5.036,9.437-2.607,11.734c0.745,0.705,1.774,1.063,3.058,1.063
					c2.732,0,5.995-1.654,8.516-4.317c1.979-2.089,3.339-4.638,3.732-6.992c0.2-1.188,0.316-3.384-1.125-4.748
					C48.852,37.989,47.823,37.631,46.54,37.631z"/>
			</g>
			<path fill="#434B56" d="M50.236,19.081c-0.533,0-1.069-0.182-1.507-0.555c-0.975-0.833-1.089-2.297-0.258-3.27L57.87,4.253
				c0.726-0.851,1.958-1.063,2.924-0.503l3.702,2.139c1.108,0.641,1.487,2.062,0.847,3.17c-0.641,1.11-2.06,1.486-3.168,0.847
				l-2.029-1.172l-8.146,9.534C51.542,18.805,50.892,19.081,50.236,19.081z"/>
			<path fill="#434B56" d="M58.481,20.677c-0.525,0-1.051-0.176-1.484-0.538c-0.984-0.821-1.116-2.283-0.298-3.268L68.617,2.575
				c0.757-0.913,2.081-1.104,3.067-0.445l4.561,3.036c1.067,0.709,1.354,2.149,0.646,3.216c-0.709,1.064-2.149,1.356-3.216,0.646
				l-2.827-1.882L60.264,19.842C59.807,20.393,59.145,20.677,58.481,20.677z"/>
			<path fill="#434B56" d="M65.406,24.096c-0.536,0-1.078-0.186-1.518-0.565c-0.967-0.839-1.072-2.303-0.233-3.271L79.688,1.749
				c0.403-0.466,0.978-0.751,1.593-0.795c0.617-0.042,1.223,0.162,1.688,0.567l5.43,4.744c0.942,0.823,1.063,2.245,0.269,3.216
				L78.313,22.139c-0.815,0.991-2.276,1.135-3.267,0.326c-0.99-0.811-1.137-2.273-0.326-3.264l8.936-10.92l-1.985-1.734
				l-14.51,16.75C66.703,23.827,66.056,24.096,65.406,24.096z"/>
			<path fill="#434B56" d="M76.373,35.054c-0.523,0-1.051-0.175-1.484-0.537c-0.984-0.821-1.116-2.283-0.298-3.268l10.835-13.003
				l-2.239-2.167c-0.923-0.889-0.946-2.357-0.056-3.278c0.891-0.923,2.36-0.947,3.279-0.056l3.789,3.665
				c0.874,0.843,0.947,2.217,0.17,3.152L78.155,34.22C77.697,34.771,77.036,35.054,76.373,35.054z"/>
		</g>
	</g>
</g>
</svg>
