<?xml version="1.0" encoding="utf-8"?>
<!-- Generator: Adobe Illustrator 16.0.0, SVG Export Plug-In . SVG Version: 6.00 Build 0)  -->
<!DOCTYPE svg PUBLIC "-//W3C//DTD SVG 1.1//EN" "http://www.w3.org/Graphics/SVG/1.1/DTD/svg11.dtd">
<svg version="1.1" id="Layer_1" xmlns="http://www.w3.org/2000/svg" xmlns:xlink="http://www.w3.org/1999/xlink" x="0px" y="0px"
	 width="91px" height="91px" viewBox="0 0 91 91" enable-background="new 0 0 91 91" xml:space="preserve">
<g>
	<g>
		<path fill="#DABE92" d="M8.06,72.739c2.382,5.438,4.287,12.566,4.843,14.741c4.647-0.735,39.654-10.945,55.306-16.521
			c-0.043-0.231,0-0.479,0.158-0.679c1.844-2.323,4.059-15.328,5.006-21.796C64.986,55.341,18.157,72.058,8.06,72.739z"/>
		<path fill="#FAE58F" d="M72.918,46.661c-2.146-4.448-40.192-31.718-44.35-31.718C26.13,16.358,10.603,51.629,7.202,66.39
			c-0.857,3.73-0.523,4.554-0.468,4.657c0,0,0.004,0,0.008,0c0.037,0,0.237,0.053,0.706,0.053
			C17.439,71.1,68.906,51.819,72.918,46.661z"/>
		<path fill="#F9BA8F" d="M70.32,70.191c2.943-1.097,4.904-1.952,5.34-2.417c1.785-2.566,3.809-16.848,3.898-17.773
			c0.031-0.323,0.27-0.848,1.965-4.313c0.396-0.81,0.875-1.787,1.352-2.775c-2.369,1.839-5.309,3.487-7.684,4.682
			C74.74,50.808,72.607,65.307,70.32,70.191z"/>
		<path fill="#F9BA8F" d="M85.324,36.337c-0.158-0.158-1.213-0.543-2.061-0.852c-1.896-0.695-4.496-1.643-6.732-3.475
			c-1.619-1.322-2.938-3.291-4.1-5.025c-0.857-1.283-1.668-2.493-2.307-2.958c-1.752-1.271-4.316-2.081-6.582-2.794
			c-1.924-0.605-3.588-1.129-4.697-1.871c-1.146-0.764-2.305-2.096-3.426-3.384c-1.074-1.232-2.186-2.506-3.146-3.115
			c-1.289-0.817-3.896-1.659-6.193-2.397c-1.753-0.566-3.41-1.101-4.515-1.618c-1.271-0.597-3.068-2.205-4.807-3.763
			c-1.058-0.949-2.504-2.244-2.913-2.388c-1.389-0.019-2.497,3.825-3.43,7.244c-0.321,1.168-0.661,2.351-1.023,3.484
			c7.487,2.126,42.443,28.089,44.973,32.434c0.043,0.076,0.072,0.147,0.105,0.22c5.359-2.699,9.053-5.414,10.396-7.537
			c0.115-0.292,0.203-0.537,0.221-0.657c-0.031-0.297,0.109-0.545,0.332-0.7C85.455,36.881,85.432,36.596,85.324,36.337z"/>
	</g>
	<g>
		<path fill="#434B56" d="M7.373,74.664c-0.731,0-1.802-0.074-2.64-0.726c-1.336-1.037-1.348-2.878-1.237-4.173
			c0.492-5.851,5.725-20.165,10.456-31.608c3.662-8.852,10.242-23.94,13.186-25.515c0.403-0.214,0.86-0.325,1.355-0.325
			c5.704,0,44.191,28.422,47.027,33.297c0.775,1.336,0.426,2.355,0.148,2.845c-2.295,4.035-20.988,11.474-31.926,15.549
			C29.505,69.313,12.738,74.664,7.373,74.664z M29.016,17.008c-4.352,5.752-20.644,45.11-21.071,53.12
			c10.102-0.669,55.596-17.497,62.979-23.139C65.539,41.076,35.154,19.285,29.016,17.008z"/>
		<path fill="#434B56" d="M68.945,73.53c-0.49,0-0.986-0.162-1.4-0.49c-0.979-0.774-1.143-2.195-0.367-3.171
			c1.361-1.716,3.619-13.1,4.934-22.662c0.102-0.741,0.564-1.385,1.234-1.717c7.529-3.729,10.137-6.629,10.547-7.749
			c-0.346-0.142-0.797-0.307-1.191-0.451c-1.994-0.728-4.721-1.725-7.146-3.707c-1.783-1.458-3.162-3.519-4.379-5.337
			c-0.682-1.017-1.529-2.283-1.963-2.598c-1.561-1.136-4.012-1.906-6.172-2.587c-2.029-0.639-3.781-1.189-5.063-2.045
			c-1.303-0.869-2.525-2.275-3.709-3.632c-1.006-1.155-2.047-2.349-2.83-2.847c-1.139-0.721-3.652-1.532-5.872-2.248
			c-1.796-0.58-3.492-1.126-4.68-1.682c-1.46-0.684-3.337-2.367-5.153-3.992c-0.628-0.563-1.418-1.27-1.979-1.729
			c-0.728,1.083-1.535,4.039-2.044,5.899c-0.422,1.548-0.86,3.146-1.381,4.607c-0.418,1.175-1.711,1.785-2.885,1.369
			c-1.175-0.417-1.787-1.711-1.368-2.886c0.463-1.298,0.877-2.813,1.278-4.279c1.303-4.766,2.646-9.715,6.662-9.501
			c1.215,0.06,2.165,0.858,4.731,3.156c1.35,1.209,3.197,2.864,4.056,3.267c0.928,0.436,2.493,0.939,4.149,1.474
			c2.596,0.836,5.277,1.702,6.902,2.73c1.342,0.85,2.602,2.297,3.818,3.695c0.99,1.136,2.014,2.31,2.814,2.845
			c0.742,0.496,2.354,1.003,3.908,1.493c2.49,0.784,5.314,1.673,7.473,3.242c1.084,0.787,2,2.154,3.059,3.737
			c1.043,1.558,2.223,3.321,3.486,4.354c1.832,1.499,4.053,2.311,5.836,2.962c1.914,0.698,3.295,1.203,3.861,2.584
			c1.648,4.037-2.285,8.529-11.691,13.364c-0.852,5.974-3.137,20.442-5.703,23.678C70.271,73.236,69.611,73.53,68.945,73.53z"/>
		<path fill="#434B56" d="M26.21,39.479c-0.375,0-0.756-0.094-1.106-0.292c-1.087-0.613-1.471-1.989-0.858-3.076
			c1.277-2.265,2.708-4.838,2.89-5.223c0.529-1.118,1.865-1.62,2.989-1.106s1.634,1.818,1.134,2.95
			c-0.247,0.56-2.036,3.747-3.079,5.598C27.764,39.065,27,39.479,26.21,39.479z"/>
		<path fill="#434B56" d="M36.358,44.432c-0.587,0-1.172-0.228-1.616-0.68c-0.872-0.893-0.854-2.324,0.039-3.193l4.603-4.49
			c0.893-0.871,2.322-0.852,3.192,0.039c0.871,0.893,0.854,2.324-0.039,3.193l-4.603,4.49
			C37.496,44.218,36.928,44.432,36.358,44.432z"/>
		<path fill="#434B56" d="M44.714,52.251c-0.898,0-1.747-0.538-2.1-1.423c-0.461-1.158,0.105-2.473,1.264-2.934l7.298-2.907
			c1.154-0.458,2.471,0.103,2.932,1.262s-0.104,2.472-1.262,2.935l-7.297,2.906C45.274,52.2,44.992,52.251,44.714,52.251z"/>
		<path fill="#434B56" d="M11.958,91c-0.187,0-0.331-0.014-0.432-0.045c-0.764-0.231-1.351-0.85-1.542-1.626
			c-0.023-0.093-2.333-9.479-5.155-15.603c-0.521-1.132-0.027-2.474,1.106-2.995c1.13-0.521,2.474-0.029,2.995,1.104
			c2.215,4.806,4.066,11.225,4.928,14.434c9.944-2.173,56.236-16.131,60.656-19.001c1.352-2.44,3.236-14.018,3.557-16.945
			c0.053-0.57,0.191-0.887,2.105-4.797c1.094-2.236,3.104-6.343,3.422-7.381c0.102-1.048,0.936-1.914,2.025-2.021
			c1.24-0.132,2.346,0.784,2.467,2.027c0.102,1.009-0.221,1.927-3.859,9.359c-0.658,1.352-1.467,3.004-1.705,3.563
			c-0.291,2.215-2.158,15.712-4.42,18.962c-0.584,0.843-1.805,2.599-33.284,12.171C25.613,88.047,14.573,91,11.958,91z"/>
		<path fill="#434B56" d="M19.017,81.986c-0.829,0-1.626-0.458-2.021-1.249c-0.558-1.114-0.107-2.473,1.009-3.028l2.929-1.465
			c1.114-0.558,2.472-0.104,3.027,1.012c0.558,1.114,0.107,2.472-1.009,3.028l-2.928,1.464
			C19.701,81.909,19.357,81.986,19.017,81.986z"/>
		<path fill="#434B56" d="M34.696,73.53c-0.928,0-1.797-0.578-2.127-1.502c-0.418-1.174,0.196-2.467,1.371-2.886l3.963-1.409
			c1.176-0.422,2.465,0.194,2.884,1.369c0.418,1.174-0.195,2.468-1.369,2.886l-3.963,1.41C35.203,73.487,34.946,73.53,34.696,73.53z
			"/>
		<path fill="#434B56" d="M48.033,74.668c-0.961,0-1.852-0.617-2.152-1.583c-0.374-1.189,0.287-2.456,1.476-2.83l2-0.628
			c1.188-0.373,2.457,0.288,2.832,1.48c0.373,1.19-0.291,2.456-1.48,2.829l-2,0.628C48.486,74.635,48.258,74.668,48.033,74.668z"/>
		<path fill="#434B56" d="M59.16,65.847c-0.777,0-1.533-0.401-1.953-1.124c-0.627-1.077-0.262-2.459,0.814-3.086l2.301-1.338
			c1.076-0.627,2.461-0.262,3.086,0.815c0.629,1.079,0.264,2.46-0.814,3.088l-2.299,1.338C59.938,65.748,59.547,65.847,59.16,65.847
			z"/>
	</g>
</g>
</svg>
