<svg id="Capa_1" enable-background="new 0 0 512.001 512.001" height="512" viewBox="0 0 512.001 512.001" width="512" xmlns="http://www.w3.org/2000/svg"><g><g><path d="m440.694 119.471h-371.021c-8.164 0-14.783 6.619-14.783 14.783v56.781h400.587v-56.781c0-8.164-6.619-14.783-14.783-14.783z" fill="#cbe2ff"/><path d="m440.694 119.471h-26.794c8.164 0 14.783 6.619 14.783 14.783v56.781h26.794v-56.781c0-8.164-6.619-14.783-14.783-14.783z" fill="#bed8fb"/><path d="m54.89 237.687h161.714v231.547h-161.714z" fill="#cbe2ff"/><path d="m189.51 237.687h27.095v231.547h-27.095z" fill="#bed8fb"/><path d="m216.604 469.234h226.371c6.904 0 12.501-5.597 12.501-12.501v-219.046h-238.872z" fill="#cbe2ff"/><path d="m428.683 237.687v219.046c0 6.904-5.597 12.501-12.501 12.501h26.794c6.904 0 12.501-5.597 12.501-12.501v-219.046z" fill="#bed8fb"/><g><path d="m202.094 275.934h-2.63c-14.523 0-26.296-11.773-26.296-26.296v-69.654h55.222v69.654c0 14.523-11.773 26.296-26.296 26.296z" fill="#ecf4ff"/><path d="m203.484 179.984v69.654c0 10.541-6.204 19.628-15.158 23.822 3.383 1.584 7.155 2.474 11.138 2.474h2.63c14.523 0 26.296-11.773 26.296-26.296v-69.654z" fill="#ddeafb"/><path d="m257.316 275.934h-2.63c-14.523 0-26.296-11.773-26.296-26.296v-69.654h55.222v69.654c0 14.523-11.773 26.296-26.296 26.296z" fill="#ecf4ff"/><path d="m258.706 179.984v69.654c0 10.541-6.204 19.628-15.158 23.822 3.383 1.584 7.155 2.474 11.138 2.474h2.63c14.523 0 26.296-11.773 26.296-26.296v-69.654z" fill="#ddeafb"/><path d="m91.649 275.934h-2.63c-14.523 0-26.296-11.773-26.296-26.296v-69.654h55.222v69.654c0 14.523-11.773 26.296-26.296 26.296z" fill="#02905d"/><path d="m93.04 179.984v69.654c0 10.541-6.205 19.628-15.158 23.822 3.383 1.584 7.156 2.474 11.138 2.474h2.63c14.523 0 26.296-11.773 26.296-26.296v-69.654z" fill="#017b4e"/><path d="m36.427 275.934h-2.63c-14.523 0-26.296-11.773-26.296-26.296v-45.563c0-13.305 10.786-24.091 24.091-24.091h31.131v69.654c0 14.523-11.773 26.296-26.296 26.296z" fill="#02905d"/><path d="m37.817 179.984v69.654c0 10.541-6.205 19.628-15.158 23.822 3.383 1.584 7.156 2.474 11.138 2.474h2.63c14.523 0 26.296-11.773 26.296-26.296v-69.654z" fill="#017b4e"/><path d="m146.871 275.934h-2.63c-14.523 0-26.296-11.773-26.296-26.296v-69.654h55.222v69.654c0 14.523-11.773 26.296-26.296 26.296z" fill="#02905d"/><path d="m148.262 179.984v69.654c0 10.541-6.205 19.628-15.158 23.822 3.383 1.584 7.155 2.474 11.138 2.474h2.63c14.523 0 26.296-11.773 26.296-26.296v-69.654z" fill="#017b4e"/><path d="m422.983 275.934h-2.63c-14.523 0-26.296-11.773-26.296-26.296v-69.654h55.222v69.654c0 14.523-11.774 26.296-26.296 26.296z" fill="#f44545"/><path d="m424.373 179.984v69.654c0 10.541-6.204 19.628-15.158 23.822 3.383 1.584 7.156 2.474 11.138 2.474h2.63c14.523 0 26.296-11.773 26.296-26.296v-69.654z" fill="#d63030"/><path d="m478.205 275.934h-2.63c-14.523 0-26.296-11.773-26.296-26.296v-69.654h31.131c13.305 0 24.091 10.786 24.091 24.091v45.563c0 14.523-11.773 26.296-26.296 26.296z" fill="#f44545"/><path d="m480.41 179.984h-24.906c13.305 0 24.091 10.786 24.091 24.091v45.563c0 10.541-6.205 19.628-15.158 23.822 3.383 1.584 7.156 2.474 11.138 2.474h2.63c14.523 0 26.296-11.773 26.296-26.296v-45.563c0-13.305-10.786-24.091-24.091-24.091z" fill="#d63030"/><path d="m312.538 275.934h-2.63c-14.523 0-26.296-11.773-26.296-26.296v-69.654h55.222v69.654c0 14.523-11.773 26.296-26.296 26.296z" fill="#ecf4ff"/><path d="m313.929 179.984v69.654c0 10.541-6.205 19.628-15.158 23.822 3.383 1.584 7.156 2.474 11.138 2.474h2.63c14.523 0 26.296-11.773 26.296-26.296v-69.654z" fill="#ddeafb"/><path d="m367.76 275.934h-2.63c-14.523 0-26.296-11.773-26.296-26.296v-69.654h55.222v69.654c0 14.523-11.773 26.296-26.296 26.296z" fill="#f44545"/><path d="m369.151 179.984v69.654c0 10.541-6.204 19.628-15.158 23.822 3.383 1.584 7.156 2.474 11.138 2.474h2.63c14.523 0 26.296-11.773 26.296-26.296v-69.654z" fill="#d63030"/></g><path d="m182.003 469.105h-92.512v-134.145c0-18.083 14.659-32.742 32.742-32.742h27.028c18.083 0 32.742 14.659 32.742 32.742z" fill="#ecf4ff"/><path d="m149.261 302.219h-26.768c18.083 0 32.742 14.659 32.742 32.742v134.144h26.768v-134.145c0-18.082-14.659-32.741-32.742-32.741z" fill="#ddeafb"/><path d="m423.361 416.646h-173.648v-81.686c0-18.083 14.659-32.742 32.742-32.742h108.164c18.083 0 32.742 14.659 32.742 32.742z" fill="#ecf4ff"/><path d="m381.301 320.305c-1.21 3.72-2.34 7.85-3.39 12.32-3.58 15.28-6.19 34.7-7.39 56.44h-39.05c-5.84 0-10.3-5.23-9.38-11 2.35-14.76 9.35-27.96 19.45-38.06 5.67-5.67 12.33-10.38 19.7-13.82 6.24-2.91 12.98-4.94 20.06-5.88z" fill="#ddeafb"/><path d="m390.619 302.219h-26.768c18.083 0 32.742 14.659 32.742 32.742v81.685h26.768v-81.686c0-18.082-14.659-32.741-32.742-32.741z" fill="#ddeafb"/><path d="m163.898 469.234h-109.008v25.413c0 4.025 3.263 7.288 7.288 7.288h94.432c4.025 0 7.288-3.263 7.288-7.288z" fill="#685e68"/><path d="m135.81 469.234v25.413c0 4.025-3.263 7.288-7.288 7.288h28.088c4.025 0 7.288-3.263 7.288-7.288v-25.413z" fill="#554e56"/><path d="m24.789 469.234h30.101v-56.588h-30.101c-4.025 0-7.288 3.263-7.288 7.288v42.013c0 4.024 3.263 7.287 7.288 7.287z" fill="#f44545"/><g><path d="m332.035 146.371h-163.877c-7.504 0-11.262-9.073-5.956-14.379l27.021-27.021 23.6-23.6 65.246-65.246c9.582-9.582 25.371-8.582 33.723 2.09 22.737 29.05 37.921 64.293 42.599 102.782 1.639 13.472-8.784 25.374-22.356 25.374z" fill="#d8ab8c"/><path d="m354.392 120.996c-4.678-38.489-19.862-73.732-42.599-102.782-6.614-8.45-17.889-10.83-27.054-6.699 3.231 1.451 6.178 3.69 8.533 6.699 22.737 29.05 37.921 64.293 42.599 102.782 1.638 13.473-8.785 25.375-22.357 25.375h18.522c13.571 0 23.994-11.902 22.356-25.375z" fill="#c38778"/><path d="m160.862 146.368h161.912c0-48.31-19.581-92.047-51.24-123.705l-114.49 114.488c-3.401 3.401-.992 9.217 3.818 9.217z" fill="#fdb441"/><path d="m271.534 22.662-9.61 9.61c26.378 30.632 42.328 70.5 42.328 114.096h18.522c0-48.31-19.581-92.047-51.24-123.706z" fill="#fea613"/><path d="m227.314 100.111c0 10.7-8.66 19.36-19.35 19.36-9.02 0-16.59-6.16-18.74-14.5l23.6-23.6c8.33 2.15 14.49 9.73 14.49 18.74z" fill="#f44545"/><path d="m212.824 81.371-7.585 7.585c2.23 3.155 3.553 6.998 3.553 11.155 0 7.342-4.078 13.721-10.09 17.003 2.75 1.501 5.905 2.356 9.262 2.356 10.69 0 19.35-8.66 19.35-19.36 0-9.009-6.16-16.589-14.49-18.739z" fill="#d63030"/><circle cx="271.233" cy="127.012" fill="#f44545" r="19.359"/><path d="m271.233 107.653c-3.355 0-6.51.855-9.261 2.357 6.016 3.284 10.099 9.666 10.099 17.003s-4.082 13.719-10.099 17.003c2.751 1.502 5.906 2.356 9.261 2.356 10.692 0 19.359-8.667 19.359-19.359s-8.667-19.36-19.359-19.36z" fill="#d63030"/></g><path d="m493.061 389.065h-37.96c-1.57-28.11-5.47-52.35-10.79-68.77 29.91 3.96 53.8 26.97 59.09 56.42 1.16 6.44-3.8 12.35-10.34 12.35z" fill="#f44545"/><path d="m503.401 376.715c-5.29-29.45-29.18-52.46-59.09-56.42.599 1.848 1.177 3.81 1.738 5.85 20.125 9.364 35.014 28.084 39.053 50.57 1.16 6.44-3.8 12.35-10.34 12.35h18.299c6.54 0 11.5-5.91 10.34-12.35z" fill="#d63030"/><path d="m402.301 320.305c-1.21 3.72-2.34 7.85-3.39 12.32-3.58 15.28-6.19 34.7-7.39 56.44h-39.05c-5.84 0-10.3-5.23-9.38-11 2.35-14.76 9.35-27.96 19.45-38.06 5.67-5.67 12.33-10.38 19.7-13.82 6.24-2.91 12.98-4.94 20.06-5.88z" fill="#02905d"/><path d="m402.301 320.305c-1.21 3.72-2.34 7.85-3.39 12.32-3.58 15.28-6.19 34.7-7.39 56.44h-21.5c1.72-20.46 7.26-42.23 10.59-56.44.53-2.24 1.07-4.38 1.63-6.44 6.24-2.91 12.98-4.94 20.06-5.88z" fill="#017b4e"/><path d="m455.101 389.065h-63.58c1.2-21.74 3.81-41.16 7.39-56.44 1.05-4.47 2.18-8.6 3.39-12.32 1.5-.21 3.01-.36 4.54-.46 1.57-.11 31.83-.09 33.58.04 1.31.1 2.6.23 3.89.41 5.32 16.42 9.22 40.66 10.79 68.77z" fill="#ecf4ff"/><path d="m444.311 320.295c-1.29-.18-2.58-.31-3.89-.41-.777-.058-7.182-.094-14.198-.106 5.104 16.485 9.053 41.966 10.579 69.286h18.299c-1.57-28.11-5.47-52.35-10.79-68.77z" fill="#ddeafb"/></g><g><path d="m480.41 172.484h-17.429v-38.229c0-12.285-9.999-22.28-22.29-22.28h-49.847c-4.143 0-7.5 3.358-7.5 7.5s3.357 7.5 7.5 7.5h49.847c4.02 0 7.29 3.266 7.29 7.28v38.229h-385.258-.332v-38.229c0-4.014 3.266-7.28 7.28-7.28h86.942l-4.876 4.876c-3.702 3.702-4.8 9.22-2.796 14.057 2.003 4.837 6.681 7.963 11.917 7.963h174.56c7.616 0 14.91-3.243 20.012-8.898 5.14-5.698 7.634-13.358 6.843-21.017-4.302-41.639-20.562-80.865-47.022-113.437-4.823-5.937-11.969-9.568-19.604-9.962-7.634-.394-15.091 2.476-20.487 7.873l-103.547 103.545h-101.942c-12.285 0-22.28 9.995-22.28 22.28v38.229h-15.799c-17.419 0-31.591 14.172-31.591 31.591v45.563c-.135 19.29 16.896 35.047 36.426 33.796 3.837 0 7.523-.652 10.963-1.835v123.547h-22.602c-8.154 0-14.788 6.634-14.788 14.788v42.013c0 8.154 6.634 14.788 14.788 14.788h22.602v17.913c0 8.154 6.634 14.788 14.788 14.788h94.433c8.154 0 14.788-6.634 14.788-14.788v-17.913l163.327.001v27.244c0 4.142 3.357 7.5 7.5 7.5s7.5-3.358 7.5-7.5v-25.201h7.429c6.668 0 12.093 5.425 12.093 12.093v13.107c0 4.142 3.357 7.5 7.5 7.5s7.5-3.358 7.5-7.5v-13.107c0-5.177-1.462-10.019-3.991-14.137h35.606v25.2c0 4.142 3.357 7.5 7.5 7.5s7.5-3.358 7.5-7.5v-25.2h12.118c11.029 0 20.002-8.973 20.002-20.001v-60.169h30.08c5.351 0 10.388-2.354 13.819-6.459 3.427-4.099 4.849-9.464 3.902-14.717-4.831-26.892-23.205-48.553-47.802-58.03v-36.369c3.895 1.57 8.143 2.443 12.594 2.443 19.05 1.391 36.501-14.187 36.426-33.796v-45.563c-.001-17.418-14.173-31.59-31.592-31.59zm-260.596-72.372c0 6.54-5.316 11.86-11.85 11.86-4.052 0-7.716-2.045-9.866-5.267l16.458-16.458c3.215 2.151 5.258 5.814 5.258 9.865zm39.56 26.9c0-6.539 5.32-11.859 11.859-11.859s11.859 5.32 11.859 11.859c0 6.513-5.279 11.813-11.782 11.855h-.154c-6.503-.042-11.782-5.342-11.782-11.855zm35.953 11.856c1.768-3.578 2.766-7.602 2.766-11.855 0-14.811-12.049-26.859-26.859-26.859s-26.859 12.049-26.859 26.859c0 4.254.998 8.277 2.766 11.855h-81.206l21.48-21.479c4.981 5.921 12.413 9.583 20.55 9.583 14.805 0 26.85-12.049 26.85-26.86 0-8.134-3.66-15.565-9.576-20.547l46.18-46.18c26.654 29.095 41.967 66.062 43.692 105.482h-19.784zm-.455-123.331c3.451.178 6.554 1.755 8.735 4.44 24.616 30.302 39.743 66.791 43.745 105.521 1.241 8.474-7.899 15.009-17.241 13.373-1.744-43.427-18.612-84.153-48.086-116.094 3.348-3.496 6.453-7.146 12.847-7.24zm146.906 234.101c0 10.364-8.432 18.796-18.796 18.796-10.511 1.232-21.449-7.335-21.426-18.796v-62.154h40.222zm-55.222 0c0 10.364-8.432 18.796-18.796 18.796-10.512 1.232-21.45-7.334-21.427-18.796v-62.154h40.223zm-55.222 0c0 10.364-8.432 18.796-18.796 18.796-10.511 1.232-21.449-7.335-21.426-18.796v-62.154h40.222zm-55.222 0c0 10.364-8.432 18.796-18.796 18.796-10.511 1.232-21.45-7.335-21.427-18.796v-62.154h40.223zm-55.223 0c0 10.364-8.432 18.796-18.796 18.796-10.511 1.232-21.449-7.335-21.426-18.796v-62.154h40.222zm-55.222 0c0 10.364-8.432 18.796-18.796 18.796-10.511 1.232-21.449-7.335-21.426-18.796v-62.154h40.222zm-55.222 0c0 10.364-8.432 18.796-18.796 18.796-10.511 1.232-21.449-7.335-21.426-18.796v-62.154h40.222zm-76.648 18.796c-10.364 0-18.796-8.432-18.796-18.796v-45.563c0-9.148 7.442-16.591 16.591-16.591h23.631v62.154c0 10.364-8.432 18.796-18.796 18.796zm-8.796 151.712h22.389v41.588h-22.389zm131.397 74.289h-94.008v-17.701h94.008zm-7.137-184.716c13.918 0 25.242 11.323 25.242 25.242v11h-31.256v-36.242zm25.242 95.427h-31.256v-44.185h31.256zm-46.256 0h-31.255v-44.185h31.255zm-31.255 15h31.255v41.459h-31.255zm46.255 0h31.256v41.459h-31.256zm-15-74.185h-31.255v-11c0-13.918 11.323-25.242 25.242-25.242h6.014v36.242zm314.732 115.774h-12.118v-65.17h17.12v60.169c0 2.758-2.244 5.001-5.002 5.001zm-90.508-80.17c-.446-.419-1.298.709-1.974-2.321 1.234-7.746 3.897-15.064 7.83-21.691 6.532-11.42 19.46-22.529 33.389-27.078-3.223 13.465-5.915 32.17-7.234 51.089h-32.011zm48.838-68.694c-21.048 2.798-40.959 14.843-53.387 33.089h-90.711v-10.996c0-13.923 11.322-25.25 25.24-25.25h108.17c4.257 0 8.337 1.071 11.941 3.006-.418.051-.85.095-1.253.151zm4.904 21.469c.581-2.476 1.184-4.824 1.804-7.024 7.785-.081 24.56-.037 30.589.026 3.981 14.137 6.933 32.976 8.495 54.223h-47.584c1.299-17.777 3.59-33.974 6.696-47.225zm89.807 43.705c-.036 1.48.058 2.79-2.959 3.521h-30.929c-1.377-19.31-3.88-36.882-7.264-51.169 21.147 7.046 37.092 25.048 41.152 47.648zm-72.178-65.766c-7.449-10.927-19.794-17.564-33.221-17.564h-108.17c-22.188 0-40.24 18.056-40.24 40.25v81.68c0 4.142 3.358 7.5 7.5 7.5h138.131c4.143 0 7.5-3.358 7.5-7.5s-3.357-7.5-7.5-7.5h-130.631v-48.185h82.81c-1.995 5.095-3.46 10.421-4.336 15.924-.785 4.922.621 9.921 3.857 13.714 3.235 3.792 7.947 5.966 12.929 5.966h39.05 24.341v65.17h-66.137v-20.794c0-4.142-3.357-7.5-7.5-7.5s-7.5 3.358-7.5 7.5v20.795h-110.624v-151.978c0-4.142-3.358-7.5-7.5-7.5s-7.5 3.358-7.5 7.5v151.977h-19.598v-126.774c0-22.189-18.052-40.242-40.242-40.242h-27.028c-22.189 0-40.242 18.052-40.242 40.242v126.774h-19.601s-.778-191.763-.667-191.9c6.058 7.836 18.705 14.316 29.926 13.6 10.614 0 20.095-4.922 26.296-12.6 6.058 7.836 17.705 13.316 28.926 12.6 10.614 0 20.096-4.922 26.296-12.6 6.058 7.836 17.705 13.316 28.926 12.6 10.614 0 20.096-4.922 26.296-12.6 6.058 7.836 17.706 13.316 28.927 12.6 10.614 0 20.095-4.923 26.296-12.6 6.058 7.836 17.705 13.316 28.926 12.6 10.614 0 20.095-4.923 26.296-12.6 6.058 7.836 17.706 13.316 28.927 12.6 10.614 0 20.095-4.923 26.296-12.6 6.058 7.836 17.705 13.316 28.926 12.6 9.896 0 18.813-4.276 24.999-11.077v40.913c-.874-.147-12.621-.924-24.14-.991zm73.159-62.641c.119 10.798-10.101 19.932-21.426 18.796-10.364 0-18.797-8.432-18.797-18.796v-62.154h23.632c9.148 0 16.591 7.443 16.591 16.591z"/><path d="m504.501 433.414c-4.143 0-7.5 3.358-7.5 7.5v22.839h-7.429c-14.939 0-27.093 12.154-27.093 27.093v13.107c0 4.142 3.357 7.5 7.5 7.5s7.5-3.358 7.5-7.5v-13.107c0-6.668 5.425-12.093 12.093-12.093h7.429v25.201c0 4.142 3.357 7.5 7.5 7.5s7.5-3.358 7.5-7.5v-63.04c0-4.142-3.358-7.5-7.5-7.5z"/><circle cx="263.58" cy="75.07" r="7.811"/></g></g></svg>