<?xml version="1.0" encoding="utf-8"?>
<!-- Generator: Adobe Illustrator 16.0.0, SVG Export Plug-In . SVG Version: 6.00 Build 0)  -->
<!DOCTYPE svg PUBLIC "-//W3C//DTD SVG 1.1//EN" "http://www.w3.org/Graphics/SVG/1.1/DTD/svg11.dtd">
<svg version="1.1" id="Layer_1" xmlns="http://www.w3.org/2000/svg" xmlns:xlink="http://www.w3.org/1999/xlink" x="0px" y="0px"
	 width="91px" height="91px" viewBox="0 0 91 91" enable-background="new 0 0 91 91" xml:space="preserve">
<g>
	<g>
		<path fill="#DEB198" d="M15.042,69.368c1.222-0.303,4.777-1.356,9.515-4.193c-8.195-5.83-13.974-21.74-11.605-32.74
			c1.701-7.887,6.842-11.885,15.289-11.885l0.223,0.002c2.038,0.016,3.897,0.188,5.603,0.494c0.025,0.002,0.047-0.004,0.073,0.002
			c0.018,0.004,0.031,0.018,0.047,0.023c4.53,0.83,7.894,2.667,9.995,5.521c0.008,0.012,0.014,0.021,0.02,0.033
			c0.004,0.002,0.006,0.006,0.008,0.01c5.167,7.063,2.854,16.008,2.336,17.729c-0.025,0.083-0.07,0.149-0.113,0.215
			c1.796,3.831,4.346,7.25,7.204,10.243c1.642-5.181,6.691-23.761-1.718-33.778c-5.589-6.656-13.236-9.931-23.376-10.013
			l-0.296-0.002c-13.382,0-22.422,7.442-24.799,20.417C0.785,45.947,5.552,61.458,15.042,69.368z"/>
		<path fill="#F9BA8F" d="M74.898,71.328c-0.385-0.136-37.827-15.333-32.293-43.983c-1.739-2.205-4.426-3.695-8.01-4.469
			c-2.74,12.293-0.296,22.644,4.565,31.055c0.004,0.002,0.006,0.004,0.008,0.006c0.131,0.119,0.204,0.276,0.239,0.438
			c1.805,3.045,3.926,5.824,6.221,8.352c0.004,0.004,0.008,0.004,0.012,0.006c0.012,0.01,0.014,0.023,0.023,0.035
			c8.587,9.446,19.649,15.294,26.088,17.545c2.449,0.854,5.212-0.512,6.057-2.917C78.677,74.923,77.371,72.203,74.898,71.328z"/>
		<path fill="#DEB198" d="M78.43,15.557c-10.009-7.208-21.196-7.803-32.39-1.753c2.669,1.61,5.062,3.646,7.168,6.156
			c0.103,0.124,0.193,0.253,0.291,0.378c3.944-0.741,14.42-1.49,19.978,3.294c3.315,2.857,4.714,7.387,4.274,13.853
			c-1.271,18.74-10.458,27.194-10.848,27.544c-0.057,0.052-0.124,0.083-0.188,0.116c4.142,2.532,7.448,4.036,8.431,4.459
			c1.709-0.967,10.446-7.083,12.104-31.475C87.894,28.592,84.515,19.944,78.43,15.557z"/>
		<path fill="#DEB198" d="M45.302,72.582c-1.863,0-4.057-0.481-6.546-1.685c-2.861,2.51-5.575,4.457-8.089,5.984
			c4.669,2.683,10.641,4.389,15.608,4.389c6.106,0,11.873-2.912,14.386-4.373c-2.949-1.729-6.054-3.826-9.101-6.291
			C50.193,71.571,48.105,72.582,45.302,72.582z"/>
		<path fill="#F9BA8F" d="M38.072,69.248c1.896-1.696,3.855-3.644,5.861-5.879c-2.01-2.266-3.871-4.736-5.514-7.396
			c-4.214,4.476-8.299,7.684-11.849,9.937c-0.027,0.016-0.049,0.033-0.077,0.045c-6.181,3.906-10.73,4.991-11.49,5.151
			c-2.627,0.424-4.369,2.764-4.026,5.341c0.342,2.566,2.75,4.415,5.352,4.09l0.175-0.021c3.441-0.416,11.613-2.386,21.55-11.254
			C38.06,69.258,38.064,69.252,38.072,69.248z"/>
	</g>
	<g>
		<path fill="#434B56" d="M73.829,83.7c-0.883,0-1.757-0.148-2.599-0.443c-13.821-4.83-47.764-25.371-38.995-61.918
			c0.292-1.224,1.527-1.977,2.745-1.685c1.224,0.294,1.977,1.523,1.683,2.747c-7.981,33.264,23.331,52.104,36.069,56.556
			c1.73,0.605,3.643-0.357,4.232-2.038c0.606-1.726-0.306-3.627-2.035-4.238c-0.4-0.142-39.384-15.976-33.15-46.052
			c0.255-1.231,1.461-2.021,2.69-1.767c1.232,0.255,2.023,1.461,1.768,2.692c-5.408,26.092,29.854,40.704,30.213,40.834
			c4.089,1.443,6.248,5.947,4.811,10.04C80.153,81.582,77.167,83.7,73.829,83.7z"/>
		<path fill="#434B56" d="M16.196,83.698c-3.928,0-7.283-2.939-7.802-6.838c-0.565-4.243,2.286-8.102,6.499-8.813
			c1.404-0.306,11.456-2.859,22.532-15.021c0.847-0.93,2.289-0.996,3.218-0.148c0.93,0.845,0.997,2.286,0.149,3.216
			C28.839,69.217,17.885,72.071,15.81,72.509c-0.037,0.009-0.094,0.021-0.131,0.026c-1.794,0.287-3.01,1.923-2.771,3.724
			c0.241,1.798,1.916,3.09,3.753,2.855l0.179-0.021c3.997-0.485,14.629-3.133,27.042-17.231c0.83-0.946,2.269-1.038,3.213-0.207
			c0.943,0.832,1.036,2.271,0.204,3.215c-13.447,15.275-25.398,18.198-29.91,18.745l-0.144,0.018
			C16.885,83.677,16.538,83.698,16.196,83.698z"/>
		<path fill="#434B56" d="M15.316,72.564c-0.502,0-1.008-0.167-1.43-0.507C3.346,63.544-2,46.611,0.885,30.882
			c2.677-14.6,12.835-22.973,27.87-22.973l0.301,0.002c11.13,0.09,19.549,3.73,25.761,11.126
			c10.947,13.037,2.172,37.227,1.793,38.25c-0.437,1.179-1.742,1.783-2.926,1.346c-1.179-0.438-1.78-1.745-1.345-2.926
			c0.083-0.226,8.233-22.732-1.012-33.742c-5.3-6.314-12.593-9.422-22.29-9.5l-0.283-0.002c-12.809,0-21.115,6.834-23.391,19.241
			c-2.596,14.16,2.084,29.298,11.384,36.811c0.979,0.79,1.131,2.224,0.341,3.202C16.64,72.273,15.981,72.564,15.316,72.564z"/>
		<path fill="#434B56" d="M26.625,67.489c-0.387,0-0.779-0.099-1.14-0.309C16.075,61.731,9.423,44.37,12.059,32.133
			c1.861-8.638,7.475-13.019,16.688-13.019l0.141,0.002c8.091,0.065,13.762,2.292,16.955,6.625
			c5.614,7.62,3.137,17.196,2.583,19.037c-0.362,1.204-1.627,1.89-2.834,1.526c-1.206-0.363-1.888-1.632-1.525-2.836
			c0.271-0.906,2.531-9.024-1.891-15.025c-2.294-3.114-6.746-4.72-13.229-4.771l-0.12-0.002c-0.002,0-0.002,0-0.004,0
			c-7.136,0-10.909,2.906-12.313,9.422c-2.392,11.117,4.302,26.119,11.258,30.149c1.088,0.629,1.46,2.024,0.83,3.112
			C28.176,67.08,27.412,67.489,26.625,67.489z"/>
		<path fill="#434B56" d="M66.851,66.679c-0.623,0-1.246-0.255-1.696-0.755c-0.838-0.934-0.763-2.368,0.167-3.21
			c0.126-0.118,8.651-8.132,9.824-25.441c0.368-5.418-0.677-9.104-3.197-11.275c-4.486-3.867-13.916-3.361-17.784-2.512
			c-1.228,0.273-2.443-0.506-2.713-1.733c-0.271-1.228,0.505-2.443,1.735-2.714c3.914-0.861,15.448-1.91,21.735,3.509
			c3.681,3.171,5.239,8.089,4.768,15.035C78.382,56.896,68.777,65.729,68.37,66.097C67.935,66.486,67.392,66.679,66.851,66.679z"/>
		<path fill="#434B56" d="M75.688,72.811c-0.893,0-1.739-0.527-2.104-1.403c-0.482-1.162,0.068-2.495,1.229-2.977
			c0.095-0.042,9.788-4.962,11.514-30.397c0.613-9.047-2.54-17.213-8.229-21.312c-9.666-6.963-20.503-7.452-31.337-1.414
			c-0.588,0.328-0.856,0.477-1.26,0.563c-1.239,0.267-2.441-0.518-2.706-1.747c-0.237-1.108,0.375-2.2,1.398-2.598
			c0.086-0.047,0.205-0.114,0.352-0.196c12.31-6.862,25.17-6.259,36.217,1.698c6.953,5.01,10.826,14.709,10.108,25.315
			c-1.956,28.838-13.806,34.084-14.309,34.294C76.276,72.754,75.98,72.811,75.688,72.811z"/>
		<path fill="#434B56" d="M45.837,73.989c-2.489,0-5.128-0.689-7.779-2.069c-1.116-0.58-1.55-1.954-0.969-3.07
			c0.579-1.115,1.951-1.549,3.071-0.969c4.016,2.091,7.704,2.085,10.381-0.02c0.15-0.117,0.259-0.191,0.314-0.229
			c1.065-0.668,2.472-0.349,3.141,0.714c0.649,1.03,0.372,2.377-0.608,3.071C51.195,73.131,48.61,73.989,45.837,73.989z"/>
		<path fill="#434B56" d="M46.784,84.391c-5.062,0-12.245-1.142-17.229-4.342c-1.059-0.681-1.365-2.088-0.687-3.147
			c0.681-1.059,2.09-1.364,3.147-0.685c4.16,2.672,10.556,3.621,14.769,3.621c6.932,0,13.472-4.015,14.712-4.818l1.287,1.878
			l1.226,1.92l-1.228-1.918l1.193,1.939C61.968,80.141,54.79,84.391,46.784,84.391z"/>
	</g>
</g>
</svg>
