<?xml version="1.0" encoding="utf-8"?>
<!-- Generator: Adobe Illustrator 16.0.0, SVG Export Plug-In . SVG Version: 6.00 Build 0)  -->
<!DOCTYPE svg PUBLIC "-//W3C//DTD SVG 1.1//EN" "http://www.w3.org/Graphics/SVG/1.1/DTD/svg11.dtd">
<svg version="1.1" id="Layer_1" xmlns="http://www.w3.org/2000/svg" xmlns:xlink="http://www.w3.org/1999/xlink" x="0px" y="0px"
	 width="91px" height="91px" viewBox="0 0 91 91" enable-background="new 0 0 91 91" xml:space="preserve">
<g>
	<g>
		<g>
			<path fill="#F3DBD2" d="M13.896,40.198l-4.486-3.495c-1.135-0.885-2.78-0.678-3.664,0.457L3.638,39.87
				c-0.431,0.55-0.618,1.234-0.532,1.928c0.085,0.692,0.437,1.311,0.985,1.737l2.783,2.165
				C8.844,43.723,11.415,41.818,13.896,40.198z"/>
			<path fill="#F3DBD2" d="M51.886,77.815h-0.002v-0.002l-1.863-2.847c-0.485-0.739-1.303-1.183-2.191-1.183
				c-0.504,0-0.997,0.149-1.425,0.428l-2.872,1.881c-0.585,0.382-0.985,0.971-1.127,1.652c-0.143,0.682-0.011,1.38,0.371,1.964
				l3.605,5.509c0.763,1.162,2.44,1.517,3.615,0.755l2.873-1.882c1.206-0.789,1.544-2.412,0.755-3.617L51.886,77.815z"/>
			<path fill="#F3DBD2" d="M38.261,10.919l2.004,1.638c1.528-2.258,4.033-4.225,6.589-5.79l-3.29-2.69
				c-1.122-0.872-2.765-0.671-3.651,0.468l-2.11,2.711C36.92,8.391,37.124,10.037,38.261,10.919z"/>
			<path fill="#F3DBD2" d="M20.693,27.452l2.295,1.787c1.846-1.924,4.524-3.762,7.235-5.336l-4.212-3.279
				c-0.55-0.43-1.24-0.615-1.926-0.531c-0.693,0.086-1.31,0.438-1.738,0.988l-2.11,2.709c-0.428,0.55-0.618,1.234-0.531,1.926
				C19.792,26.407,20.143,27.024,20.693,27.452z"/>
			<path fill="#F3DBD2" d="M82.143,44.144c-0.483-0.739-1.303-1.181-2.188-1.181c-0.508,0-1.003,0.147-1.429,0.426l-2.874,1.88
				c-0.583,0.382-0.982,0.968-1.123,1.651c-0.144,0.685-0.012,1.382,0.37,1.967l3.604,5.506c0.765,1.164,2.44,1.525,3.619,0.757
				l2.869-1.88c0.585-0.382,0.984-0.971,1.128-1.652c0.144-0.685,0.012-1.38-0.371-1.965L82.143,44.144z"/>
			<path fill="#B08C7E" d="M77.628,42.015c1.693-1.11,4.039-0.772,5.415,0.65c5.613-2.879,4.486-5.736,4.433-5.858
				C83.962,24.028,58.8,6.578,55.541,4.362c-2.146,0.82-12.603,5.069-14.752,10.637c-0.587,1.519-0.485,2.979,0.308,4.458
				c0.111,0.205,0.129,0.449,0.048,0.668c-0.079,0.218-0.249,0.394-0.465,0.482c-4.733,1.903-17.259,7.887-18.366,12.66
				c-0.206,0.883,0.011,1.645,0.669,2.391c1.615,1.232,21.317,16.438,29.839,29.598l3.993-1.597
				c-0.228-1.588,0.439-3.237,1.866-4.173l2.878-1.883c1.854-1.217,4.503-0.686,5.781,1.103c2.757-1.748,2.799-5.021,2.772-5.655
				c-5.531-13.736-24.986-28.032-25.185-28.175c-0.364-0.268-0.444-0.781-0.179-1.148c0.269-0.367,0.785-0.445,1.15-0.18
				c0.733,0.535,16.334,12.006,23.623,24.611l3.511-1.934c0.288-0.954,0.877-1.777,1.721-2.329L77.628,42.015z"/>
			<path fill="#F3DBD2" d="M66.072,59.733c-0.483-0.739-1.303-1.181-2.188-1.181c-0.509,0-1.001,0.145-1.428,0.424l-2.875,1.882
				c-1.204,0.789-1.542,2.411-0.753,3.615l3.604,5.509c0.761,1.161,2.445,1.517,3.618,0.756l2.87-1.882
				c0.585-0.382,0.986-0.971,1.128-1.652c0.143-0.683,0.011-1.378-0.371-1.962L66.072,59.733z"/>
			<path fill="#DEB198" d="M22.31,37.21c-3.674,1.867-10.951,6.076-14.734,10.079c-1.329,1.406-2.224,2.784-2.376,4.024
				c-0.116,0.951,0.245,1.769,1.107,2.501c6.11,5.184,29.228,26.332,31.42,32.764c0.521,0.468,2.879,2.167,6.879-1.076l-3.203-4.895
				c-0.623-0.95-0.839-2.087-0.606-3.198c0.233-1.112,0.885-2.069,1.836-2.69l2.871-1.882c1.911-1.246,4.652-0.667,5.891,1.232
				l1.412,2.157c2.738-2.137,1.506-4.693,1.343-4.995C49.014,58.302,25.657,39.816,22.31,37.21z"/>
		</g>
		<g>
			<path fill="#434B56" d="M40.283,90.489c-0.151,0-0.302-0.006-0.451-0.016c-2.704-0.166-4.222-1.816-4.386-2.004
				c-0.218-0.248-0.377-0.543-0.467-0.861c-1.206-4.302-20.525-22.997-30.527-31.484c-2.092-1.775-2.329-3.802-2.159-5.189
				c0.759-6.199,12.033-12.884,17.204-15.641c-0.237-0.869-0.25-1.785-0.033-2.723c1.396-6.019,13.004-11.693,18.214-13.963
				c-0.342-1.557-0.214-3.154,0.388-4.713C40.902,6.545,53.582,1.857,55.018,1.345c0.659-0.231,1.389-0.143,1.972,0.243
				c1.199,0.797,29.386,19.649,33.465,34.203c0.423,1.213,1.504,6.08-6.562,9.901c-1.107,0.525-2.432,0.054-2.955-1.055
				s-0.052-2.431,1.055-2.956c4.723-2.237,4.347-4.259,4.337-4.276c-0.054-0.117-0.098-0.235-0.132-0.359
				C83.012,25.433,60.369,9.301,55.466,5.919c-3.917,1.557-11.637,5.361-13.261,9.576c-0.437,1.133-0.361,2.178,0.236,3.29
				c0.298,0.556,0.345,1.213,0.131,1.806c-0.216,0.594-0.673,1.068-1.258,1.303c-6.786,2.73-16.71,8.159-17.526,11.68
				c-0.087,0.375-0.055,0.701,0.374,1.177c0.464,0.516,0.66,1.219,0.53,1.901s-0.572,1.263-1.193,1.571
				C16.787,41.551,7.14,47.86,6.698,51.474c-0.04,0.322-0.027,0.715,0.625,1.267c3.75,3.184,28.371,25.227,31.679,32.973
				c0.583,0.37,2.306,0.985,5.328-1.71c0.915-0.816,2.317-0.734,3.132,0.18c0.814,0.915,0.734,2.317-0.179,3.133
				C44.917,89.423,42.565,90.489,40.283,90.489z"/>
			<path fill="#434B56" d="M67.223,62.024c-0.827,0-1.622-0.465-2.003-1.262c-0.529-1.105-0.063-2.43,1.044-2.959
				c2.363-1.131,2.571-3.638,2.573-4.47c-5.505-13.298-24.425-27.198-24.616-27.338c-0.991-0.722-1.208-2.109-0.486-3.101
				c0.721-0.99,2.11-1.208,3.1-0.485c0.833,0.608,20.48,15.05,26.266,29.631c0.078,0.196,0.128,0.403,0.147,0.615
				c0.024,0.264,0.527,6.474-5.069,9.15C67.87,61.955,67.544,62.024,67.223,62.024z"/>
			<path fill="#434B56" d="M52.697,79.595c-0.743,0-1.469-0.375-1.89-1.053c-0.644-1.043-0.32-2.409,0.723-3.056
				c2.275-1.404,1.8-3.001,1.49-3.624c-0.028-0.056-0.074-0.151-0.098-0.21c-5.327-13.427-31.491-33.451-31.755-33.651
				c-0.976-0.743-1.164-2.134-0.422-3.109c0.742-0.976,2.134-1.166,3.109-0.422c1.114,0.848,27.28,20.882,33.149,35.433
				c1.181,2.318,1.3,6.615-3.141,9.358C53.498,79.487,53.095,79.595,52.697,79.595z"/>
			<path fill="#434B56" d="M48.684,89.431c-1.917,0-3.686-0.955-4.734-2.557l-3.604-5.508c-0.826-1.264-1.112-2.772-0.804-4.252
				c0.31-1.479,1.175-2.747,2.44-3.574l2.872-1.881c0.923-0.604,1.991-0.923,3.09-0.923c1.916,0,3.686,0.958,4.734,2.559
				l3.604,5.507c1.706,2.608,0.975,6.118-1.632,7.824l-2.876,1.882C50.852,89.111,49.784,89.431,48.684,89.431z M47.942,75.175
				c-0.233,0-0.463,0.067-0.661,0.197l-2.871,1.882c-0.272,0.178-0.459,0.451-0.525,0.769c-0.066,0.316-0.005,0.642,0.173,0.913
				l3.605,5.509c0.352,0.536,1.131,0.71,1.68,0.352l2.873-1.883c0.563-0.366,0.719-1.121,0.352-1.683l-3.604-5.505
				C48.736,75.38,48.356,75.175,47.942,75.175z"/>
			<path fill="#434B56" d="M7.039,48.993c-0.477,0-0.957-0.152-1.361-0.468l-3.34-2.601c-1.19-0.925-1.95-2.261-2.137-3.759
				c-0.187-1.5,0.222-2.982,1.151-4.173l2.107-2.709c1.918-2.459,5.476-2.902,7.933-0.988l5.193,4.045
				c0.967,0.753,1.14,2.148,0.388,3.115c-0.753,0.967-2.147,1.139-3.114,0.388l-5.193-4.045c-0.528-0.413-1.292-0.317-1.706,0.212
				L4.852,40.72c-0.201,0.256-0.289,0.575-0.248,0.898c0.04,0.321,0.202,0.608,0.458,0.805l3.341,2.602
				c0.967,0.753,1.141,2.146,0.388,3.113C8.353,48.699,7.699,48.993,7.039,48.993z"/>
			<path fill="#434B56" d="M23.168,32.546c-0.477,0-0.957-0.153-1.361-0.468l-2.87-2.233c-1.191-0.929-1.949-2.264-2.136-3.762
				c-0.187-1.498,0.222-2.98,1.151-4.171l2.109-2.708c0.927-1.192,2.263-1.949,3.761-2.136c1.5-0.188,2.98,0.222,4.171,1.15
				l4.553,3.544c0.967,0.753,1.14,2.147,0.387,3.114s-2.147,1.139-3.114,0.386l-4.553-3.544c-0.256-0.201-0.575-0.291-0.896-0.247
				c-0.322,0.04-0.609,0.203-0.808,0.457l-2.11,2.711c-0.2,0.256-0.287,0.573-0.247,0.894c0.04,0.323,0.203,0.61,0.458,0.808
				l2.87,2.234c0.967,0.753,1.141,2.147,0.388,3.114C24.483,32.252,23.829,32.546,23.168,32.546z"/>
			<path fill="#434B56" d="M40.574,15.99c-0.494,0-0.99-0.163-1.401-0.501l-2.708-2.21c-2.417-1.882-2.861-5.439-0.948-7.898
				l2.11-2.711c1.916-2.459,5.474-2.9,7.933-0.988l4.117,3.367c0.949,0.775,1.089,2.172,0.313,3.122
				c-0.775,0.947-2.173,1.087-3.122,0.313l-4.075-3.332c-0.487-0.378-1.253-0.283-1.666,0.245l-2.109,2.709
				c-0.411,0.529-0.315,1.293,0.214,1.704l2.748,2.245c0.948,0.775,1.089,2.172,0.314,3.122
				C41.855,15.713,41.217,15.99,40.574,15.99z"/>
			<path fill="#434B56" d="M64.736,74.197c-1.916,0-3.686-0.957-4.734-2.559l-3.605-5.509c-1.706-2.604-0.975-6.114,1.632-7.822
				l2.878-1.882c0.921-0.604,1.99-0.923,3.091-0.923c1.915,0,3.684,0.957,4.733,2.559l3.604,5.509
				c0.827,1.261,1.111,2.771,0.804,4.247c-0.308,1.479-1.173,2.747-2.438,3.573l-2.872,1.882
				C66.905,73.878,65.835,74.197,64.736,74.197z M63.997,59.939c-0.234,0-0.462,0.069-0.661,0.199l-2.875,1.882
				c-0.561,0.366-0.719,1.119-0.352,1.68l3.605,5.508c0.354,0.541,1.135,0.709,1.683,0.354l2.872-1.882
				c0.273-0.18,0.459-0.451,0.523-0.768c0.067-0.317,0.006-0.641-0.172-0.912l-3.605-5.508C64.79,60.146,64.41,59.939,63.997,59.939
				z"/>
			<path fill="#434B56" d="M80.808,58.607c-1.915,0-3.686-0.955-4.735-2.558l-3.605-5.507c-1.706-2.608-0.974-6.117,1.634-7.825
				l2.874-1.882c0.925-0.604,1.993-0.921,3.092-0.921c1.916,0,3.686,0.955,4.732,2.556l3.605,5.509
				c0.827,1.264,1.111,2.772,0.803,4.25c-0.308,1.479-1.176,2.747-2.438,3.572l-2.87,1.882
				C82.974,58.291,81.906,58.607,80.808,58.607z M80.066,44.352c-0.235,0-0.465,0.069-0.663,0.199l-2.872,1.88
				c-0.56,0.367-0.719,1.122-0.352,1.682l3.605,5.507c0.354,0.541,1.135,0.713,1.686,0.354l2.867-1.88
				c0.273-0.18,0.459-0.453,0.525-0.771c0.067-0.317,0.006-0.64-0.172-0.911l-3.605-5.509C80.86,44.558,80.48,44.352,80.066,44.352z
				"/>
			<path fill="#434B56" d="M79.581,37.542c-0.879,0-1.712-0.525-2.061-1.391c-3.099-7.698-16.896-18.264-17.035-18.371
				c-0.975-0.741-1.163-2.134-0.422-3.108c0.743-0.975,2.134-1.164,3.11-0.422c0.605,0.462,14.909,11.414,18.463,20.245
				c0.458,1.137-0.092,2.429-1.229,2.887C80.137,37.491,79.855,37.542,79.581,37.542z"/>
			<path fill="#434B56" d="M61.831,52.924c-0.879,0-1.713-0.525-2.061-1.392c-3.097-7.698-16.893-18.264-17.032-18.371
				c-0.976-0.741-1.164-2.134-0.421-3.108c0.741-0.975,2.132-1.164,3.108-0.422c0.607,0.462,14.909,11.414,18.463,20.246
				c0.456,1.137-0.094,2.429-1.23,2.887C62.387,52.872,62.105,52.924,61.831,52.924z"/>
			<path fill="#434B56" d="M45.42,70.026c-0.879,0-1.711-0.525-2.059-1.392c-3.097-7.696-16.896-18.264-17.035-18.369
				c-0.975-0.743-1.164-2.134-0.422-3.108c0.741-0.977,2.134-1.166,3.109-0.422c0.607,0.46,14.911,11.414,18.464,20.243
				c0.457,1.137-0.094,2.429-1.23,2.887C45.976,69.975,45.695,70.026,45.42,70.026z"/>
		</g>
	</g>
</g>
</svg>
