<?xml version="1.0" encoding="utf-8"?>
<!-- Generator: Adobe Illustrator 16.0.0, SVG Export Plug-In . SVG Version: 6.00 Build 0)  -->
<!DOCTYPE svg PUBLIC "-//W3C//DTD SVG 1.1//EN" "http://www.w3.org/Graphics/SVG/1.1/DTD/svg11.dtd">
<svg version="1.1" id="Layer_1" xmlns="http://www.w3.org/2000/svg" xmlns:xlink="http://www.w3.org/1999/xlink" x="0px" y="0px"
	 width="91px" height="91px" viewBox="0 0 91 91" enable-background="new 0 0 91 91" xml:space="preserve">
<g>
	<g>
		<g>
			<path fill="#F69B77" d="M45.645,50.27c-1.362,4.052-5.188,6.981-9.694,6.981c-5.354,0-9.752-4.132-10.191-9.371h-6.901
				c-0.477,0-0.861-0.387-0.861-0.861c0-0.477,0.385-0.86,0.861-0.86h6.901c0.439-5.242,4.838-9.372,10.191-9.372
				c4.506,0,8.332,2.928,9.694,6.98c4.496-6.735,21.344-15.082,40.541-15.668C78.801,21.3,62.982,8.734,46.967,8.734
				c-28.441,0-43.786,19.724-43.786,38.284c0,20.567,19.539,36.077,45.451,36.077c16.632,0,30.217-10.16,37.605-17.16
				C67.018,65.36,50.145,57.009,45.645,50.27z"/>
			<path fill="#F3DBD2" d="M35.951,38.509c-4.694,0-8.512,3.817-8.512,8.51c0,4.69,3.818,8.508,8.512,8.508
				c4.692,0,8.51-3.817,8.51-8.508C44.46,42.326,40.643,38.509,35.951,38.509z"/>
		</g>
		<g>
			<path fill="#434B56" d="M48.902,86.282c-27.729,0-48.638-16.88-48.638-39.264c0-20.104,16.462-41.473,46.972-41.473
				c18.39,0,36.177,15.178,42.971,21.703c0.927,0.89,0.955,2.361,0.065,3.289c-0.889,0.925-2.361,0.955-3.288,0.066
				c-6.387-6.135-23.049-20.405-39.748-20.405c-27.489,0-42.322,18.971-42.322,36.82c0,19.732,18.911,34.611,43.988,34.611
				c17.28,0,31.256-11.383,38.05-18.168c0.909-0.907,2.382-0.907,3.289,0.002c0.907,0.907,0.907,2.382-0.002,3.289
				C82.938,74.047,67.857,86.282,48.902,86.282z"/>
			<g>
				<path fill="#FFFFFF" d="M45.59,47.019c0,5.176-4.196,9.369-9.37,9.369c-5.179,0-9.375-4.193-9.375-9.369
					c0-5.179,4.196-9.371,9.375-9.371C41.395,37.647,45.59,41.839,45.59,47.019z"/>
				<path fill="#434B56" d="M36.22,58.715c-6.452,0-11.7-5.247-11.7-11.696c0-6.451,5.248-11.696,11.7-11.696
					c6.45,0,11.697,5.245,11.697,11.696C47.917,53.468,42.67,58.715,36.22,58.715z M36.22,39.973c-3.887,0-7.049,3.161-7.049,7.046
					c0,3.884,3.163,7.044,7.049,7.044c3.884,0,7.045-3.16,7.045-7.044C43.265,43.133,40.104,39.973,36.22,39.973z"/>
			</g>
			<path fill="#434B56" d="M88.597,67.434c-14.865,0-26.121-4.382-31.507-6.994c-8.656-4.2-13.825-9.217-13.825-13.421
				c0-4.206,5.168-9.223,13.825-13.423c5.386-2.614,16.642-6.996,31.507-6.996c1.284,0,2.325,1.042,2.325,2.326
				c0,1.286-1.041,2.327-2.325,2.327c-23.802,0-40.68,11.955-40.68,15.766c0,3.81,16.878,15.763,40.68,15.763
				c1.284,0,2.325,1.041,2.325,2.325C90.922,66.393,89.881,67.434,88.597,67.434z"/>
			<path fill="#434B56" d="M26.846,49.344h-7.719c-1.284,0-2.325-1.041-2.325-2.325c0-1.286,1.042-2.327,2.325-2.327h7.719
				c1.284,0,2.325,1.042,2.325,2.327C29.171,48.303,28.129,49.344,26.846,49.344z"/>
			<path fill="#434B56" d="M38.326,31.252c-0.26,0-0.524-0.044-0.782-0.136c-1.21-0.433-1.84-1.765-1.407-2.972l3.188-8.925
				c0.433-1.209,1.765-1.84,2.974-1.408c1.209,0.433,1.839,1.764,1.407,2.974l-3.188,8.922
				C40.177,30.66,39.281,31.252,38.326,31.252z"/>
			<path fill="#434B56" d="M52.365,31.252c-0.351,0-0.705-0.08-1.039-0.247c-1.147-0.575-1.614-1.973-1.04-3.12l4.467-8.925
				c0.574-1.147,1.969-1.614,3.12-1.04c1.149,0.575,1.614,1.973,1.039,3.123l-4.466,8.923C54.04,30.782,53.219,31.252,52.365,31.252
				z"/>
			<path fill="#434B56" d="M44.711,75.257c-0.675,0-1.344-0.293-1.804-0.857l-6.383-7.823c-0.812-0.993-0.664-2.459,0.332-3.271
				c0.995-0.813,2.461-0.665,3.272,0.33l6.383,7.823c0.813,0.996,0.662,2.462-0.333,3.272
				C45.749,75.084,45.228,75.257,44.711,75.257z"/>
			<path fill="#434B56" d="M61.3,75.257c-0.545,0-1.09-0.19-1.532-0.577l-8.933-7.823c-0.967-0.847-1.063-2.315-0.218-3.282
				c0.847-0.966,2.317-1.062,3.282-0.217l8.933,7.823c0.968,0.846,1.063,2.315,0.219,3.281C62.59,74.988,61.947,75.257,61.3,75.257z
				"/>
		</g>
	</g>
</g>
</svg>
