<?xml version="1.0" encoding="utf-8"?>
<!-- Generator: Adobe Illustrator 16.0.0, SVG Export Plug-In . SVG Version: 6.00 Build 0)  -->
<!DOCTYPE svg PUBLIC "-//W3C//DTD SVG 1.1//EN" "http://www.w3.org/Graphics/SVG/1.1/DTD/svg11.dtd">
<svg version="1.1" id="Layer_1" xmlns="http://www.w3.org/2000/svg" xmlns:xlink="http://www.w3.org/1999/xlink" x="0px" y="0px"
	 width="91px" height="91px" viewBox="0 0 91 91" enable-background="new 0 0 91 91" xml:space="preserve">
<g>
	<g>
		<g>
			<g>
				<path fill="#DEB198" d="M4.996,41.527c-3.004-3.61-2.354-9.103,8.28-17.958c10.632-8.853,16.153-8.495,19.157-4.888
					c3.006,3.609,2.354,9.105-8.278,17.957C13.522,45.489,8,45.135,4.996,41.527z"/>
				<path fill="#434B56" d="M10.051,46.203c-2.708,0-5.065-1.11-6.815-3.21c-4.58-5.504-1.695-12.631,8.575-21.183
					c6.308-5.253,11.399-7.807,15.565-7.807c2.709,0,5.066,1.111,6.816,3.211c2.197,2.638,2.666,5.852,1.355,9.293
					c-1.359,3.569-4.607,7.459-9.928,11.889C19.311,43.65,14.218,46.203,10.051,46.203z M27.376,18.583
					c-2.068,0-5.939,1.17-12.635,6.746C6.805,31.937,4.118,36.894,6.755,40.063c0.888,1.066,1.935,1.563,3.296,1.563
					c2.069,0,5.941-1.171,12.638-6.749c4.635-3.858,7.521-7.224,8.579-10c0.727-1.907,0.543-3.367-0.594-4.731
					C29.786,19.08,28.738,18.583,27.376,18.583z"/>
			</g>
			<g>
				<path fill="#DEB198" d="M23.045,80.068c-0.158-4.694,3.728-8.634,17.558-9.095c13.828-0.466,17.97,3.206,18.128,7.896
					c0.155,4.694-3.732,8.633-17.557,9.096C27.345,88.432,23.202,84.758,23.045,80.068z"/>
				<path fill="#434B56" d="M38.875,90.294c-11.796,0-17.893-3.415-18.118-10.148c-0.116-3.432,1.486-6.257,4.632-8.169
					c3.264-1.984,8.216-3.061,15.137-3.29c0.82-0.027,1.611-0.042,2.366-0.042c11.801,0,17.9,3.415,18.125,10.147
					c0.115,3.432-1.486,6.256-4.633,8.168c-3.265,1.984-8.215,3.062-15.134,3.293C40.427,90.28,39.635,90.294,38.875,90.294z
					 M42.892,73.223c-0.706,0-1.445,0.014-2.212,0.039c-6.03,0.2-10.374,1.085-12.912,2.629c-1.744,1.059-2.494,2.324-2.435,4.102
					c0.127,3.798,4.684,5.724,13.542,5.724c0.71,0,1.451-0.014,2.22-0.039c6.028-0.201,10.371-1.086,12.911-2.629
					c1.742-1.06,2.493-2.325,2.435-4.102C56.313,75.148,51.755,73.223,42.892,73.223z"/>
			</g>
			<g>
				<path fill="#F9BA8F" d="M61.212,80.508c-3.907-2.606-4.846-8.057,2.829-19.571c7.676-11.514,13.071-12.738,16.977-10.139
					c3.908,2.609,4.847,8.059-2.829,19.57C70.512,81.881,65.118,83.111,61.212,80.508z"/>
				<path fill="#434B56" d="M64.799,83.941c-1.702,0-3.336-0.515-4.858-1.529c-5.956-3.973-5.217-11.626,2.196-22.745
					c5.519-8.277,10.521-12.301,15.295-12.301c1.699,0,3.334,0.513,4.854,1.526c5.958,3.979,5.219,11.63-2.189,22.745
					C74.573,79.917,69.569,83.941,64.799,83.941z M77.432,51.944c-2.119,0-5.832,1.78-11.483,10.262
					c-5.729,8.593-6.895,14.11-3.467,16.396c0.768,0.511,1.524,0.76,2.317,0.76c2.117,0,5.827-1.78,11.485-10.265
					c5.728-8.589,6.891-14.105,3.462-16.396C78.981,52.192,78.225,51.944,77.432,51.944z"/>
			</g>
			<g>
				<path fill="#DEB198" d="M81.339,49.196c-4.682,0.356-8.78-3.356-9.835-17.155c-1.053-13.796,2.44-18.087,7.118-18.448
					c4.685-0.353,8.783,3.358,9.834,17.154C89.511,44.544,86.021,48.84,81.339,49.196z"/>
				<path fill="#434B56" d="M80.748,51.509c-6.672,0-10.55-6.491-11.525-19.293c-1.018-13.322,2.086-20.354,9.225-20.906
					c7.115-0.544,11.28,5.979,12.292,19.263c0.528,6.905-0.002,11.944-1.614,15.407c-1.558,3.337-4.189,5.239-7.612,5.5
					C81.257,51.499,81,51.509,80.748,51.509z M79.212,15.86c-0.138,0-0.278,0.005-0.416,0.016c-4.108,0.317-5.794,5.697-5.01,15.991
					c0.524,6.873,2.159,15.064,6.962,15.064c0.138,0,0.277-0.006,0.418-0.018c1.771-0.134,2.945-1.02,3.809-2.869
					c1.256-2.693,1.658-7.108,1.201-13.124C85.651,24.05,84.019,15.86,79.212,15.86z"/>
			</g>
			<g>
				<path fill="#F9BA8F" d="M6.403,44.855c4.289-1.909,9.396,0.217,15.02,12.858c5.621,12.64,3.772,17.857-0.517,19.767
					c-4.292,1.912-9.4-0.215-15.02-12.86C0.264,51.979,2.111,46.764,6.403,44.855z"/>
				<path fill="#434B56" d="M18.188,80.379c-5.25,0-9.958-4.851-14.393-14.83c-2.813-6.325-4.007-11.248-3.647-15.052
					c0.347-3.665,2.188-6.339,5.325-7.734c1.204-0.536,2.43-0.808,3.646-0.808c5.25,0,9.958,4.85,14.397,14.827
					c5.43,12.211,4.865,19.877-1.678,22.789C20.633,80.107,19.405,80.379,18.188,80.379z M9.118,46.534
					c-0.579,0-1.162,0.135-1.785,0.412c-1.625,0.723-2.436,1.951-2.628,3.982c-0.279,2.958,0.822,7.25,3.273,12.76
					c3.471,7.812,7.097,12.112,10.209,12.112c0.579,0,1.164-0.136,1.788-0.413c3.769-1.676,3.552-7.311-0.644-16.744
					C15.858,50.834,12.231,46.534,9.118,46.534z"/>
			</g>
			<g>
				<path fill="#E5C7B4" d="M33.105,19.647c2.615-1.791,9.794-0.229,9.82-3.452c0.035-4.335-5.134-4.004-7.873-2.983
					c0.206-2.376-0.495-7.563-3.605-5.048c-2.304,1.868-3.562,6.491-2.165,8.408"/>
				<path fill="#434B56" d="M33.107,21.936c-0.73,0-1.447-0.347-1.891-0.996c-0.714-1.043-0.447-2.468,0.596-3.182
					c1.56-1.069,3.705-1.269,5.781-1.463c0.917-0.085,2.37-0.221,3.025-0.456c-0.055-0.441-0.227-0.562-0.317-0.626
					c-0.765-0.535-2.803-0.471-4.449,0.143c-0.736,0.272-1.561,0.152-2.185-0.323c-0.625-0.476-0.962-1.238-0.895-2.02
					c0.084-0.979-0.041-2.043-0.219-2.755c-1.341,1.441-1.872,4.322-1.419,4.964c0.724,1.027,0.495,2.462-0.527,3.194
					c-1.022,0.733-2.432,0.521-3.173-0.496c-2.292-3.142-0.471-9.068,2.572-11.536c2.089-1.69,3.783-1.205,4.607-0.768
					c1.697,0.901,2.366,2.959,2.617,4.733c1.959-0.23,4.089-0.016,5.7,1.113c1.49,1.044,2.303,2.732,2.286,4.749
					c-0.032,3.975-4.344,4.377-7.197,4.643c-1.281,0.119-3.039,0.284-3.619,0.68C34.003,21.807,33.553,21.936,33.107,21.936z"/>
			</g>
			<g>
				<path fill="#E5C7B4" d="M80.497,12.506c1.573-2.212,3.281-4.093,5.462-5.794c-0.768-1.603-2.593-3.278-4.423-3.517
					c-2.51-0.331-2.69,1.007-3.472,3.028c-3.104-2.696-4.536-2.756-8.132-0.307c1.752,2.939,5.151,6.031,5.151,6.031"/>
				<path fill="#434B56" d="M80.495,14.795c-0.459,0-0.922-0.137-1.326-0.424c-1.029-0.733-1.27-2.163-0.536-3.192
					c1.326-1.867,2.696-3.44,4.217-4.834c-0.522-0.473-1.118-0.816-1.611-0.881c-0.187-0.025-0.319-0.028-0.409-0.03
					c-0.115,0.23-0.267,0.643-0.385,0.961c-0.075,0.208-0.156,0.427-0.242,0.651c-0.271,0.696-0.86,1.218-1.586,1.398
					c-0.721,0.18-1.488-0.004-2.052-0.493c-1.554-1.348-2.169-1.818-3.342-1.338c1.273,1.591,2.771,3.067,3.4,3.639
					c0.935,0.852,1.004,2.299,0.154,3.234c-0.852,0.936-2.301,1.003-3.235,0.153c-0.147-0.136-3.671-3.357-5.575-6.553
					c-0.621-1.039-0.323-2.383,0.678-3.064c3.474-2.366,5.791-2.819,8.495-1.299c0.803-1.171,2.159-2.131,4.694-1.799
					c2.854,0.374,5.209,2.75,6.188,4.799c0.466,0.969,0.191,2.132-0.656,2.792c-1.873,1.463-3.462,3.152-5.004,5.317
					C81.915,14.461,81.211,14.795,80.495,14.795z"/>
			</g>
			<path fill="#434B56" d="M23.038,26.706c-0.427,0-0.859-0.119-1.245-0.37l-5.897-3.827c-1.06-0.688-1.362-2.105-0.674-3.166
				c0.688-1.061,2.105-1.362,3.167-0.674l5.897,3.827c1.06,0.688,1.362,2.106,0.674,3.167
				C24.521,26.338,23.787,26.706,23.038,26.706z"/>
			<path fill="#434B56" d="M13.652,30.946c-0.506,0-1.015-0.167-1.439-0.51l-3.205-2.595c-0.982-0.796-1.134-2.238-0.338-3.22
				c0.795-0.984,2.238-1.134,3.22-0.338l3.205,2.595c0.983,0.796,1.134,2.237,0.339,3.22C14.98,30.656,14.319,30.946,13.652,30.946z
				"/>
			<path fill="#434B56" d="M5.889,66.908c-0.693,0-1.378-0.313-1.828-0.908c-0.763-1.008-0.564-2.443,0.444-3.206l4.562-3.451
				c1.009-0.765,2.444-0.565,3.207,0.444c0.763,1.008,0.563,2.444-0.445,3.206l-4.562,3.451C6.854,66.758,6.37,66.908,5.889,66.908z
				"/>
			<path fill="#434B56" d="M12.052,73.223H9.159c-1.264,0-2.29-1.025-2.29-2.289s1.025-2.289,2.29-2.289h2.893
				c1.265,0,2.29,1.025,2.29,2.289S13.316,73.223,12.052,73.223z"/>
			<path fill="#434B56" d="M41.174,90.255c-0.203,0-0.408-0.028-0.613-0.084c-1.219-0.338-1.932-1.6-1.594-2.818l1.752-6.313
				c0.339-1.219,1.603-1.931,2.819-1.595c1.219,0.339,1.932,1.601,1.593,2.818l-1.752,6.313
				C43.099,89.59,42.178,90.255,41.174,90.255z"/>
			<path fill="#434B56" d="M51.621,87.099c-1.012,0-1.937-0.675-2.21-1.696l-0.848-3.156c-0.33-1.221,0.394-2.477,1.616-2.806
				c1.219-0.325,2.477,0.396,2.806,1.617l0.848,3.156c0.327,1.222-0.396,2.478-1.617,2.806
				C52.018,87.072,51.816,87.099,51.621,87.099z"/>
			<path fill="#434B56" d="M79.709,70.27c-0.292,0-0.588-0.057-0.875-0.176l-5.619-2.326c-1.167-0.483-1.724-1.822-1.238-2.991
				c0.483-1.167,1.821-1.722,2.991-1.238l5.618,2.327c1.167,0.482,1.724,1.821,1.238,2.99C81.46,69.737,80.607,70.27,79.709,70.27z"
				/>
			<path fill="#434B56" d="M83.063,63.458c-0.201,0-0.404-0.026-0.609-0.083l-6.159-1.695c-1.22-0.336-1.936-1.597-1.601-2.815
				c0.337-1.22,1.597-1.936,2.815-1.599l6.161,1.695c1.218,0.335,1.934,1.596,1.599,2.815
				C84.988,62.792,84.067,63.458,83.063,63.458z"/>
			<path fill="#434B56" d="M83.064,28.352c-0.775,0-1.532-0.395-1.962-1.106c-0.654-1.082-0.308-2.489,0.775-3.143l3.079-1.863
				c1.08-0.656,2.49-0.31,3.145,0.773c0.654,1.082,0.308,2.49-0.774,3.145l-3.08,1.863C83.877,28.244,83.467,28.352,83.064,28.352z"
				/>
			<path fill="#434B56" d="M83.974,33.685c-1.12,0-2.098-0.82-2.264-1.961c-0.182-1.251,0.687-2.412,1.938-2.593l4.481-0.65
				c1.246-0.186,2.411,0.685,2.595,1.937c0.182,1.252-0.687,2.413-1.938,2.595l-4.48,0.648
				C84.192,33.677,84.082,33.685,83.974,33.685z"/>
		</g>
	</g>
</g>
</svg>
