<?xml version="1.0" encoding="utf-8"?>
<!-- Generator: Adobe Illustrator 16.0.0, SVG Export Plug-In . SVG Version: 6.00 Build 0)  -->
<!DOCTYPE svg PUBLIC "-//W3C//DTD SVG 1.1//EN" "http://www.w3.org/Graphics/SVG/1.1/DTD/svg11.dtd">
<svg version="1.1" id="Layer_1" xmlns="http://www.w3.org/2000/svg" xmlns:xlink="http://www.w3.org/1999/xlink" x="0px" y="0px"
	 width="91px" height="91px" viewBox="0 0 91 91" enable-background="new 0 0 91 91" xml:space="preserve">
<g>
	<g>
		<g>
			<path fill="#86A1BA" d="M46.199,50.972c-2.437,2.214-5.088,2.951-7.532,2.951c-3.123,0-5.888-1.192-7.477-2.046
				c0.766,7.294,6.949,12.999,14.445,12.999c7.895,0,14.325-6.335,14.506-14.189C58.907,49.527,53.056,44.751,46.199,50.972z"/>
			<path fill="#F16A6D" d="M45.635,35.825c-7.862,0-14.273,6.282-14.505,14.092c1.63,1.045,8.394,4.845,13.94-0.189
				c6.442-5.846,12.258-3.159,14.953-1.262C59.094,41.345,53.003,35.825,45.635,35.825z"/>
			<path fill="#E4E4E6" d="M67.048,11.425c-2.124,3.719-11.851,5.708-21.075,5.708c-9.279,0-19.057-2.017-21.105-5.775
				c-1.961,1.442-3.132,4.379-3.132,7.947v53.282c0,3.165,0,7.501,3.4,8.949c0.104,0.043,0.194,0.105,0.273,0.185
				c0.034,0.033,0.049,0.074,0.076,0.114c0.036,0.051,0.077,0.098,0.103,0.153c0.036,0.094,0.054,0.194,0.058,0.294
				c0,0.01,0.004,0.017,0.004,0.026c0,2.628,8.776,5.568,20.518,5.568c11.744,0,20.518-2.94,20.518-5.568
				c0-0.017,0.009-0.03,0.011-0.045c0.004-0.06,0.018-0.112,0.033-0.172c0.014-0.051,0.023-0.1,0.046-0.146
				c0.023-0.045,0.055-0.084,0.087-0.125c0.033-0.05,0.067-0.097,0.112-0.136c0.012-0.012,0.019-0.026,0.032-0.038
				c2.089-1.646,3.039-5.851,3.039-9.061V19.305C70.044,16.51,69.495,12.944,67.048,11.425z M61.837,50.375
				c-0.013,8.924-7.276,16.181-16.202,16.181c-8.936,0-16.207-7.271-16.207-16.206c0-8.934,7.271-16.204,16.207-16.204
				c8.933,0,16.202,7.27,16.202,16.204C61.837,50.359,61.837,50.367,61.837,50.375z"/>
			<path fill="#ADADAD" d="M45.973,15.452c11.689,0,19.834-2.933,19.834-5.567c0-0.172,0.064-0.325,0.154-0.458
				c-0.09-0.133-0.154-0.285-0.154-0.458c0-2.631-8.145-5.566-19.834-5.566c-11.688,0-19.835,2.935-19.835,5.566
				c0,0.172-0.063,0.324-0.154,0.458c0.09,0.133,0.154,0.285,0.154,0.458C26.138,12.519,34.284,15.452,45.973,15.452z"/>
		</g>
		<g>
			<path fill="#434B56" d="M67.782,84.578c-0.673,0-1.337-0.297-1.784-0.866c-0.773-0.98-0.605-2.409,0.377-3.184
				c1.422-1.121,2.496-4.537,2.496-7.941V19.305c0-2.053-0.324-5.663-2.498-6.799c-1.107-0.581-1.538-1.951-0.958-3.061
				c0.581-1.109,1.949-1.541,3.062-0.958c3.224,1.687,4.93,5.426,4.93,10.818v53.282c0,3.77-1.106,9.045-4.224,11.503
				C68.769,84.418,68.271,84.578,67.782,84.578z"/>
			<path fill="#434B56" d="M25.064,84.578c-0.297,0-0.596-0.059-0.884-0.182c-5.296-2.247-5.296-8.235-5.296-11.81V19.305
				c0-4.81,1.722-8.709,4.725-10.7c1.045-0.693,2.452-0.406,3.143,0.637c0.692,1.044,0.406,2.452-0.636,3.144
				c-1.69,1.117-2.697,3.705-2.697,6.919v53.282c0,3.588,0.191,6.641,2.533,7.635c1.154,0.489,1.691,1.821,1.201,2.975
				C26.785,84.059,25.947,84.578,25.064,84.578z"/>
			<path fill="#434B56" d="M46.422,90.983c-8.773,0-23.625-1.826-23.625-8.675c0-1.252,1.016-2.267,2.268-2.267
				c1.253,0,2.269,1.015,2.269,2.267c0.416,1.127,6.723,4.14,19.088,4.14c12.366,0,18.673-3.013,19.101-4.211
				c0-1.252,1.009-2.231,2.262-2.231c1.254,0,2.264,1.051,2.264,2.303C70.048,89.157,55.197,90.983,46.422,90.983z"/>
			<path fill="#434B56" d="M46.376,81.98c-5.701,0-12.237-1.433-17.058-3.739c-1.129-0.54-1.606-1.896-1.064-3.025
				c0.541-1.13,1.894-1.605,3.022-1.066c4.183,2.003,10.11,3.298,15.1,3.298c4.857,0,10.595-1.259,14.614-3.203
				c1.129-0.546,2.483-0.075,3.032,1.052c0.543,1.127,0.071,2.485-1.054,3.029C58.307,80.581,51.951,81.98,46.376,81.98z"/>
			<path fill="#434B56" d="M25.55,11.263c-1.251,0-2.265-1.041-2.265-2.293c0-5.959,11.895-8.674,22.943-8.674
				c11.05,0,22.942,2.714,22.942,8.674c0,1.252-1.015,2.268-2.268,2.268c-1.24,0-2.247-0.999-2.267-2.234
				c-0.419-1.166-6.631-4.172-18.408-4.172c-11.835,0-18.05,3.036-18.412,4.19C27.816,10.273,26.803,11.263,25.55,11.263z"/>
			<path fill="#434B56" d="M46.229,18.561c-11.049,0-22.943-2.714-22.943-8.676c0-1.252,1.016-2.268,2.269-2.268
				c1.252,0,2.268,1.016,2.268,2.268c0.356,1.103,6.569,4.142,18.406,4.142c11.838,0,18.05-3.039,18.414-4.193
				c0-1.251,1.013-2.242,2.265-2.242c1.251,0,2.264,1.042,2.264,2.293C69.171,15.847,57.278,18.561,46.229,18.561z"/>
			<path fill="#434B56" d="M46.229,27.151c-7.261,0-14.454-1.324-19.733-3.632c-1.148-0.502-1.671-1.838-1.17-2.986
				c0.502-1.148,1.84-1.67,2.987-1.169c4.728,2.067,11.258,3.253,17.917,3.253c8.352,0,13.551-0.917,17.377-3.068
				c1.093-0.611,2.475-0.224,3.087,0.867c0.613,1.091,0.226,2.475-0.866,3.088C61.274,26.059,55.414,27.151,46.229,27.151z"/>
			<path fill="#FFFFFF" d="M38.854,55.349c-3.979,0-7.634-1.695-9.659-3.161c-1.014-0.734-1.242-2.153-0.508-3.166
				s2.145-1.244,3.161-0.513c0.289,0.207,7.174,5.013,12.519,0.163c7.864-7.137,15.569-3.039,18.54,0.126
				c0.859,0.91,0.815,2.347-0.099,3.204c-0.911,0.858-2.347,0.813-3.204-0.098c-0.568-0.591-5.8-5.672-12.189,0.125
				C44.717,54.479,41.702,55.349,38.854,55.349z"/>
			<path fill="#434B56" d="M45.891,67.983c-9.722,0-17.633-7.91-17.633-17.634c0-9.72,7.911-17.631,17.633-17.631
				c9.721,0,17.632,7.911,17.632,17.631C63.522,60.073,55.611,67.983,45.891,67.983z M45.891,37.253
				c-7.223,0-13.1,5.876-13.1,13.097c0,7.223,5.876,13.1,13.1,13.1c7.222,0,13.095-5.877,13.095-13.1
				C58.985,43.129,53.112,37.253,45.891,37.253z"/>
		</g>
	</g>
</g>
</svg>
