<?xml version="1.0" encoding="utf-8"?>
<!-- Generator: Adobe Illustrator 16.0.0, SVG Export Plug-In . SVG Version: 6.00 Build 0)  -->
<!DOCTYPE svg PUBLIC "-//W3C//DTD SVG 1.1//EN" "http://www.w3.org/Graphics/SVG/1.1/DTD/svg11.dtd">
<svg version="1.1" id="Layer_1" xmlns="http://www.w3.org/2000/svg" xmlns:xlink="http://www.w3.org/1999/xlink" x="0px" y="0px"
	 width="91px" height="91px" viewBox="0 0 91 91" enable-background="new 0 0 91 91" xml:space="preserve">
<g>
	<g>
		<g>
			<path fill="#DEB198" d="M65.367,66.96C44.306,86.49,18.372,92.755,7.443,80.966c-10.929-11.79-2.719-37.173,18.345-56.703
				C46.85,4.735,72.787-1.534,83.716,10.255C94.646,22.044,86.43,47.432,65.367,66.96z"/>
			<path fill="#434B56" d="M23.125,89.218c-7.307,0-13.312-2.312-17.368-6.689C-6.218,69.613,1.894,43.277,24.225,22.575
				C38.118,9.694,54.495,2.003,68.036,2.003c7.305,0,13.312,2.312,17.366,6.687c5.878,6.34,7.059,16.185,3.326,27.724
				C85.143,47.491,77.401,58.939,66.93,68.647C53.039,81.529,36.664,89.218,23.125,89.218z M68.036,6.605
				c-12.225,0-27.814,7.412-40.683,19.343C7.255,44.583-0.918,68.561,9.131,79.401c3.162,3.413,8.002,5.216,13.994,5.216
				c12.223,0,27.81-7.412,40.677-19.343c9.905-9.184,17.201-19.936,20.549-30.277c3.197-9.882,2.372-18.115-2.323-23.18
				C78.865,8.408,74.026,6.605,68.036,6.605z"/>
		</g>
		<g>
			<path fill="#B08C7E" d="M14.136,53.626c0,0,16.904-4.466,31.443,3.285c0,0,5.647,4.222,7.993,0
				c0.861-1.552-2.815-4.847-2.815-4.847s-7.043-8.836-29.579-6.455"/>
			<path fill="#434B56" d="M50.474,61.088c-2.774,0-5.392-1.706-6.113-2.217c-13.506-7.117-29.479-3.062-29.64-3.021
				c-1.232,0.321-2.486-0.412-2.81-1.641c-0.323-1.228,0.41-2.484,1.637-2.809c0.727-0.19,17.951-4.603,33.113,3.48
				c0.103,0.054,0.202,0.117,0.296,0.187c0.936,0.689,2.821,1.612,3.846,1.385c0.149-0.031,0.311-0.091,0.479-0.266
				c-0.339-0.608-1.22-1.652-2.063-2.411c-0.093-0.085-0.182-0.178-0.261-0.277c-0.049-0.058-6.806-7.789-27.539-5.601
				c-1.252,0.134-2.397-0.783-2.53-2.047c-0.132-1.264,0.783-2.398,2.047-2.531c22.028-2.328,30.25,5.766,31.466,7.131
				c1.888,1.714,4.677,4.882,3.183,7.576c-0.871,1.565-2.193,2.578-3.823,2.927C51.333,61.046,50.901,61.088,50.474,61.088z"/>
		</g>
		<g>
			<path fill="#B08C7E" d="M28.331,36.105c0,0,16.904-4.464,31.443,3.285c0,0,5.648,4.224,7.997,0
				c0.859-1.551-2.819-4.846-2.819-4.846s-7.042-8.836-29.58-6.455"/>
			<path fill="#434B56" d="M64.67,43.565c-2.774,0-5.392-1.706-6.114-2.217c-13.509-7.115-29.479-3.059-29.639-3.018
				c-1.232,0.321-2.486-0.412-2.809-1.638c-0.323-1.229,0.408-2.487,1.636-2.81c0.728-0.192,17.951-4.603,33.112,3.477
				c0.104,0.056,0.202,0.117,0.297,0.188c0.936,0.688,2.808,1.61,3.848,1.385c0.148-0.032,0.31-0.093,0.476-0.266
				c-0.339-0.608-1.22-1.654-2.063-2.411c-0.093-0.085-0.182-0.181-0.261-0.279c-0.048-0.056-6.807-7.789-27.539-5.6
				c-1.256,0.137-2.396-0.782-2.53-2.046c-0.133-1.264,0.783-2.396,2.046-2.53c22.03-2.33,30.253,5.766,31.467,7.129
				c1.887,1.713,4.679,4.884,3.185,7.577c-0.87,1.567-2.191,2.578-3.821,2.928C65.529,43.525,65.098,43.565,64.67,43.565z"/>
		</g>
		<g>
			<path fill="#B08C7E" d="M46.166,20.631c0,0,13.001-3.913,24.182,2.877c0,0,4.341,3.699,6.147,0
				c0.662-1.359-2.169-4.246-2.169-4.246S67.9,9.657,50.261,16.324"/>
			<path fill="#434B56" d="M74.099,27.453c-2.311,0-4.387-1.499-5.084-2.061c-10.103-6.037-22.068-2.591-22.188-2.556
				c-1.215,0.361-2.499-0.331-2.861-1.547c-0.365-1.215,0.323-2.495,1.54-2.861c0.153-0.045,1.234-0.363,2.961-0.662
				c-0.146-0.184-0.27-0.396-0.356-0.628c-0.449-1.188,0.149-2.516,1.338-2.965c17.905-6.766,25.495,2.072,26.645,3.605
				c1.481,1.542,3.634,4.354,2.473,6.739c-0.951,1.947-2.397,2.615-3.443,2.833C74.778,27.421,74.436,27.453,74.099,27.453z
				 M55.076,17.198c4.823,0,10.825,0.919,16.466,4.345c0.104,0.063,0.205,0.135,0.298,0.214c0.824,0.689,2.003,1.19,2.342,1.089
				c-0.268-0.515-0.899-1.359-1.499-1.977c-0.101-0.099-0.191-0.212-0.269-0.327c-0.196-0.279-4.836-6.616-17.361-3.344
				C55.061,17.198,55.068,17.198,55.076,17.198z"/>
		</g>
		<path fill="#434B56" d="M10.381,84.093c-0.138,0-0.281-0.014-0.422-0.04c-1.25-0.231-2.074-1.432-1.842-2.683
			c0.057-0.308,0.099-0.842,0.142-1.411c0.21-2.695,0.527-6.77,3.604-8.961c1.036-0.737,2.473-0.496,3.209,0.538
			c0.737,1.037,0.496,2.473-0.541,3.21c-1.326,0.943-1.542,3.728-1.685,5.569c-0.057,0.724-0.104,1.348-0.208,1.896
			C12.436,83.318,11.469,84.093,10.381,84.093z"/>
		<path fill="#434B56" d="M22.121,87.144c-0.836,0-1.643-0.458-2.051-1.252c-1.466-2.867-2.037-7.61-0.45-10.58
			c0.598-1.121,1.993-1.545,3.112-0.947c1.122,0.599,1.546,1.991,0.947,3.112c-0.777,1.454-0.369,4.646,0.487,6.318
			c0.579,1.132,0.131,2.519-1,3.098C22.833,87.063,22.474,87.144,22.121,87.144z"/>
		<path fill="#434B56" d="M37.144,84.093c-0.704,0-1.399-0.323-1.849-0.932c-0.802-1.08-1.341-2.242-1.864-3.368
			c-0.218-0.474-0.436-0.943-0.671-1.391c-0.593-1.125-0.159-2.517,0.964-3.108c1.126-0.593,2.516-0.158,3.109,0.967
			c0.27,0.513,0.521,1.054,0.772,1.597c0.444,0.957,0.864,1.86,1.385,2.564c0.757,1.02,0.543,2.46-0.478,3.217
			C38.1,83.943,37.621,84.093,37.144,84.093z"/>
	</g>
</g>
</svg>
