<?xml version="1.0" encoding="utf-8"?>
<!-- Generator: Adobe Illustrator 16.0.0, SVG Export Plug-In . SVG Version: 6.00 Build 0)  -->
<!DOCTYPE svg PUBLIC "-//W3C//DTD SVG 1.1//EN" "http://www.w3.org/Graphics/SVG/1.1/DTD/svg11.dtd">
<svg version="1.1" id="Layer_1" xmlns="http://www.w3.org/2000/svg" xmlns:xlink="http://www.w3.org/1999/xlink" x="0px" y="0px"
	 width="91px" height="91px" viewBox="0 0 91 91" enable-background="new 0 0 91 91" xml:space="preserve">
<g>
	<g>
		<g>
			<g>
				<path fill="#F16A6D" d="M11.712,26.222c-16.209,24.682-9.275,54.303,7.24,58.604c16.516,4.299,21.945-12.219,23.078-16.064
					c1.133-3.848,3.621-8.826,9.279-8.602c5.654,0.229,40.951,4.98,36.879-27.829C84.116-0.473,31.624-4.096,11.712,26.222z"/>
				<path fill="#434B56" d="M24.163,87.803c-1.844,0-3.789-0.264-5.781-0.781c-6.793-1.77-12.27-7.252-15.42-15.438
					C-1.282,60.561-1.71,42.529,9.817,24.978C18.64,11.542,34.858,3.197,52.144,3.197c17.279,0,35.822,8.922,38.295,28.855
					c1.15,9.266-0.604,16.61-5.215,21.829c-5.227,5.914-13.9,8.912-25.779,8.912h-0.002c-2.797,0-5.205-0.166-6.799-0.277
					c-0.586-0.041-1.068-0.074-1.426-0.088c-3.225-0.143-5.609,2.207-7.012,6.975C42.575,74.936,37.358,87.803,24.163,87.803z
					 M52.144,7.734c-15.775,0-30.541,7.561-38.535,19.734C4.888,40.746,2.37,57.422,7.194,69.953
					c2.613,6.785,6.99,11.287,12.33,12.678c1.619,0.422,3.18,0.635,4.639,0.635c9.77,0,14.025-9.488,15.693-15.145
					c1.939-6.6,5.877-10.236,11.086-10.236c0.15,0,0.303,0.004,0.457,0.01c0.391,0.016,0.918,0.051,1.559,0.096
					c1.531,0.107,3.844,0.268,6.484,0.268c10.523,0,18.055-2.484,22.381-7.381c3.713-4.201,5.098-10.348,4.115-18.266
					C83.804,15.425,67.427,7.734,52.144,7.734z"/>
			</g>
			<path fill="#FFFFFF" d="M22.573,80.531L22.573,80.531c-0.129,0-0.258-0.012-0.385-0.033C16.935,79.594,12.991,77,10.47,72.787
				c-6.801-11.363-0.502-30.629-0.23-31.444c0.02-0.059,0.043-0.117,0.068-0.176c1.469-3.428,4.65-5.316,8.961-5.316
				c10.031,0,25.027,9.956,27.238,16.45c0.734,2.152,0.221,4.105-1.404,5.359c-0.197,0.15-0.416,0.27-0.65,0.35
				c-1.33,0.459-3.826,1.615-4.848,2.764c-1.146,1.289-2.189,3.635-2.596,4.686C35.472,77.373,26.917,80.531,22.573,80.531z
				 M14.515,42.867c-0.443,1.389-5.676,18.373-0.15,27.596c1.803,3.01,4.545,4.818,8.377,5.527c1.455-0.07,8.566-0.951,9.797-11.344
				c0.021-0.172,0.061-0.342,0.121-0.506c0.148-0.41,1.514-4.086,3.557-6.383c1.705-1.914,4.678-3.236,6.063-3.779
				c-0.092-0.406-0.492-1.33-1.73-2.725c-4.461-5.025-14.727-10.866-21.279-10.866C16.046,40.388,15.003,41.777,14.515,42.867z"/>
			<path fill="#FFFFFF" d="M65.071,56.416c0,0,0,0-0.002,0c-5.375-0.002-10.566-3.232-13.887-8.643
				c-3.512-5.733-20.279-11.213-22.365-11.616c0.15,0.029,0.262,0.027,0.316,0.025c-1.383,0-5.557-1.898-7.248-5.023
				c-1.264-2.336-1.051-5.012,0.598-7.535c4.115-6.289,15.688-10.891,16.65-11.266c0.574-0.246,3.826-1.529,9.182-1.529
				c7.119,0,14.729,2.148,22.619,6.383c10.205,5.477,12.721,12.314,13.031,17.086c0.549,8.369-5.08,15.524-10.066,19.108
				C71.122,55.402,68.151,56.416,65.071,56.416z M29.134,31.648c1.375,0,21.082,5.863,25.916,13.756
				c2.488,4.053,6.234,6.475,10.021,6.475l0,0c2.111,0,4.189-0.725,6.182-2.156c4.043-2.906,8.613-8.614,8.188-15.129
				c-0.34-5.199-4.023-9.828-10.652-13.385c-8.996-4.828-16.098-5.842-20.473-5.842c-4.717,0-7.361,1.146-7.387,1.158
				c-0.035,0.016-0.084,0.037-0.119,0.049c-3.084,1.189-11.707,5.221-14.531,9.533c-0.871,1.334-0.723,2.127-0.537,2.607
				c0.643,1.65,3.17,2.82,3.758,2.969C29.493,31.683,29.353,31.648,29.134,31.648z"/>
			<ellipse fill="#FFFFFF" cx="66.468" cy="36.292" rx="5.883" ry="4.639"/>
		</g>
	</g>
</g>
</svg>
