<?xml version="1.0" encoding="utf-8"?>
<!-- Generator: Adobe Illustrator 16.0.0, SVG Export Plug-In . SVG Version: 6.00 Build 0)  -->
<!DOCTYPE svg PUBLIC "-//W3C//DTD SVG 1.1//EN" "http://www.w3.org/Graphics/SVG/1.1/DTD/svg11.dtd">
<svg version="1.1" id="Layer_1" xmlns="http://www.w3.org/2000/svg" xmlns:xlink="http://www.w3.org/1999/xlink" x="0px" y="0px"
	 width="91px" height="91px" viewBox="0 0 91 91" enable-background="new 0 0 91 91" xml:space="preserve">
<g>
	<g>
		<path fill="#F16A6D" d="M78.132,47.23c0,17.811-23.501,41.125-32.095,41.125c-7.221,0-32.095-23.343-32.095-41.125
			c0-5.254,1.283-9.664,3.814-13.109c0.071-0.098,0.113-0.207,0.137-0.316c3.238-1.121,7.383-1.963,11.562-0.685
			c3.476,1.068,3.558,8.758,3.598,12.454l0.013,0.939c0.004,0.272,0.145,0.523,0.372,0.668c0.134,0.084,0.284,0.128,0.437,0.128
			c0.111,0,0.222-0.022,0.327-0.069c2.695-1.192,5.247-5.426,7.298-8.828c0.846-1.405,1.899-3.152,2.272-3.385
			c1.568-0.745,4.824,2.029,7.699,4.478c2.675,2.276,5.438,4.628,7.814,5.202c0.236,0.057,0.479,0.006,0.671-0.137
			c0.193-0.141,0.313-0.363,0.325-0.602c0.243-4.158,0.148-7.919-0.274-11.197c2.277,0.372,5.324,1.271,8.524,2.219
			c2.545,0.75,5.142,1.516,7.484,2.054C77.398,39.943,78.132,43.347,78.132,47.23z"/>
	</g>
	<g>
		<g>
			<path fill="#ACD263" d="M47.113,17.634c-0.683-0.871,10.968-2.794,26.649,1.076l-7.085,3.455
				c5.543,2.77,10.636,7.236,13.338,14.396c-5.748-0.495-15.915-4.6-20.96-5.079c0.6,3.825,0.652,8.062,0.419,12.09
				c-4.957-1.196-12.396-11.353-16.049-9.625c-1.452,0.687-5.615,10.465-9.551,12.205c-0.07-3.919,0.177-12.814-4.183-14.153
				c-9.677-2.966-18.788,4.776-18.709,2.841l7.951-6.888c2.11-2.014,0.557-3.949-4.726-4.726c3.286-1.156,11.56-4.979,15.269-5.591
				c3.796-0.628,6.541,1.01,15.021,0"/>
			<path fill="#434B56" d="M33.875,48.334c-0.412,0-0.82-0.114-1.175-0.342c-0.617-0.396-0.995-1.07-1.008-1.802l-0.013-0.95
				c-0.03-2.84-0.113-10.382-2.627-11.155c-5.625-1.723-11.142,0.72-14.439,2.18c-2.155,0.951-3.454,1.527-4.756,0.643
				c-0.697-0.476-1.092-1.281-1.055-2.157c0.024-0.604,0.295-1.168,0.75-1.563l7.865-6.812c-0.508-0.288-1.582-0.705-3.526-0.991
				c-0.995-0.146-1.76-0.951-1.856-1.95c-0.096-1,0.502-1.937,1.448-2.27c0.985-0.346,2.473-0.959,4.197-1.668
				c4.058-1.668,8.658-3.558,11.441-4.017c1.894-0.314,3.498-0.154,5.354,0.03c2.279,0.226,5.117,0.51,9.766-0.045
				c0.543-0.064,1.07,0.077,1.491,0.367c2.964-2.234,15.831-2.385,28.555,0.758c0.893,0.22,1.551,0.976,1.647,1.89
				c0.098,0.914-0.388,1.791-1.215,2.193l-3.402,1.659c5.032,3.364,8.638,7.875,10.744,13.457c0.265,0.702,0.15,1.489-0.303,2.087
				c-0.452,0.598-1.176,0.923-1.928,0.859c-3.222-0.278-7.526-1.549-11.688-2.777c-2.281-0.673-4.611-1.362-6.567-1.817
				c0.254,2.889,0.28,6.089,0.081,9.555c-0.038,0.647-0.361,1.243-0.88,1.628c-0.521,0.386-1.185,0.521-1.813,0.369
				c-2.694-0.65-5.457-3.001-8.383-5.491c-1.732-1.474-4.888-4.162-6.094-4.272c-0.427,0.553-1.215,1.854-1.809,2.841
				c-2.151,3.569-4.827,8.012-7.921,9.377C34.474,48.274,34.173,48.334,33.875,48.334z M25.002,29.126
				c1.719,0,3.507,0.226,5.33,0.784c4.261,1.309,5.314,6.593,5.598,11.277c1.117-1.532,2.202-3.336,3.007-4.669
				c1.717-2.851,2.458-4.028,3.554-4.547c3.315-1.566,7.009,1.576,10.921,4.906c1.311,1.115,2.721,2.317,4.004,3.216
				c0.039-3.058-0.134-5.832-0.518-8.274c-0.104-0.667,0.105-1.345,0.568-1.835c0.46-0.491,1.128-0.745,1.796-0.677
				c2.621,0.25,6.262,1.324,10.117,2.461c2.335,0.69,4.718,1.394,6.851,1.905c-2.367-4.036-5.896-7.24-10.529-9.557
				c-0.744-0.371-1.213-1.132-1.207-1.963c0.004-0.831,0.479-1.589,1.226-1.952l1.324-0.645c-9.504-1.57-16.431-0.923-18.345-0.419
				c-0.073,0.077-0.152,0.15-0.237,0.216c-0.795,0.625-1.886,0.607-2.655,0.032c-0.297,0.222-0.655,0.37-1.051,0.417
				c-5.121,0.611-8.222,0.301-10.713,0.054c-1.676-0.167-2.885-0.288-4.209-0.067c-2.072,0.342-6.136,1.963-9.453,3.321
				c0.735,0.578,1.224,1.262,1.478,2.056c0.274,0.863,0.455,2.578-1.416,4.365c-0.024,0.022-0.051,0.047-0.077,0.069l-0.064,0.057
				C21.775,29.335,23.354,29.126,25.002,29.126z"/>
		</g>
		<path fill="#FFFFFF" d="M26.463,53.583c-1.047,0-1.973-0.756-2.151-1.824c-0.102-0.602-0.222-1.144-0.378-1.706
			c-0.326-1.16,0.352-2.365,1.512-2.69c1.166-0.329,2.368,0.352,2.693,1.512c0.198,0.707,0.355,1.416,0.481,2.164
			c0.198,1.19-0.605,2.315-1.794,2.515C26.704,53.573,26.583,53.583,26.463,53.583z"/>
		<path fill="#FFFFFF" d="M29.476,65.624c-0.538,0-1.076-0.197-1.497-0.595c-0.709-0.669-1.313-1.472-1.741-2.324
			c-0.543-1.075-0.111-2.39,0.966-2.932c1.074-0.545,2.39-0.112,2.932,0.965c0.201,0.398,0.499,0.794,0.839,1.113
			c0.876,0.827,0.918,2.208,0.09,3.086C30.636,65.395,30.057,65.624,29.476,65.624z"/>
		<path fill="#FFFFFF" d="M41.303,61.539c-1.104,0-2.054-0.835-2.17-1.957c-0.051-0.501-0.239-1.087-0.438-1.708
			c-0.335-1.047-0.713-2.233-0.647-3.575c0.062-1.205,1.091-2.146,2.291-2.072c1.206,0.061,2.132,1.086,2.072,2.291
			c-0.028,0.549,0.201,1.268,0.444,2.027c0.247,0.767,0.526,1.636,0.625,2.586c0.126,1.197-0.749,2.271-1.948,2.397
			C41.455,61.535,41.378,61.539,41.303,61.539z"/>
		<path fill="#FFFFFF" d="M44.964,75.733c-0.769,0-1.516-0.406-1.916-1.128c-0.805-1.456-0.756-2.943-0.717-4.138
			c0.008-0.257,0.017-0.517,0.015-0.772c-0.009-1.205,0.963-2.19,2.168-2.2c0.005,0,0.011,0,0.017,0c1.2,0,2.173,0.967,2.183,2.166
			c0.004,0.314-0.006,0.632-0.018,0.95c-0.025,0.793-0.049,1.478,0.176,1.882c0.583,1.056,0.201,2.385-0.855,2.968
			C45.683,75.646,45.321,75.733,44.964,75.733z"/>
		<path fill="#FFFFFF" d="M55.287,58.528c-0.92,0-1.777-0.586-2.076-1.508c-0.57-1.755-0.305-3.458-0.057-4.587
			c0.26-1.177,1.429-1.922,2.603-1.662c1.18,0.26,1.922,1.426,1.662,2.603c-0.224,1.018-0.24,1.725-0.054,2.296
			c0.372,1.147-0.256,2.379-1.403,2.752C55.738,58.495,55.511,58.528,55.287,58.528z"/>
		<path fill="#FFFFFF" d="M66.469,53.152c-1.208,0-2.184-0.977-2.184-2.184v-3.872c0-1.205,0.976-2.183,2.184-2.183
			c1.205,0,2.183,0.978,2.183,2.183v3.872C68.651,52.176,67.674,53.152,66.469,53.152z"/>
		<path fill="#FFFFFF" d="M59.155,71.647c-0.44,0-0.884-0.134-1.27-0.41c-0.979-0.701-1.205-2.066-0.504-3.047
			c0.534-0.744,0.972-1.634,1.438-2.578c0.317-0.646,0.648-1.316,1.026-1.973c0.603-1.045,1.938-1.402,2.983-0.801
			c1.043,0.602,1.402,1.937,0.801,2.982c-0.309,0.534-0.593,1.111-0.894,1.723c-0.522,1.059-1.064,2.155-1.805,3.191
			C60.505,71.329,59.836,71.647,59.155,71.647z"/>
		<path fill="#434B56" d="M45.498,27.562c-1.053,0-1.979-0.763-2.153-1.835C40.483,8.102,49.256,0.948,49.632,0.651
			c0.948-0.749,2.32-0.585,3.067,0.361c0.743,0.942,0.587,2.308-0.348,3.058c-0.318,0.262-7.113,6.061-4.695,20.957
			c0.193,1.19-0.615,2.313-1.807,2.505C45.731,27.552,45.615,27.562,45.498,27.562z"/>
		<path fill="#434B56" d="M46.037,91c-9.395,0-35.086-25.011-35.086-44.119c0-5.905,1.478-10.911,4.393-14.881
			c0.714-0.973,2.082-1.183,3.054-0.466c0.972,0.712,1.181,2.08,0.466,3.052c-2.353,3.205-3.546,7.34-3.546,12.295
			c0,17.021,24.329,39.753,30.72,39.753c7.091,0,30.72-22.076,30.72-39.753c0-4.013-0.782-7.498-2.322-10.36
			c-0.571-1.063-0.175-2.386,0.888-2.958c1.061-0.572,2.385-0.175,2.958,0.888c1.886,3.503,2.844,7.686,2.844,12.431
			c0,12.163-9.507,24.479-13.595,29.21C61.116,83.512,51.984,91,46.037,91z"/>
	</g>
</g>
</svg>
