<?xml version="1.0" encoding="utf-8"?>
<!-- Generator: Adobe Illustrator 16.0.0, SVG Export Plug-In . SVG Version: 6.00 Build 0)  -->
<!DOCTYPE svg PUBLIC "-//W3C//DTD SVG 1.1//EN" "http://www.w3.org/Graphics/SVG/1.1/DTD/svg11.dtd">
<svg version="1.1" id="Layer_1" xmlns="http://www.w3.org/2000/svg" xmlns:xlink="http://www.w3.org/1999/xlink" x="0px" y="0px"
	 width="91px" height="91px" viewBox="0 0 91 91" enable-background="new 0 0 91 91" xml:space="preserve">
<g>
	<path fill="#F16A6D" d="M46.862,14.627c1.79,0.389,3.6-0.812,3.979-2.58c0.189-0.875,0.023-1.771-0.463-2.522
		c-0.487-0.75-1.237-1.267-2.113-1.454c-0.098,0.031-0.266,0.281-0.375,0.445c-0.25,0.369-0.559,0.83-1.075,1.121
		c-0.102,0.057-0.211,0.086-0.316,0.133c-0.006,0.002-0.012,0.008-0.018,0.012c-0.01,0.002-0.016,0-0.023,0.004
		c-0.359,0.148-0.727,0.253-1.066,0.333c-0.785,0.184-1.054,0.287-1.105,0.529c-0.189,0.874-0.023,1.772,0.463,2.523
		C45.235,13.923,45.986,14.44,46.862,14.627z"/>
	<path fill="#8CCFB6" d="M72.614,9.506l-2.535-2.514L58.775,17.834c1.048,0.514,1.985,1.218,2.764,2.073L72.614,9.506z"/>
	<polygon fill="#B1E1F8" points="28.968,87.838 55.357,87.838 42.163,77.838 	"/>
	<circle fill="#F17897" cx="32.77" cy="24.758" r="11.415"/>
	<circle fill="#F69B77" cx="53.549" cy="27.391" r="8.814"/>
	<path fill="#B1E1F8" d="M64.934,28.537H19.722c-1.064,0.061-1.913,0.783-1.913,1.681v4.198c0,0.002-0.004,0.006-0.004,0.01
		c0,0.006,0.004,0.01,0.004,0.012c0,13.767,11.026,24.965,24.581,24.965c13.56,0,24.59-11.198,24.59-24.965v-4.196
		C66.979,29.302,66.062,28.537,64.934,28.537z"/>
	<g id="XMLID_43_">
		<path fill="#434B56" d="M42.428,62.508c-15.266,0-27.688-12.592-27.688-28.07c0-1.251,1.015-2.266,2.268-2.266h30.686
			c1.251,0,2.267,1.015,2.267,2.266c0,1.253-1.016,2.266-2.267,2.266H19.38c1.126,11.92,11.032,21.272,23.048,21.272
			c12.02,0,21.931-9.352,23.058-21.272h-6.555c-1.251,0-2.267-1.013-2.267-2.266c0-1.251,1.016-2.266,2.267-2.266h8.926
			c1.253,0,2.269,1.015,2.269,2.266C70.126,49.916,57.7,62.508,42.428,62.508z"/>
		<path fill="#434B56" d="M67.857,36.704c-1.251,0-2.266-1.013-2.266-2.266v-4.196c-0.016-0.066-0.232-0.277-0.619-0.277
			c-1.251,0-2.267-1.013-2.267-2.266c0-1.251,1.016-2.266,2.267-2.266c2.84,0,5.153,2.157,5.153,4.81v4.196
			C70.126,35.691,69.11,36.704,67.857,36.704z"/>
		<path fill="#434B56" d="M67.857,36.704c-1.251,0-2.266-1.013-2.266-2.266v-4.196c-0.016-0.066-0.232-0.277-0.619-0.277h-46.26
			c-1.251,0-2.266-1.013-2.266-2.266c0-1.251,1.015-2.266,2.266-2.266h46.26c2.84,0,5.153,2.157,5.153,4.81v4.196
			C70.126,35.691,69.11,36.704,67.857,36.704z"/>
		<path fill="#434B56" d="M63.093,29.964c-0.135,0-0.27-0.012-0.406-0.037c-1.231-0.223-2.049-1.401-1.826-2.633
			c0.075-0.427,0.114-0.82,0.114-1.204c0-3.355-2.73-6.086-6.086-6.086c-5.771,0-7.188,2.684-8.125,4.46l-2.028-1.013l-1.981-1.104
			c1.087-2.058,3.631-6.875,12.135-6.875c5.856,0,10.619,4.765,10.619,10.619c0,0.658-0.061,1.315-0.188,2.01
			C65.123,29.195,64.168,29.964,63.093,29.964z"/>
		<path fill="#434B56" d="M20.945,29.964c-1.007,0-1.926-0.675-2.192-1.694c-0.309-1.179-0.465-2.405-0.465-3.644
			c0-7.935,6.455-14.388,14.39-14.388c8.532,0,14.489,6.354,14.489,15.451c0,1.253-1.015,2.266-2.266,2.266
			c-1.253,0-2.268-1.013-2.268-2.266c0-7.542-4.999-10.919-9.955-10.919c-5.434,0-9.855,4.421-9.855,9.855
			c0,0.853,0.105,1.692,0.316,2.499c0.316,1.21-0.41,2.449-1.62,2.766C21.328,29.938,21.135,29.964,20.945,29.964z"/>
		<g id="XMLID_50_">
			<path fill="#434B56" d="M47.7,17.807c-0.455,0-0.909-0.047-1.354-0.142c-1.688-0.359-3.135-1.357-4.074-2.805
				c-0.937-1.448-1.255-3.176-0.892-4.862c0.47-2.206,2.469-2.676,3.43-2.902c0.156-0.037,0.373-0.088,0.513-0.131
				c0.043-0.061,0.08-0.123,0.121-0.182c0.367-0.546,1.226-1.823,2.915-1.823c0.226,0,0.458,0.025,0.687,0.074
				c1.685,0.359,3.131,1.354,4.069,2.803c0.939,1.448,1.258,3.174,0.896,4.86C53.376,15.658,50.722,17.807,47.7,17.807z
				 M45.775,11.526c0.027,0.307,0.131,0.604,0.303,0.871c0.279,0.432,0.711,0.728,1.214,0.835c1.041,0.215,2.067-0.464,2.286-1.483
				c0.107-0.501,0.012-1.015-0.268-1.446c-0.125-0.193-0.279-0.359-0.459-0.494c-0.281,0.365-0.663,0.767-1.208,1.071
				c-0.635,0.355-1.276,0.506-1.794,0.628C45.826,11.512,45.801,11.518,45.775,11.526z"/>
			<path fill="#434B56" d="M46.279,11.276c-0.876,0-1.712-0.512-2.083-1.368c-0.386-0.894-1.552-3.112-4.021-4.361
				c-1.472-0.746-2.875-0.902-3.795-0.902c-1.251,0-2.266-1.015-2.266-2.266c0-1.253,1.015-2.266,2.266-2.266
				c1.414,0,3.572,0.24,5.842,1.39c3.652,1.847,5.413,4.933,6.135,6.607c0.497,1.149-0.031,2.483-1.182,2.98
				C46.884,11.218,46.58,11.276,46.279,11.276z"/>
		</g>
		<g id="XMLID_48_">
			<path fill="#434B56" d="M58.932,90.943H25.853c-1.029,0-1.927-0.691-2.192-1.683c-0.264-0.993,0.173-2.04,1.065-2.551
				l14.337-8.206V60.242c0-1.252,1.015-2.267,2.266-2.267s2.266,1.015,2.266,2.267v19.577c0,0.813-0.435,1.563-1.14,1.968
				l-8.081,4.624h17.209l-4.458-3.041c-1.034-0.705-1.302-2.116-0.597-3.148c0.706-1.036,2.117-1.302,3.15-0.598l10.53,7.182
				c0.819,0.56,1.181,1.591,0.888,2.541C60.806,90.295,59.927,90.943,58.932,90.943z"/>
		</g>
		<path fill="#434B56" d="M62.363,23.021c-0.594,0-1.186-0.23-1.628-0.689c-0.873-0.9-0.85-2.334,0.051-3.205l9.931-9.623
			l-0.524-0.519L58.967,19.755c-0.904,0.867-2.339,0.835-3.205-0.066c-0.867-0.904-0.838-2.338,0.066-3.205L68.65,4.183
			c0.888-0.851,2.291-0.841,3.164,0.027l3.735,3.703c0.434,0.43,0.676,1.013,0.672,1.622s-0.252,1.192-0.689,1.616L63.94,22.383
			C63.499,22.808,62.931,23.021,62.363,23.021z"/>
		<path fill="#434B56" d="M17.008,36.682c-1.253,0-2.268-1.015-2.268-2.266v-4.198c0-2.653,2.313-4.81,5.157-4.81
			c1.251,0,2.267,1.015,2.267,2.266c0,1.253-1.015,2.266-2.267,2.266c-0.39,0-0.607,0.211-0.623,0.279v4.196
			C19.274,35.667,18.26,36.682,17.008,36.682z"/>
	</g>
</g>
</svg>
