<svg height="512" viewBox="0 0 64 64" width="512" xmlns="http://www.w3.org/2000/svg"><g id="_22-Supermarket" data-name="22-Supermarket"><path d="m63 59v4h-62v-4h3 21 14 21z" fill="#3e5857"/><path d="m25 27h14v32h-14z" fill="#99efff"/><path d="m59.3 2.64a2 2 0 0 0 -1.97-1.64h-50.66a2 2 0 0 0 -1.97 1.64l-3.7 20.36h62z" fill="#a1c203"/><path d="m25 27v32h-21v-36h56v36h-21v-32z" fill="#fff8d4"/><path d="m42 48v6l14-14v-6z" fill="#69e5fd"/><path d="m56 28-14 14v6l14-14z" fill="#d2f7ff"/><path d="m42 27v1 14l14-14v-1z" fill="#69e5fd"/><path d="m42 54v1h14v-1-14z" fill="#99efff"/><path d="m8 48v6l14-14v-6z" fill="#69e5fd"/><path d="m22 28-14 14v6l14-14z" fill="#d2f7ff"/><path d="m8 27v1 14l14-14v-1z" fill="#69e5fd"/><path d="m8 54v1h14v-1-14z" fill="#99efff"/><path d="m25 54 14-14v-8l-14 14z" fill="#d2f7ff"/><path d="m25 59 14-14v-5l-14 14z" fill="#69e5fd"/><path d="m25 46 14-14v-5l-14 14z" fill="#69e5fd"/><path d="m25 41 14-14h-14z" fill="#99efff"/><path d="m4 23h56v3h-56z" fill="#fad27a"/><path d="m32 41h6v3h-6z" fill="#a1c203"/><path d="m35.208 37.861a.261.261 0 0 0 -.416 0l-2 3a.252.252 0 0 0 -.042.139h.55l1.7-2.549 1.7 2.549h.551a.252.252 0 0 0 -.042-.139z" fill="#516667"/><path d="m32 42v2h5v1h-6v-3z" fill="#30cfff"/><rect fill="#22333b" height="2" rx="1" width="58" x="3" y="61"/><rect fill="#c6eb6d" height="2" rx="1" width="40" x="12" y="1"/><path d="m14.022 20a6 6 0 0 1 -5.922-6.936l1.633-10.376a2 2 0 0 1 1.976-1.688h-5.039a2 2 0 0 0 -1.97 1.64l-3.7 20.36h62l-.545-3z" fill="#88ab00"/><path d="m3 26h2v2h-2z"/><path d="m63 58h-2v-34h2a1 1 0 0 0 .983-1.179l-3.7-20.357a3 3 0 0 0 -2.952-2.464h-50.662a3 3 0 0 0 -2.951 2.464l-3.701 20.357a1 1 0 0 0 .983 1.179h50v-2h-48.8l3.486-19.179a1 1 0 0 1 .983-.821h50.662a1 1 0 0 1 .984.821l3.485 19.179h-4.8v2h2v34h-19v-31a1 1 0 0 0 -1-1h-14a1 1 0 0 0 -1 1v31h-19v-28h-2v28h-2a1 1 0 0 0 -1 1v4a1 1 0 0 0 1 1h62a1 1 0 0 0 1-1v-4a1 1 0 0 0 -1-1zm-37-30h12v30h-12zm36 34h-60v-2h60z"/><path d="m53 22h2v2h-2z"/><path d="m20.146 11a2.625 2.625 0 0 0 2.854-2.391 2.406 2.406 0 0 0 -1.675-2.18l-1.948-.729c-.267-.1-.377-.252-.377-.309 0-.1.294-.391.854-.391h.292c.56 0 .854.29.854.391v.609h2v-.609a2.625 2.625 0 0 0 -2.854-2.391h-.292a2.625 2.625 0 0 0 -2.854 2.391 2.406 2.406 0 0 0 1.675 2.18l1.948.731c.267.1.377.25.377.307 0 .1-.294.391-.854.391h-.292c-.56 0-.854-.29-.854-.391v-.609h-2v.609a2.625 2.625 0 0 0 2.854 2.391z"/><path d="m29 8.5v-5.5h-2v5.5a.5.5 0 0 1 -1 0v-5.5h-2v5.5a2.5 2.5 0 0 0 5 0z"/><path d="m35 5.5a2.5 2.5 0 0 0 -2.5-2.5h-1.5a1 1 0 0 0 -1 1v7h2v-3h.5a2.5 2.5 0 0 0 2.5-2.5zm-2.5.5h-.5v-1h.5a.5.5 0 0 1 0 1z"/><path d="m40 5v-2h-3a1 1 0 0 0 -1 1v6a1 1 0 0 0 1 1h3v-2h-2v-1h1v-2h-1v-1z"/><path d="m46 9a1 1 0 0 0 -.553-.895l-.347-.171a2.856 2.856 0 0 0 -1.954-4.934h-1.146a1 1 0 0 0 -1 1v7h2v-1.882l1 .5v1.382h2zm-2.473-2.382-.527.264v-1.882h.146a.854.854 0 0 1 .381 1.618z"/><path d="m19 21v-7a1 1 0 0 0 -1.8-.6l-2.2 2.933-2.2-2.933a1 1 0 0 0 -1.8.6v7h2v-4l1.2 1.6a1.036 1.036 0 0 0 1.6 0l1.2-1.6v4z"/><path d="m26 21v-5a3 3 0 0 0 -6 0v5h2v-1h2v1zm-4-3v-2a1 1 0 0 1 2 0v2z"/><path d="m33 15.743a2.745 2.745 0 0 0 -2.743-2.743h-2.257a1 1 0 0 0 -1 1v7h2v-1.946l2 .667v1.279h2v-2a1 1 0 0 0 -.684-.948l-.39-.131a2.739 2.739 0 0 0 1.074-2.178zm-2.509.706-1.491.5v-1.949h1.257a.743.743 0 0 1 .234 1.449z"/><path d="m40 15v-2h-2v1.382l-2 1v-2.382h-2v8h2v-2.382l2 1v1.382h2v-2a1 1 0 0 0 -.553-.895l-2.211-1.105 2.211-1.1a1 1 0 0 0 .553-.9z"/><path d="m45 15v-2h-3a1 1 0 0 0 -1 1v6a1 1 0 0 0 1 1h3v-2h-2v-1h1v-2h-1v-1z"/><path d="m50 21v-6h2v-2h-6v2h2v6z"/><path d="m22 56a1 1 0 0 0 1-1v-28a1 1 0 0 0 -1-1h-14a1 1 0 0 0 -1 1v28a1 1 0 0 0 1 1zm-13-2v-5.586l6.707-6.707-1.414-1.414-5.293 5.293v-3.172l12-12v9.172l-8.707 8.707 1.414 1.414 7.293-7.293v11.586zm11.586-26-11.586 11.586v-11.586z"/><path d="m41 27v28a1 1 0 0 0 1 1h14a1 1 0 0 0 1-1v-28a1 1 0 0 0 -1-1h-14a1 1 0 0 0 -1 1zm2 27v-5.586l6.707-6.707-1.414-1.414-5.293 5.293v-3.172l12-12v9.172l-8.707 8.707 1.414 1.414 7.293-7.293v11.586zm11.586-26-11.586 11.586v-11.586z"/><path d="m50.586 37h2.828v2h-2.828z" transform="matrix(.707 -.707 .707 .707 -11.64 47.899)"/><path d="m16.586 37h2.828v2h-2.828z" transform="matrix(.707 -.707 .707 .707 -21.598 23.858)"/></g></svg>