<?xml version="1.0" encoding="utf-8"?>
<!-- Generator: Adobe Illustrator 16.0.0, SVG Export Plug-In . SVG Version: 6.00 Build 0)  -->
<!DOCTYPE svg PUBLIC "-//W3C//DTD SVG 1.1//EN" "http://www.w3.org/Graphics/SVG/1.1/DTD/svg11.dtd">
<svg version="1.1" id="Layer_1" xmlns="http://www.w3.org/2000/svg" xmlns:xlink="http://www.w3.org/1999/xlink" x="0px" y="0px"
	 width="91px" height="91px" viewBox="0 0 91 91" enable-background="new 0 0 91 91" xml:space="preserve">
<g>
	<g>
		<path fill="#ACD263" d="M25.222,20.184c0.459,0,0.832,0.371,0.832,0.831s-0.373,0.832-0.832,0.832
			c-1.208,0-2.314-0.133-3.342-0.37c0.022,0.137,0.022,0.278-0.029,0.417c-0.016,0.039-1.427,3.952,0.203,10.542
			c0.041,0.145,0.918,3.418-0.034,6.658c1.968-0.638,5.382-1.429,9.942-1.27c2.559,0.104,4.914-0.302,6.985-1.173
			c3.796-1.595,6.248-5.332,6.248-9.52v-2.413c0-0.46,0.37-0.831,0.831-0.831c0.461,0,0.832,0.371,0.832,0.831v2.413
			c0,4.186,2.452,7.922,6.25,9.52c2.073,0.872,4.408,1.279,6.982,1.173c4.561-0.17,7.984,0.632,9.948,1.27
			c-0.951-3.24-0.073-6.515-0.029-6.679c1.62-6.569,0.211-10.482,0.197-10.522c-0.01-0.021-0.006-0.044-0.012-0.068
			c-0.02-0.064-0.029-0.127-0.031-0.195c-0.002-0.039-0.002-0.073,0.002-0.112c0-0.012,0-0.025,0-0.039
			c-1.024,0.236-2.126,0.368-3.329,0.368c-0.459,0-0.83-0.372-0.83-0.832s0.371-0.831,0.83-0.831c3.397,0,5.943-1.044,7.567-3.102
			c2.645-3.35,2.347-8.618,1.983-11.255c-2.113,1.993-5.259,2.362-7.793,2.455c-1.968,0.072-3.957,0.042-5.877,0.016
			c-2.79-0.039-5.664-0.081-8.46,0.186c-1.067,0.101-2.191,0.251-3.189,0.673c-1.67,0.702-3.737,2.793-4.255,4.305
			c-0.006,0.018-0.02,0.027-0.025,0.044c-0.023,0.055-0.056,0.101-0.087,0.149c-0.031,0.042-0.059,0.085-0.093,0.12
			c-0.037,0.037-0.08,0.064-0.121,0.093c-0.018,0.01-0.029,0.025-0.047,0.033c-0.064,1.55-0.018,3.161,0.19,4.781
			c3.867-0.118,7.211-1.303,8.868-2.494c0.371-0.269,0.892-0.184,1.16,0.189s0.182,0.893-0.189,1.162
			c-1.963,1.407-5.953,2.828-10.443,2.828c-0.029,0-0.057-0.004-0.085-0.004c0,0-0.025,0.004-0.039,0.004
			c-0.012,0-0.021-0.006-0.033-0.008c-4.43-0.031-8.349-1.431-10.282-2.822c-0.373-0.269-0.456-0.789-0.189-1.16
			c0.271-0.373,0.791-0.46,1.162-0.188c1.585,1.141,4.727,2.281,8.396,2.475c-0.251-2.069-0.259-4.106-0.116-6.019
			c-0.816-1.369-2.459-2.903-3.845-3.487c-1.005-0.423-2.128-0.574-3.193-0.675c-2.794-0.265-5.674-0.226-8.462-0.186
			c-1.924,0.029-3.913,0.056-5.879-0.016c-2.531-0.093-5.676-0.462-7.791-2.449c-0.359,2.643-0.651,7.911,1.987,11.251
			C19.282,19.141,21.826,20.184,25.222,20.184z"/>
		<path fill="#F16A6D" d="M72.276,23.595c0.269,1.955,0.364,5.102-0.659,9.239c-0.016,0.062-1.121,4.222,0.669,7.331
			c0.184,0.319,0.133,0.718-0.12,0.986c-0.16,0.168-0.379,0.259-0.603,0.259c-0.128,0-0.255-0.029-0.374-0.089
			c-0.04-0.021-4.21-2.092-11.042-1.835c-2.801,0.104-5.388-0.34-7.682-1.305c-3.032-1.272-5.298-3.727-6.44-6.704
			c-1.142,2.977-3.404,5.432-6.435,6.704c-2.294,0.965-4.885,1.392-7.687,1.305c-6.85-0.253-10.991,1.816-11.033,1.835
			c-0.12,0.06-0.248,0.089-0.375,0.089c-0.225,0-0.443-0.091-0.604-0.259c-0.253-0.267-0.302-0.667-0.118-0.986
			c1.787-3.108,0.681-7.269,0.669-7.312c-1.022-4.133-0.934-7.276-0.665-9.237C11.286,30.343,6.619,40.038,6.619,51.094
			c0,20.623,16.94,36.178,39.406,36.178c22.468,0,39.41-15.555,39.41-36.178C85.436,39.999,80.78,30.317,72.276,23.595z"/>
	</g>
	<g>
		<path fill="#434B56" d="M46.027,90.733c-24.219,0-42.484-16.875-42.484-39.253c0-12.555,5.527-23.51,15.564-30.847
			c1.003-0.732,2.407-0.514,3.137,0.487c0.733,1.001,0.515,2.405-0.487,3.137C12.908,30.727,8.032,40.395,8.032,51.48
			c0,19.818,16.336,34.765,37.995,34.765c21.662,0,37.998-14.946,37.998-34.765c0-11.369-5.091-21.192-14.331-27.661
			c-1.016-0.711-1.263-2.111-0.552-3.126c0.712-1.017,2.109-1.263,3.126-0.551c10.324,7.227,16.245,18.648,16.245,31.338
			C88.514,73.858,70.249,90.733,46.027,90.733z"/>
		<path fill="#434B56" d="M66.836,23.646c-1.238,0-2.244-1.005-2.244-2.245c0-1.239,1.006-2.244,2.244-2.244
			c2.985,0,5.099-0.839,6.46-2.565c1.646-2.086,1.997-5.256,1.905-7.866c-2.107,1.037-4.514,1.282-6.553,1.357
			c-2.001,0.071-4.012,0.044-5.955,0.016c-2.869-0.041-5.582-0.08-8.301,0.177c-0.955,0.091-1.95,0.223-2.771,0.57
			c-1.301,0.545-3.082,2.322-3.472,3.46c-0.4,1.174-1.672,1.8-2.852,1.396c-1.171-0.402-1.797-1.678-1.395-2.852
			c0.898-2.623,3.8-5.229,5.973-6.142c1.373-0.584,2.778-0.779,4.093-0.903c2.96-0.28,5.924-0.239,8.789-0.197
			c1.887,0.027,3.837,0.054,5.726-0.013c2.047-0.076,4.572-0.342,5.918-1.74c0.121-0.127,0.239-0.269,0.359-0.408
			c0.172-0.203,0.346-0.404,0.53-0.596c0.567-0.595,1.417-0.832,2.209-0.617c0.793,0.215,1.405,0.845,1.597,1.645
			c0.095,0.395,2.263,9.742-2.277,15.493C74.583,22.209,71.225,23.646,66.836,23.646z"/>
		<path fill="#434B56" d="M71.565,43.212c-0.345,0-0.694-0.081-1.018-0.245c-0.028-0.014-3.945-1.911-10.349-1.682
			c-3.01,0.11-5.793-0.368-8.281-1.414c-4.943-2.076-8.134-6.926-8.134-12.353v-2.413c0-1.239,1.003-2.245,2.244-2.245
			c1.239,0,2.244,1.005,2.244,2.245v2.413c0,3.615,2.113,6.839,5.387,8.214c1.882,0.792,4.042,1.152,6.381,1.065
			c3.353-0.117,6.128,0.263,8.215,0.736c-0.248-2.716,0.355-4.966,0.395-5.109c1.485-6.03,0.243-9.624,0.231-9.658
			c-0.416-1.16,0.177-2.447,1.33-2.875c1.154-0.423,2.435,0.145,2.872,1.297c0.074,0.193,1.775,4.808-0.09,12.37
			c-0.023,0.087-0.965,3.708,0.52,6.287c0.497,0.861,0.367,1.945-0.317,2.666C72.76,42.971,72.166,43.21,71.565,43.212z"/>
		<path fill="#434B56" d="M25.224,23.646c-4.388,0-7.746-1.437-9.982-4.272c-4.54-5.751-2.374-15.099-2.282-15.493
			c0.191-0.8,0.804-1.43,1.599-1.645c0.791-0.215,1.641,0.021,2.208,0.617c0.188,0.195,0.363,0.4,0.54,0.607
			c0.118,0.137,0.234,0.274,0.357,0.406c1.338,1.388,3.863,1.655,5.912,1.73c1.887,0.067,3.837,0.04,5.725,0.013
			c2.867-0.042,5.833-0.083,8.792,0.197c1.247,0.119,2.708,0.318,4.098,0.905c2.175,0.914,5.074,3.526,5.964,6.147
			c0.396,1.173-0.232,2.449-1.407,2.846c-1.174,0.4-2.448-0.23-2.846-1.406c-0.385-1.131-2.159-2.905-3.455-3.451
			c-0.829-0.35-1.825-0.481-2.778-0.572c-2.716-0.257-5.428-0.218-8.305-0.177c-1.941,0.026-3.951,0.056-5.952-0.016
			c-2.036-0.076-4.44-0.321-6.546-1.352c-0.089,2.618,0.263,5.796,1.906,7.87c1.363,1.719,3.472,2.556,6.453,2.556
			c1.24,0,2.245,1.005,2.245,2.244C27.469,22.641,26.464,23.646,25.224,23.646z"/>
		<path fill="#434B56" d="M20.504,43.207c-0.607,0-1.203-0.243-1.638-0.706c-0.677-0.719-0.808-1.796-0.315-2.655
			c1.479-2.573,0.543-6.192,0.533-6.229c-1.887-7.621-0.182-12.237-0.108-12.43c0.442-1.158,1.74-1.738,2.898-1.297
			c1.152,0.441,1.734,1.726,1.305,2.878c-0.039,0.108-1.243,3.688,0.247,9.714c0.031,0.106,0.63,2.339,0.383,5.049
			c2.083-0.473,4.868-0.853,8.202-0.734c2.361,0.088,4.508-0.273,6.388-1.063c3.271-1.375,5.384-4.599,5.384-8.216v-2.413
			c0-1.239,1.003-2.245,2.244-2.245c1.239,0,2.244,1.005,2.244,2.245v2.413c0,5.429-3.191,10.279-8.13,12.353
			c-2.486,1.046-5.276,1.522-8.288,1.414c-6.411-0.229-10.31,1.668-10.349,1.687C21.186,43.129,20.844,43.207,20.504,43.207z"/>
		<path fill="#434B56" d="M46.027,22.167c-5.138,0-9.279-1.668-11.264-3.095c-1.007-0.726-1.236-2.129-0.511-3.134
			c0.724-1.007,2.126-1.235,3.132-0.511c1.508,1.083,4.854,2.249,8.643,2.249c3.787,0,7.137-1.166,8.647-2.251
			c1.011-0.723,2.411-0.493,3.134,0.515s0.493,2.409-0.515,3.132C55.307,20.5,51.162,22.167,46.027,22.167z"/>
		<path fill="#434B56" d="M45.901,22.167c-1.082,0-2.035-0.785-2.213-1.887c-1.488-9.229,2.07-18.255,2.221-18.636
			c0.462-1.149,1.77-1.709,2.92-1.249c1.149,0.462,1.708,1.767,1.25,2.917l0,0c-0.032,0.082-3.243,8.278-1.958,16.253
			c0.197,1.224-0.634,2.375-1.858,2.573C46.142,22.157,46.021,22.167,45.901,22.167z"/>
	</g>
	<path fill="#FFFFFF" d="M58.06,75.632c-1.022,0-1.944-0.702-2.185-1.74c-0.278-1.208,0.476-2.415,1.682-2.693
		c12.169-2.803,13.326-15.989,13.37-16.55c0.096-1.233,1.168-2.146,2.405-2.069c1.235,0.094,2.161,1.165,2.072,2.399
		c-0.425,5.879-4.492,17.752-16.838,20.595C58.396,75.614,58.228,75.632,58.06,75.632z"/>
	<path fill="#FFFFFF" d="M48.225,78.027c-1.075,0-2.027-0.777-2.211-1.876c-0.204-1.222,0.62-2.38,1.842-2.585l1.663-0.278
		c1.223-0.197,2.38,0.621,2.587,1.843c0.203,1.224-0.62,2.382-1.845,2.587l-1.662,0.278C48.474,78.016,48.35,78.027,48.225,78.027z"
		/>
</g>
</svg>
