<?xml version="1.0" encoding="iso-8859-1"?>
<!-- Generator: Adobe Illustrator 19.0.0, SVG Export Plug-In . SVG Version: 6.00 Build 0)  -->
<svg version="1.1" id="Capa_1" xmlns="http://www.w3.org/2000/svg" xmlns:xlink="http://www.w3.org/1999/xlink" x="0px" y="0px"
	 viewBox="0 0 512 512" style="enable-background:new 0 0 512 512;" xml:space="preserve">
<path style="fill:#C86D5C;" d="M384.809,97.787l-30.673-30.673c-4.105-4.105-10.761-4.105-14.866,0l-23.552,23.552l45.539,45.539
	l23.552-23.552C388.914,108.548,388.914,101.892,384.809,97.787z"/>
<path style="fill:#B24D40;" d="M384.809,97.787l-16.264-16.264c4.105,4.105,4.105,10.761,0,14.866l-23.553,23.553l16.264,16.264
	l23.553-23.553C388.914,108.548,388.914,101.892,384.809,97.787z"/>
<path style="fill:#999999;" d="M439.272,154.464c38.313,14.267,61.466,12.016,61.466,12.016
	c14.267,14.267-13.16,64.824-61.26,112.924s-98.658,75.527-112.924,61.26c0,0,2.251-23.153-12.016-61.466L439.272,154.464z"/>
<path style="fill:#C86D5C;" d="M204.035,293.427c59.193-81.743,125.472-118.091,125.472-118.091l-88.081-10.377
	C136.096,300.354,59.784,354.053,24.473,373.783c-15.553,8.69-21.52,28.157-13.276,43.951c6.461,12.377,17.746,24.55,37.454,29.318
	c10.706,2.59,22.001-0.415,30.07-7.911C99.395,419.935,146.657,372.662,204.035,293.427z"/>
<path style="fill:#B24D40;" d="M204.035,293.427c59.193-81.743,125.472-118.091,125.472-118.091l-33.692-3.969
	c-23.773,16.496-67.181,51.05-107.337,106.503C131.1,357.105,83.838,404.378,63.164,423.584c-8.069,7.496-19.365,10.501-30.07,7.911
	c-7.195-1.741-13.264-4.472-18.388-7.836c6.802,10.175,17.407,19.392,33.945,23.393c10.706,2.59,22.001-0.415,30.07-7.911
	C99.395,419.935,146.657,372.662,204.035,293.427z"/>
<path style="fill:#B3B3B3;" d="M395.194,235.12c-24.452,24.452-53.555,39.546-80.656,44.077
	c-11.19-30.039-32.549-69.408-73.113-114.238c-10.325-11.404-9.941-28.88,0.937-39.76l42.911-42.911
	c10.88-10.88,28.356-11.263,39.76-0.937c44.83,40.564,84.199,61.924,114.238,73.113C434.739,181.565,419.646,210.667,395.194,235.12
	z"/>
<path d="M506.114,161.184c-1.57-1.57-3.78-2.357-5.999-2.165c-0.218,0.02-22.252,1.791-58.153-11.577
	c-17.86-6.652-35.91-15.758-54.031-27.225l2.253-2.253c3.402-3.402,5.276-7.925,5.276-12.737c0-4.811-1.874-9.334-5.275-12.736
	l-30.673-30.673c-3.402-3.402-7.925-5.276-12.737-5.276c-4.811,0-9.334,1.874-12.736,5.276l-9.689,9.689
	c-14.032-8.396-32.339-6.485-44.307,5.484l-42.911,42.911c-12.157,12.157-13.931,30.848-5.074,44.96
	C129.811,295.335,55.993,347.629,20.887,367.244c-19.292,10.78-26.437,34.486-16.266,53.97
	c8.948,17.143,23.589,28.601,42.339,33.138c13.066,3.161,27.091-0.56,36.938-9.706c7.465-6.935,19.585-18.644,34.929-35.041
	c2.83-3.024,2.672-7.771-0.352-10.602c-3.025-2.83-7.771-2.672-10.601,0.352c-15.046,16.08-26.894,27.528-34.185,34.301
	c-6.273,5.827-14.945,8.113-23.202,6.116c-14.626-3.539-25.583-12.119-32.569-25.5c-6.387-12.237-1.87-27.141,10.285-33.933
	c35.858-20.035,110.812-72.98,213.66-203.669c9.884,11.329,18.959,22.786,27.085,34.203c-26.274,23.162-50.11,49.43-70.917,78.164
	c-23.044,31.823-46.742,61.618-70.435,88.558c-2.735,3.11-2.432,7.85,0.679,10.585c3.11,2.735,7.849,2.432,10.586-0.679
	c24.004-27.293,48-57.462,71.321-89.666c19.794-27.334,42.417-52.353,67.318-74.485c12.823,19.613,22.885,39.155,30.082,58.476
	c13.367,35.896,11.596,57.932,11.579,58.121c-0.217,2.231,0.576,4.443,2.162,6.029c3.963,3.964,9.397,5.938,16.167,5.937
	c9.607,0,21.905-3.979,36.488-11.89c21.945-11.906,47.116-31.547,70.876-55.307C490.769,238.801,526.554,181.625,506.114,161.184z
	 M346.775,71.544c0.466,0,1.362,0.114,2.129,0.882l30.673,30.673c0.768,0.767,0.882,1.663,0.882,2.128s-0.114,1.361-0.882,2.129
	l-4.388,4.388c-12.974-8.981-26.007-19.195-38.882-30.46c-0.092-0.081-0.185-0.163-0.277-0.244l8.615-8.615
	C345.414,71.658,346.309,71.544,346.775,71.544z M366.824,326.837c-17.953,9.738-28.036,10.944-32.569,9.728
	c-0.022-8.166-1.25-26.276-9.711-51.735c0.082-0.02,0.165-0.045,0.247-0.065c23.03-5.587,44.289-17.288,62.517-32.288
	c4.521-3.721,9.051-7.834,13.263-12.046c7.276-7.276,13.933-15.143,19.783-23.38c2.398-3.377,1.605-8.059-1.772-10.458
	c-3.376-2.398-8.059-1.605-10.458,1.772c-5.366,7.555-11.476,14.775-18.16,21.46c-16.742,16.742-37.056,30.417-59.662,37.789
	c-3.483,1.136-10.839,2.992-10.963,3.02c-10.698-26.728-26.523-53.737-47.195-80.666c-7.944-10.349-16.157-20.511-25.085-30.034
	c-7.658-8.458-7.359-21.381,0.681-29.421l42.911-42.911c8.041-8.04,20.964-8.339,29.423-0.679
	c28.554,25.859,60.179,48.966,95.1,65.47c1.305,0.617,15.627,6.599,15.584,6.803c-1.769,8.463-4.772,16.68-8.36,24.533
	c-1.72,3.768-0.06,8.217,3.708,9.938c3.769,1.72,8.217,0.06,9.938-3.708c2.644-5.793,4.923-11.757,6.793-17.844
	c0.782-2.548,1.498-5.119,2.124-7.709c25.463,8.463,43.575,9.691,51.741,9.713c1.216,4.534,0.009,14.618-9.728,32.569
	c-11.236,20.711-29.961,44.656-52.728,67.422S387.536,315.601,366.824,326.837z"/>
<g>
</g>
<g>
</g>
<g>
</g>
<g>
</g>
<g>
</g>
<g>
</g>
<g>
</g>
<g>
</g>
<g>
</g>
<g>
</g>
<g>
</g>
<g>
</g>
<g>
</g>
<g>
</g>
<g>
</g>
</svg>
