<svg id="icon" height="512" viewBox="0 0 128 128" width="512" xmlns="http://www.w3.org/2000/svg"><circle cx="64" cy="64" fill="#414451" r="42"/><circle cx="71.239" cy="70.547" fill="#eeefee" r="22.137"/><path d="m50.759 48.524c-3.238 4.162-8.33 5.633-11.378 3.261-3.027-2.355-2.853-7.652.385-11.814 3.254-4.183 8.346-5.653 11.373-3.3 3.048 2.373 2.874 7.671-.38 11.853z" fill="#eeefee" opacity=".3"/><path d="m62.331 77.04c0-3.328 1.988-5.682 5.234-7.062l-.04-.121c-2.923-1.381-4.18-3.653-4.18-5.925 0-4.18 3.531-7.022 8.157-7.022 5.114 0 7.67 3.207 7.67 6.493 0 2.232-1.1 4.626-4.342 6.169v.121c3.288 1.3 5.317 3.612 5.317 6.819 0 4.585-3.937 7.67-8.97 7.67-5.519.001-8.846-3.282-8.846-7.142zm14.2-.162c0-3.207-2.232-4.748-5.8-5.763-3.085.892-4.748 2.923-4.748 5.437-.121 2.68 1.908 5.033 5.277 5.033 3.205 0 5.275-1.985 5.275-4.707zm-9.821-13.19c0 2.639 1.988 4.058 5.031 4.871 2.273-.772 4.018-2.4 4.018-4.79a4.1 4.1 0 0 0 -4.464-4.3c-2.958 0-4.581 1.948-4.581 4.22z" fill="#414451"/></svg>