<?xml version="1.0" encoding="iso-8859-1"?>
<!-- Generator: Adobe Illustrator 19.0.0, SVG Export Plug-In . SVG Version: 6.00 Build 0)  -->
<svg version="1.1" id="Capa_1" xmlns="http://www.w3.org/2000/svg" xmlns:xlink="http://www.w3.org/1999/xlink" x="0px" y="0px"
	 viewBox="0 0 512 512" style="enable-background:new 0 0 512 512;" xml:space="preserve">
<polygon style="fill:#7D8083;" points="426.482,381.776 405.778,233.086 349.314,212.382 385.075,223.675 390.721,99.453 
	356.842,48.635 308.137,61.918 258.97,9.11 123.455,71.221 85.812,374.247 123.455,381.776 106.516,379.894 102.752,423.183 
	176.156,460.827 185.566,485.295 302.26,504.116 413.307,434.476 409.759,395.458 "/>
<polygon style="fill:#C4C4CA;" points="166.745,323.429 85.812,370.483 123.455,74.985 198.741,131.45 "/>
<polygon style="fill:#E5ECEC;" points="123.455,73.103 249.56,12.874 194.977,127.685 "/>
<polyline style="fill:#C4C4CA;" points="426.482,381.776 347.432,355.426 319.199,370.483 294.731,321.547 405.778,233.086 "/>
<g>
	<path style="fill:#E5ECEC;" d="M85.812,374.247l82.815-50.818l28.232,37.643c0,0-65.875,22.586-73.404,22.586
		S85.812,374.247,85.812,374.247z"/>
	<polygon style="fill:#E5ECEC;" points="294.731,321.547 381.31,297.079 415.189,306.49 403.896,233.086 	"/>
</g>
<polyline style="fill:#C4C4CA;" points="302.26,504.116 324.846,451.416 264.617,438.241 176.156,460.827 185.566,485.295 "/>
<polyline style="fill:#E5ECEC;" points="300.378,502.234 260.852,436.359 324.846,451.416 "/>
<g>
	<rect x="213.803" y="152.148" style="fill:#FFFFFF;" width="15.057" height="15.057"/>
	<rect x="234.501" y="174.734" style="fill:#FFFFFF;" width="15.057" height="15.057"/>
	<rect x="198.745" y="378.007" style="fill:#FFFFFF;" width="15.057" height="15.057"/>
	<rect x="183.688" y="393.064" style="fill:#FFFFFF;" width="15.057" height="15.057"/>
	<rect x="108.402" y="317.778" style="fill:#FFFFFF;" width="15.057" height="15.057"/>
	<rect x="123.459" y="285.786" style="fill:#FFFFFF;" width="15.057" height="15.057"/>
</g>
<path d="M434.522,384.925l-21.909-157.353l-19.847-7.278l5.589-122.965l-38.256-57.386l-49.55,13.513L260.776,0L116.502,66.126
	L77.478,380.258l21.082,4.216l-3.747,43.099l75.348,38.64l9.933,25.825L303.86,512l117.364-73.602l-3.604-39.644L434.522,384.925z
	 M400.142,247.201l6.851,49.198l-25.701-7.139l-52.613,14.87L400.142,247.201z M381.327,304.898l27.929,7.759l8.096,58.141
	l-70.609-23.536l-24.267,12.942l-16.942-33.885L381.327,304.898z M194.389,119.684l-56.843-46.64l104.941-48.098L194.389,119.684z
	 M129.241,85.707l59.549,48.861l-11.346,77.154l-19.699-13.133l-8.352,12.528l25.627,17.085l-13.331,90.65l-66.478,40.793
	L129.241,85.707z M166.863,333.345l17.409,22.052l-61.198,18.626l-16.969-3.394L166.863,333.345z M186.222,466.026l72.539-18.52
	l27.879,46.465l-95.6-15.42L186.222,466.026z M300.826,488.348l-23.814-39.689l37.324,8.164L300.826,488.348z M405.391,430.553
	l-86.722,54.385l16.684-38.931l-70.872-15.503l-87.428,22.322l-66.364-34.033l2.726-31.348l10.42,2.084l85.802-26.113l20.087,8.37
	l5.792-13.899l-25.084-10.452l-10.691,3.253l-23.192-29.377l26.961-183.339l84.931-14.155l-2.476-14.852l-75.649,12.608
	l50.488-99.446l33.335,35.804l-22.093,6.025l3.962,14.527l77.579-21.158l24.46,36.689l-31.906,5.549l2.58,14.834l34.053-5.923
	l-4.835,106.383l-26.034-9.545l-5.184,14.137l43.889,16.092l-105.341,83.915l30.653,61.305l32.197-17.172l63.023,21.008
	l-30.835,25.229l9.534,11.653l13.705-11.214L405.391,430.553z"/>
<polygon points="290.019,214.323 271.307,211.984 238.589,244.701 249.237,255.349 276.748,227.838 288.15,229.263 "/>
<g>
</g>
<g>
</g>
<g>
</g>
<g>
</g>
<g>
</g>
<g>
</g>
<g>
</g>
<g>
</g>
<g>
</g>
<g>
</g>
<g>
</g>
<g>
</g>
<g>
</g>
<g>
</g>
<g>
</g>
</svg>
