<?xml version="1.0" encoding="iso-8859-1"?>
<!-- Generator: Adobe Illustrator 19.0.0, SVG Export Plug-In . SVG Version: 6.00 Build 0)  -->
<svg version="1.1" id="Capa_1" xmlns="http://www.w3.org/2000/svg" xmlns:xlink="http://www.w3.org/1999/xlink" x="0px" y="0px"
	 viewBox="0 0 512.001 512.001" style="enable-background:new 0 0 512.001 512.001;" xml:space="preserve">
<path style="fill:#AFAFAF;" d="M353.977,370.786L306.746,251.37c-0.008-0.02-0.016-0.04-0.023-0.059
	c-5.07-12.505-12.296-23.918-21.477-33.921c-1.747-1.903-4.349-2.779-6.891-2.315c-2.542,0.462-4.669,2.197-5.633,4.594
	l-23.703,58.915c-0.725,1.802-0.725,3.814,0,5.617l89.75,223.084c1.136,2.822,3.858,4.683,6.9,4.715
	c0.027,0.001,0.054,0.001,0.081,0.001c3.009,0,5.733-1.795,6.918-4.566C371.166,464.165,371.634,414.336,353.977,370.786z"/>
<path style="fill:#999999;" d="M302.101,241.371c-4.534-8.657-10.169-16.697-16.854-23.981c-1.747-1.903-4.349-2.779-6.891-2.315
	c-2.542,0.462-4.669,2.197-5.633,4.594l-23.703,58.915c-0.725,1.802-0.725,3.814,0,5.617l18.447,45.852L302.101,241.371z"/>
<path style="fill:#AFAFAF;" d="M259.854,196.733l-0.244-0.145L201.881,54.205c-16.652-41.071-56.849-63.678-89.6-50.402
	C96.076,10.374,84.19,24.484,78.812,43.536c-5.184,18.367-3.669,39.262,4.267,58.835c16.652,41.071,56.849,63.679,89.6,50.401
	c6.937-2.813,13.152-7.075,18.406-12.575l34.232,85.087c0.964,2.397,3.091,4.131,5.633,4.594c0.449,0.081,0.9,0.121,1.347,0.121
	c2.087,0,4.104-0.87,5.542-2.437c6.435-7.012,13.841-13.036,22.011-17.905c2.277-1.357,3.672-3.812,3.673-6.462
	C263.524,200.546,262.13,198.09,259.854,196.733z M165.681,68.882c3.583,8.838,4.306,18.137,2.032,26.186
	c-2.079,7.363-6.449,12.726-12.309,15.102c-5.858,2.374-12.73,1.57-19.349-2.266c-7.236-4.194-13.194-11.371-16.777-20.209
	s-4.305-18.137-2.032-26.185c2.079-7.363,6.449-12.726,12.307-15.102C142.35,41.221,158.554,51.304,165.681,68.882z"/>
<path style="fill:#CCCCCC;" d="M399.72,3.803c-32.752-13.278-72.949,9.33-89.601,50.402l-57.715,142.351
	c-21.184,12.555-37.862,31.908-47.149,54.815l-47.208,119.356c-17.682,43.61-17.213,93.438,1.284,136.708
	c1.186,2.772,3.908,4.566,6.918,4.566c0.027,0,0.054,0,0.081-0.001c3.042-0.033,5.764-1.893,6.899-4.715l147.686-367.087
	c5.254,5.499,11.469,9.762,18.406,12.576c6.361,2.579,12.997,3.804,19.693,3.804c27.779-0.003,56.489-21.11,69.908-54.205
	C445.573,61.301,432.474,17.084,399.72,3.803z M363.675,111.531c-2.421,0-4.806-0.439-7.081-1.361
	c-5.858-2.375-10.229-7.738-12.308-15.102c-2.272-8.048-1.55-17.349,2.032-26.186c0.001,0,0.001,0,0.001,0
	c5.859-14.452,17.853-23.836,29.044-23.836c2.422,0,4.806,0.439,7.082,1.362c5.858,2.375,10.229,7.738,12.308,15.102
	c2.272,8.048,1.55,17.349-2.033,26.185C386.861,102.147,374.867,111.532,363.675,111.531z"/>
<path style="fill:#666666;" d="M251.652,244.326c-1.236,0-2.489-0.305-3.646-0.948c-3.632-2.017-4.942-6.598-2.924-10.23
	l2.171-3.908c2.017-3.632,6.597-4.942,10.23-2.924c3.632,2.017,4.942,6.598,2.924,10.23l-2.171,3.908
	C256.86,242.929,254.295,244.326,251.652,244.326z"/>
<g>
	<path style="fill:#F94A46;" d="M277.325,135.09l33.624,29.882l9.967-24.774c5.254,5.499,11.469,9.762,18.406,12.575
		c32.751,13.278,72.948-9.329,89.6-50.401c7.936-19.574,9.452-40.468,4.267-58.835c-5.378-19.052-17.264-33.163-33.469-39.733
		c-32.751-13.277-72.949,9.329-89.6,50.402L277.325,135.09z M346.319,68.882c7.127-17.578,23.331-27.661,36.127-22.474
		c5.858,2.375,10.229,7.738,12.308,15.102c2.272,8.048,1.55,17.349-2.032,26.185c-3.583,8.838-9.541,16.013-16.777,20.209
		c-6.619,3.837-13.49,4.641-19.349,2.266c-5.858-2.375-10.23-7.738-12.308-15.102C342.014,87.019,342.736,77.719,346.319,68.882z"/>
	<path style="fill:#F94A46;" d="M201.881,54.205c-16.652-41.071-56.849-63.678-89.6-50.402
		C96.076,10.374,84.19,24.484,78.812,43.536c-5.184,18.367-3.669,39.262,4.267,58.835c16.652,41.071,56.849,63.679,89.6,50.401
		c6.937-2.813,13.152-7.075,18.406-12.575l9.967,24.774l33.624-29.882L201.881,54.205z M167.714,95.067
		c-2.079,7.363-6.449,12.726-12.309,15.102c-5.858,2.374-12.73,1.57-19.349-2.266c-7.236-4.194-13.194-11.371-16.777-20.209
		s-4.305-18.137-2.032-26.185c2.079-7.363,6.449-12.726,12.307-15.102c12.795-5.187,29,4.895,36.127,22.474
		C169.265,77.719,169.986,87.019,167.714,95.067z"/>
</g>
<g>
</g>
<g>
</g>
<g>
</g>
<g>
</g>
<g>
</g>
<g>
</g>
<g>
</g>
<g>
</g>
<g>
</g>
<g>
</g>
<g>
</g>
<g>
</g>
<g>
</g>
<g>
</g>
<g>
</g>
</svg>
