<?xml version="1.0" standalone="no"?>
<!DOCTYPE svg PUBLIC "-//W3C//DTD SVG 20010904//EN"
 "http://www.w3.org/TR/2001/REC-SVG-20010904/DTD/svg10.dtd">
<svg version="1.0" xmlns="http://www.w3.org/2000/svg"
 width="300.000000pt" height="179.000000pt" viewBox="0 0 300.000000 179.000000"
 preserveAspectRatio="xMidYMid meet">
<metadata>
Created by potrace 1.10, written by Peter Selinger 2001-2011
</metadata>
<g transform="translate(0.000000,179.000000) scale(0.100000,-0.100000)"
fill="#000000" stroke="none">
<path d="M760 1780 c-39 -7 -115 -44 -142 -68 -16 -14 -22 -13 -58 3 -34 15
-45 16 -83 6 -89 -25 -192 -130 -217 -219 -5 -20 -10 -60 -10 -89 0 -28 -4
-55 -10 -58 -5 -3 -43 10 -83 30 -62 31 -77 35 -101 26 -39 -15 -25 -28 36
-33 55 -5 136 -34 125 -44 -3 -4 -23 0 -44 9 -51 20 -125 30 -142 18 -27 -18
1 -31 69 -31 69 0 100 -6 100 -19 0 -4 -22 -3 -49 3 -57 11 -142 -1 -149 -23
-4 -11 2 -12 24 -7 53 12 133 19 147 13 13 -5 12 -14 -5 -69 -31 -95 -29 -212
6 -311 l28 -78 -37 -36 c-21 -20 -44 -51 -51 -69 -17 -40 -18 -121 -3 -161 24
-65 135 -143 203 -143 23 0 27 -3 21 -17 -40 -99 -48 -135 -50 -221 -2 -76 -5
-95 -20 -106 -28 -20 -5 -28 108 -33 80 -4 106 -2 121 10 19 14 19 15 -3 22
-19 6 -9 15 81 77 57 39 116 81 132 94 l30 23 21 -29 c36 -49 114 -106 191
-141 40 -19 73 -37 74 -41 0 -5 -20 -8 -45 -8 -48 0 -60 -14 -22 -24 30 -8
271 -6 327 2 25 4 88 2 140 -5 173 -22 347 -27 445 -12 103 16 468 14 499 -3
25 -14 87 -12 147 3 42 11 59 10 119 -5 46 -12 82 -16 107 -11 21 4 86 6 145
6 103 -2 149 11 93 25 -28 7 -27 20 1 76 45 89 -14 188 -143 239 -50 20 -75
23 -178 22 -73 0 -140 -6 -172 -15 l-51 -15 5 32 c4 24 -1 38 -21 62 -14 17
-26 38 -26 47 0 27 -27 72 -54 90 -14 9 -48 21 -75 27 -43 9 -49 14 -55 41 -8
42 -82 113 -131 127 -56 15 -149 14 -245 -5 -45 -8 -88 -13 -95 -10 -7 2 -16
18 -20 34 -3 16 -22 48 -41 70 -30 36 -33 43 -23 65 28 61 -21 139 -85 136
-17 -1 -46 5 -63 12 -27 11 -39 11 -65 0 -18 -7 -58 -14 -89 -15 l-57 -1 -4
73 c-4 58 -12 87 -42 145 -22 44 -36 86 -36 108 0 51 -53 99 -110 99 -38 0
-140 45 -140 62 0 10 79 50 113 57 15 3 28 11 27 16 -2 20 -53 5 -110 -34 -41
-27 -60 -35 -60 -25 0 8 27 32 60 54 34 21 60 42 58 47 -7 24 -89 -31 -119
-81 -18 -30 -19 -30 -19 -7 0 17 17 41 51 73 40 38 47 48 31 48 -26 0 -81 -63
-89 -101 -3 -16 -12 -29 -20 -29 -11 0 -14 6 -9 23 12 40 19 125 12 151 -10
39 -62 59 -126 46z m-38 -57 c-19 -21 -47 -64 -63 -96 l-27 -58 -17 52 c-20
60 -19 62 65 108 73 41 85 39 42 -6z m67 -14 c-28 -57 -19 -68 14 -17 28 43
34 37 18 -20 -14 -47 5 -39 23 11 l16 42 -5 -52 c-3 -29 -2 -53 3 -53 5 0 4
-16 -2 -35 -8 -26 -15 -33 -26 -28 -33 15 -108 14 -145 -1 -21 -9 -40 -14 -42
-12 -2 2 10 30 27 62 19 37 29 48 25 32 -3 -16 -4 -28 -2 -28 1 0 25 31 52 70
56 79 73 90 44 29z m-336 -31 c-60 -68 -93 -167 -92 -277 0 -72 1 -75 16 -53
8 12 19 22 23 22 5 0 10 -36 12 -80 l3 -80 -39 0 c-75 0 -147 -107 -130 -195
6 -36 24 -58 24 -31 0 21 12 20 43 -4 14 -11 32 -17 41 -14 27 10 18 25 -11
19 -27 -5 -27 -5 -5 6 31 17 27 26 -8 21 -35 -5 -70 20 -70 50 0 36 40 98 74
115 54 25 76 13 116 -64 81 -159 218 -238 344 -199 36 11 54 12 69 4 11 -5 33
-7 48 -4 26 5 28 3 20 -12 -12 -23 -73 -66 -126 -88 -53 -23 -176 -23 -227 -1
-95 43 -148 120 -148 219 0 58 -1 61 -16 42 -15 -18 -15 -18 -11 4 4 15 1 22
-6 19 -18 -6 -21 -47 -4 -47 10 0 16 -17 20 -55 15 -144 146 -238 308 -221 93
9 201 73 235 137 12 24 18 28 34 19 10 -5 34 -10 54 -10 48 0 88 37 127 116
37 76 36 122 -7 213 -15 31 -27 67 -28 81 -1 16 -8 26 -21 28 -18 2 -18 2 -2
-8 24 -15 22 -33 -4 -25 -19 6 -18 3 9 -31 65 -81 78 -169 36 -252 -34 -69
-75 -102 -125 -102 -43 0 -47 5 -22 32 14 15 15 23 6 38 -10 14 -9 19 1 23 7
3 24 26 36 52 19 40 22 58 17 119 -5 72 -41 171 -74 208 -9 10 -13 18 -8 18 4
0 -3 9 -16 20 -27 22 -14 27 15 5 14 -11 21 -11 31 -2 7 7 11 15 8 20 -2 4 0
7 6 7 5 0 12 -3 14 -8 7 -10 -29 -53 -37 -45 -3 4 -6 2 -6 -4 0 -23 14 -20 40
7 34 36 84 40 123 10 41 -33 43 -93 3 -123 -6 -5 -2 -7 12 -4 12 3 22 1 22 -4
0 -5 -7 -9 -15 -9 -17 0 -20 -16 -6 -24 5 -4 12 0 14 6 4 8 8 4 12 -9 8 -25
21 -30 28 -10 7 16 9 -10 10 -113 0 -65 2 -76 7 -45 l7 40 2 -42 c0 -24 5 -43
9 -43 4 0 6 -16 4 -36 -3 -25 -8 -34 -18 -30 -9 4 -14 -2 -14 -16 0 -16 -3
-18 -13 -9 -11 8 -17 3 -30 -24 -9 -19 -13 -35 -8 -35 5 0 11 7 15 15 3 8 10
15 16 15 7 0 8 -6 0 -19 -9 -18 -111 -84 -118 -76 -2 2 1 13 8 24 16 30 7 26
-39 -20 -47 -47 -52 -59 -16 -35 14 9 25 12 25 7 0 -5 -10 -15 -22 -24 -13 -8
-21 -17 -18 -20 3 -3 33 13 66 36 33 23 84 53 112 66 l51 24 29 -31 c30 -32
72 -49 91 -37 6 3 26 1 45 -6 40 -15 80 -6 111 25 13 13 36 23 54 24 39 1 73
-40 102 -124 43 -122 6 -334 -80 -456 l-37 -53 -65 2 c-59 2 -62 1 -39 -12 43
-23 149 -37 222 -30 83 8 100 25 26 25 -45 1 -56 4 -71 26 -18 25 -18 25 12
73 17 26 36 62 42 79 11 32 11 32 81 32 64 0 74 3 104 30 41 35 77 46 107 33
30 -14 77 -195 57 -218 -7 -8 -18 -15 -24 -15 -7 0 -30 -13 -52 -30 -21 -16
-43 -30 -47 -30 -5 0 -5 20 -2 44 8 52 -6 89 -15 41 l-6 -30 -18 33 c-29 55
-27 31 3 -49 41 -106 48 -162 23 -187 -56 -56 -502 -21 -620 48 -45 27 -53 24
-17 -5 36 -30 23 -33 -22 -5 -18 11 -33 15 -33 10 0 -6 -8 -11 -17 -11 -10 -1
-4 -5 12 -9 27 -7 25 -8 -20 -10 -27 -1 -41 -4 -30 -7 44 -11 40 -25 -5 -18
-88 13 -240 73 -240 94 0 6 -9 13 -21 16 -11 4 -50 34 -86 68 -63 59 -75 62
-29 7 l21 -25 -23 20 c-41 34 -46 54 -23 79 43 46 18 35 -53 -23 -163 -134
-319 -220 -373 -206 -13 3 -28 18 -34 33 -16 41 -4 148 26 229 26 69 29 73 59
74 27 1 25 3 -14 11 -107 22 -153 41 -195 79 -24 22 -48 53 -55 69 -18 43 -8
130 19 174 26 42 37 43 21 2 -5 -15 -10 -48 -9 -74 l1 -47 12 60 c15 73 37
116 72 144 36 28 67 35 93 21 28 -15 26 -38 -9 -122 -31 -72 -36 -103 -21
-127 12 -19 25 -8 59 52 40 70 74 100 113 100 31 0 59 -23 59 -49 0 -7 -20
-42 -45 -78 -25 -36 -43 -66 -41 -66 2 0 24 11 47 25 50 28 142 34 174 12 27
-21 12 -59 -35 -91 -22 -14 -51 -43 -64 -64 -25 -36 -61 -151 -51 -160 7 -7 9
-4 33 74 23 73 38 94 111 152 31 25 41 40 41 62 0 23 7 33 30 45 16 8 40 15
53 15 13 0 32 10 43 22 l19 22 -28 -18 c-16 -10 -31 -15 -34 -12 -3 2 4 11 16
18 12 7 21 16 21 21 0 4 -25 -9 -55 -29 -48 -32 -59 -36 -96 -30 -23 4 -51 13
-62 21 -12 8 -34 15 -50 15 -24 0 -28 3 -22 18 17 40 16 51 -6 71 -35 33 -90
28 -134 -11 -30 -25 -38 -29 -45 -17 -6 9 -5 16 3 19 7 3 14 28 15 57 3 47 1
53 -23 69 -27 17 -58 15 -117 -10 -12 -6 -21 1 -33 26 -13 28 -14 30 -1 14 20
-24 31 -15 17 13 -6 11 -17 60 -25 108 -8 48 -14 75 -15 58 -1 -17 -4 -25 -9
-18 -10 15 -2 113 9 113 5 0 9 -8 10 -17 0 -10 6 1 13 23 7 23 28 67 46 99
l33 57 -27 -17 c-31 -20 -35 -6 -6 20 16 14 20 31 20 79 0 102 58 194 160 255
44 27 48 26 23 -1z m81 16 c9 -3 16 -11 16 -17 0 -8 -3 -8 -11 0 -6 6 -18 9
-25 6 -8 -3 -14 0 -14 6 0 12 11 14 34 5z m-49 -94 c-24 -72 -13 -86 13 -17
12 32 22 62 22 67 0 6 4 10 9 10 4 0 6 -24 3 -52 -3 -43 -2 -51 8 -41 7 7 14
28 15 48 3 53 13 53 26 0 7 -27 15 -42 19 -35 5 7 9 3 13 -12 13 -48 9 -55
-32 -55 -49 0 -104 -34 -137 -83 -14 -21 -34 -40 -45 -43 -17 -5 -19 0 -19 40
0 50 18 131 31 139 5 3 4 -7 -1 -21 -19 -50 -9 -60 11 -11 27 67 72 142 77
128 2 -7 -4 -34 -13 -62z m362 -76 c22 -13 66 -51 97 -85 62 -69 95 -142 103
-229 l5 -55 -67 -33 c-37 -18 -68 -32 -69 -30 -1 2 -7 33 -13 71 -22 134 -105
260 -210 319 -49 27 -52 32 -36 43 58 39 121 39 190 -1z m55 4 c14 -13 34 -28
44 -35 15 -10 16 -12 3 -12 -9 -1 -33 15 -55 34 -21 19 -34 34 -28 35 6 0 22
-10 36 -22z m-216 -68 c107 -61 181 -185 208 -347 5 -32 5 -32 -72 -62 -43
-16 -117 -38 -165 -47 l-86 -18 -27 24 c-92 87 -141 285 -95 385 44 98 136
123 237 65z m319 10 c3 -5 2 -10 -4 -10 -5 0 -13 5 -16 10 -3 6 -2 10 4 10 5
0 13 -4 16 -10z m32 -368 c-23 -54 -40 -70 -84 -75 -40 -5 -43 -4 -43 20 0 19
4 23 18 19 13 -4 30 5 55 29 46 44 71 48 54 7z m-144 -64 c-3 -13 -22 -43 -43
-68 l-38 -45 -69 0 c-65 0 -153 26 -153 45 0 8 89 21 157 24 27 1 50 9 65 22
51 46 88 56 81 22z m628 -7 c25 -26 29 -37 29 -88 0 -46 -5 -64 -20 -81 -20
-22 -53 -28 -84 -16 -14 5 -14 9 0 37 20 37 13 86 -16 127 l-21 30 23 9 c39
16 58 12 89 -18z m-118 -21 c33 -38 42 -82 25 -117 -30 -64 -110 -49 -124 24
-6 33 -8 35 -20 18 -21 -29 -25 -13 -8 35 21 60 31 70 69 70 25 0 40 -8 58
-30z m192 24 c23 -9 48 -62 41 -89 -7 -29 -32 -55 -52 -55 -10 0 -14 13 -14
49 0 27 -4 61 -10 75 -10 27 0 33 35 20z m-597 -41 c-4 -22 -85 -65 -113 -61
-32 5 -23 31 20 55 50 28 98 31 93 6z m1114 -260 c41 -24 72 -85 132 -262 43
-126 45 -135 29 -148 -17 -14 -17 -14 2 -8 39 14 65 17 65 8 0 -6 -18 -15 -40
-22 -22 -6 -40 -16 -40 -20 0 -5 52 7 115 25 307 89 522 55 587 -94 22 -49 17
-69 -6 -25 -15 29 -46 62 -46 48 0 -4 9 -18 20 -32 31 -39 27 -105 -7 -143
-45 -49 -130 -51 -104 -2 23 44 6 118 -35 153 -14 11 -13 6 5 -28 47 -92 15
-153 -81 -153 -54 0 -99 19 -121 50 -14 21 -15 21 -44 -9 -55 -55 -136 -59
-191 -9 -20 18 -24 19 -19 6 6 -16 -1 -18 -67 -18 -88 0 -288 19 -297 28 -4 4
-10 30 -14 59 l-7 52 72 47 72 46 -6 42 c-16 95 -39 177 -59 208 -28 41 -83
54 -176 40 -36 -5 -69 -8 -73 -6 -9 6 15 103 35 141 16 31 25 36 87 47 56 10
180 -2 212 -21z m-1746 -40 c-7 -7 -26 7 -26 19 0 6 6 6 15 -2 9 -7 13 -15 11
-17z m1416 21 c3 -3 1 -21 -5 -40 -15 -48 -37 -45 -37 6 0 32 4 40 18 40 10 0
21 -3 24 -6z m-1439 -41 c-7 -3 -10 -10 -8 -16 6 -15 -12 -44 -21 -35 -11 11
17 69 29 61 8 -5 8 -8 0 -10z m227 -23 c12 -8 9 -10 -12 -10 -16 0 -28 -4 -28
-10 0 -5 -5 -10 -10 -10 -6 0 -5 8 2 20 14 22 26 25 48 10z m1197 -95 c9 -7
54 -10 110 -9 l95 3 -45 -29 c-79 -50 -100 -58 -152 -57 l-50 1 10 71 c5 38
11 61 13 50 3 -11 11 -24 19 -30z m549 4 c54 -33 69 -97 33 -143 -11 -14 -16
-26 -10 -26 5 0 19 12 30 26 25 31 38 25 47 -22 10 -52 -11 -70 -68 -58 l-42
9 -38 115 c-20 63 -37 118 -37 123 -1 11 50 -3 85 -24z m-668 -317 c2 -7 -7
-12 -23 -12 -24 0 -26 2 -15 15 14 17 31 16 38 -3z"/>
<path d="M1110 1430 c0 -5 5 -10 10 -10 6 0 10 5 10 10 0 6 -4 10 -10 10 -5 0
-10 -4 -10 -10z"/>
<path d="M1040 1400 c0 -5 5 -10 10 -10 6 0 10 5 10 10 0 6 -4 10 -10 10 -5 0
-10 -4 -10 -10z"/>
<path d="M1156 1401 c-4 -5 -2 -12 3 -15 5 -4 12 -2 15 3 4 5 2 12 -3 15 -5 4
-12 2 -15 -3z"/>
<path d="M261 1269 c-22 -35 -36 -87 -28 -96 3 -3 10 12 16 33 6 22 18 49 27
62 9 13 14 26 11 29 -3 3 -15 -10 -26 -28z"/>
<path d="M275 1240 c-9 -17 -14 -37 -12 -43 2 -7 12 6 21 27 20 48 14 60 -9
16z"/>
<path d="M317 1253 c-4 -3 -7 -13 -7 -22 1 -13 3 -13 11 2 11 19 8 33 -4 20z"/>
<path d="M1231 1164 c0 -11 3 -14 6 -6 3 7 2 16 -1 19 -3 4 -6 -2 -5 -13z"/>
<path d="M370 1160 c0 -5 5 -10 10 -10 6 0 10 5 10 10 0 6 -4 10 -10 10 -5 0
-10 -4 -10 -10z"/>
<path d="M1211 1138 c-1 -21 4 -38 9 -38 12 0 12 27 0 55 -7 16 -9 13 -9 -17z"/>
<path d="M210 1062 c0 -29 23 -129 32 -137 7 -7 9 1 4 25 -4 19 -9 54 -13 78
-3 23 -10 42 -14 42 -5 0 -9 -4 -9 -8z"/>
<path d="M285 1060 c-3 -5 -1 -10 4 -10 6 0 11 5 11 10 0 6 -2 10 -4 10 -3 0
-8 -4 -11 -10z"/>
<path d="M375 1030 c-3 -5 -1 -10 4 -10 6 0 11 5 11 10 0 6 -2 10 -4 10 -3 0
-8 -4 -11 -10z"/>
<path d="M1178 959 c-9 -16 -14 -29 -9 -29 9 0 36 48 30 54 -2 3 -12 -9 -21
-25z"/>
<path d="M609 680 c13 -11 27 -20 32 -20 18 0 8 10 -23 25 l-33 16 24 -21z"/>
<path d="M814 258 c19 -27 94 -78 114 -78 8 0 -13 18 -46 40 -34 22 -62 44
-62 50 0 5 -5 10 -11 10 -6 0 -3 -10 5 -22z"/>
<path d="M840 272 c0 -14 70 -62 90 -62 8 0 0 10 -18 21 -18 12 -31 24 -28 26
2 3 16 -3 30 -12 14 -10 26 -13 26 -8 0 5 -13 16 -29 26 -22 13 -30 14 -34 5
-3 -10 -7 -10 -20 1 -11 8 -17 9 -17 3z"/>
<path d="M920 270 c0 -6 7 -10 15 -10 8 0 15 2 15 4 0 2 -7 6 -15 10 -8 3 -15
1 -15 -4z"/>
<path d="M1066 167 l-39 -12 27 -13 c15 -6 39 -12 54 -11 25 1 25 2 -6 9 -49
11 -53 23 -7 16 22 -3 31 -3 21 0 -15 5 -16 8 -5 15 19 12 3 10 -45 -4z"/>
<path d="M1000 149 c0 -6 -7 -9 -15 -5 -8 3 -15 2 -15 -3 0 -9 101 -55 143
-65 16 -4 27 -2 27 4 0 5 -11 10 -25 10 -27 0 -101 27 -94 35 3 2 24 -3 48
-11 24 -8 49 -13 55 -11 6 2 -9 10 -34 16 -25 7 -55 19 -67 27 -15 10 -23 11
-23 3z"/>
</g>
</svg>
