<?xml version="1.0" encoding="utf-8"?>
<svg version="1.1" width="2470" height="2680" viewBox="0 0 2470 2680"
	xmlns="http://www.w3.org/2000/svg"
	xmlns:xlink="http://www.w3.org/1999/xlink"
	xml:space="preserve">
	<style type="text/css">
		path    { stroke: #000; fill: #000;    }
		.blue   { stroke: none; fill: #001ec8; }
		.purple { stroke: none; fill: #14127b; }
		.lace{
			fill: none;
			stroke: #000050;
			stroke-width: 4.56;
			stroke-linecap: round;
			stroke-dasharray: 4.56, 9.12;
		}
		#beak { stroke-width: 1.4543; }
		#eye  { fill: #fff; }
		#slogan{
			font-family: DejaVu Sans, DejaVuSans, sans-serif;
			font-size: 160px;
			letter-spacing: 2.058;
		}
	</style>
	<g id="mascot">
		<path d="M1611.977,893.89c0,0,9.516-105.79,218.437-113.147c176.135,10.486,299.541,181.092,341.412,235.654c0,0-152.667,101.169-309.918-74.527C1680.564,779.166,1611.977,893.89,1611.977,893.89z"/>
		<path d="M1611.977,893.89c0,0,9.516-105.79,218.437-113.147c176.135,10.486,299.541,181.092,341.412,235.654c0,0-152.667,101.169-309.918-74.527C1680.564,779.166,1611.977,893.89,1611.977,893.89z"/>
		<path d="M1609.99,951.172c0,0-17.842,77.477,85.748,137.389c72.271,41.798,31.627,53.267,31.627,53.267s33.552,6.073,89.941-45.237c80.09-72.877,39.384-130.639,39.384-130.639s-84.44-119.765-160.184-28.007C1696.505,937.944,1672.542,966.059,1609.99,951.172z"/>
		<path d="M1609.99,951.172c0,0-17.842,77.477,85.748,137.389c72.271,41.798,31.627,53.267,31.627,53.267s33.552,6.073,89.941-45.237c80.09-72.877,39.384-130.639,39.384-130.639s-84.44-119.765-160.184-28.007C1696.505,937.944,1672.542,966.059,1609.99,951.172z"/>
		<path d="M1886.471,988.581c0,0,11.138,114.979-147.041,163.575c0,0,162.152-61.352,338.891,89.662c0,0,18.5-138.54,102.683-209.607C2171.425,1034.984,2039.909,1121.692,1886.471,988.581z"/>
		<path d="M1886.471,988.581c0,0,11.138,114.979-147.041,163.575c0,0,162.152-61.352,338.891,89.662c0,0,18.5-138.54,102.683-209.607C2171.425,1034.984,2039.909,1121.692,1886.471,988.581z"/>
		<path d="M1620.416,927.717c0,0,52.75,50.553,101.022-46.643C1721.438,881.075,1661.457,839.26,1620.416,927.717z"/>
		<path d="M1620.416,927.717c0,0,52.75,50.553,101.022-46.643C1721.438,881.075,1661.457,839.26,1620.416,927.717z"/>
		<path id="eye" d="M1663.644,906.901c1.978,6.592-1.131,13.3-6.948,14.985c-5.818,1.685-12.139-2.292-14.12-8.884c-1.978-6.589,1.134-13.297,6.952-14.982C1655.345,896.335,1661.666,900.312,1663.644,906.901z"/>
		<path d="M2425.161,1516.737c10.324-223.678,6.519-390.567-146.927-494.139c-197.333-224.644-429.309-530.796-380.538-901.605c35.248-267.985,54.6-5.352,54.6-5.352s43.629,382.154,187.388,504.897C2505.941,943.871,2506.367,1121.287,2425.161,1516.737z"/>
		<path d="M2425.161,1516.737c10.324-223.678,6.519-390.567-146.927-494.139c-197.333-224.644-429.309-530.796-380.538-901.605c35.248-267.985,54.6-5.352,54.6-5.352s43.629,382.154,187.388,504.897C2505.941,943.871,2506.367,1121.287,2425.161,1516.737z"/>
		<path d="M1828.757,315.384c0,0,52.75,258.796,193.011,419.396c147.362,168.734,110.844,131.4,234.271,285.874c0,0-13.726-12.4-55.464,0.307c0,0-112.847-170.83-224.24-222.873c0,0-139.636-143.078-161.395-297.193C1779.606,250.634,1811.812,220.859,1828.757,315.384z"/>
		<path d="M1828.757,315.384c0,0,52.75,258.796,193.011,419.396c147.362,168.734,110.844,131.4,234.271,285.874c0,0-13.726-12.4-55.464,0.307c0,0-112.847-170.83-224.24-222.873c0,0-139.636-143.078-161.395-297.193C1779.606,250.634,1811.812,220.859,1828.757,315.384z"/>
		<path d="M1948.479,783.247c0,0-125.77-141.083-137.986-179.972c-21.57-68.681-29.621-88.42-36.591-29.45c-3.865,32.725,19.875,183.652,86.226,190.548C1904.166,768.949,1948.479,783.247,1948.479,783.247z"/>
		<path d="M1948.479,783.247c0,0-125.77-141.083-137.986-179.972c-21.57-68.681-29.621-88.42-36.591-29.45c-3.865,32.725,19.875,183.652,86.226,190.548C1904.166,768.949,1948.479,783.247,1948.479,783.247z"/>
		<path d="M265.722,564.054c-8.152,108.752,34.836,295.607,94.35,374.47c116.74,238.76,440.318,520.593,886.586,435.668c138.708-39.579,259.46,24.864,346.052,98.731c83.282,84.862,112.474,99.424,169.505,65.834c-59.141-57.281-122.45-124.229-121.132-212.485c4.155-64.08,27.511-126.884,68.622-161.109c-40.588-142.423-268.016-149.301-369.352-139.12c-131.23,8.867-262.996,76.582-380.2,89.509c-325.448-26.657-561.363-250.677-637.996-595.553C289.667,361.155,273.87,455.302,265.722,564.054z"/>
		<path d="M265.722,564.054c-8.152,108.752,34.836,295.607,94.35,374.47c116.74,238.76,440.318,520.593,886.586,435.668c138.708-39.579,259.46,24.864,346.052,98.731c83.282,84.862,112.474,99.424,169.505,65.834c-59.141-57.281-122.45-124.229-121.132-212.485c4.155-64.08,27.511-126.884,68.622-161.109c-40.588-142.423-268.016-149.301-369.352-139.12c-131.23,8.867-262.996,76.582-380.2,89.509c-325.448-26.657-561.363-250.677-637.996-595.553C289.667,361.155,273.87,455.302,265.722,564.054z"/>
		<path d="M562.838,1304.813c230.013,136.835,460.685,181.856,650.958,111.34c0,0,173.715-105.567,417.032,116.186c0,0-273.168,145.195-534.295,135.596c-94.496-3.474-390.567-65.621-583.404-262.864c-175.166-179.173-177.987-366.224-99.331-247.676C491.29,1274.181,562.838,1304.813,562.838,1304.813z"/>
		<path d="M562.838,1304.813c230.013,136.835,460.685,181.856,650.958,111.34c0,0,173.715-105.567,417.032,116.186c0,0-273.168,145.195-534.295,135.596c-94.496-3.474-390.567-65.621-583.404-262.864c-175.166-179.173-177.987-366.224-99.331-247.676C491.29,1274.181,562.838,1304.813,562.838,1304.813z"/>
		<path d="M965.398,1707.048c335.49,31.676,535.63-83.299,681.562-151.143c24.455,174.479-266.714,305.736-474.431,287.002c-138.928-6.75-333.321-37.361-454.117-163.129c-11.647-12.125-91.392-113.813,36.099-35.268C837.091,1683.747,895.998,1693.123,965.398,1707.048z"/>
		<path d="M965.398,1707.048c335.49,31.676,535.63-83.299,681.562-151.143c24.455,174.479-266.714,305.736-474.431,287.002c-138.928-6.75-333.321-37.361-454.117-163.129c-11.647-12.125-91.392-113.813,36.099-35.268C837.091,1683.747,895.998,1693.123,965.398,1707.048z"/>
		<path d="M1684.492,1568.591c63.313,127.972,114.759,155.246,291.324,232.417c107.66,49.228,142.959,77.509,117.842,122.341c0,0,133.856-71.649,196.353-165.761c0,0-339.162-60.108-515.42-210.421C1729.984,1583.869,1684.492,1568.591,1684.492,1568.591z"/>
		<path d="M1684.492,1568.591c63.313,127.972,114.759,155.246,291.324,232.417c107.66,49.228,142.959,77.509,117.842,122.341c0,0,133.856-71.649,196.353-165.761c0,0-339.162-60.108-515.42-210.421C1729.984,1583.869,1684.492,1568.591,1684.492,1568.591z"/>
		<path d="M1670.934,1581.267c0,0,5.497,149.755-207.863,248.039c-153.561,70.739,39.722,44.073,138.258-3.812c101.34-49.249,123.406-118.457,108.874-175.288C1699.108,1606.821,1682.043,1593.276,1670.934,1581.267z"/>
		<path d="M1670.934,1581.267c0,0,5.497,149.755-207.863,248.039c-153.561,70.739,39.722,44.073,138.258-3.812c101.34-49.249,123.406-118.457,108.874-175.288C1699.108,1606.821,1682.043,1593.276,1670.934,1581.267z"/>
		<path d="M2421.78,1531.324c0,0-61.757,173.345-118.533,221.491c0,0,36.291,8.63,49.189,85.811C2389.425,1748.033,2421.78,1531.324,2421.78,1531.324z"/>
		<path d="M2421.78,1531.324c0,0-61.757,173.345-118.533,221.491c0,0,36.291,8.63,49.189,85.811C2389.425,1748.033,2421.78,1531.324,2421.78,1531.324z"/>
		<path d="M2298.067,1774.257c0,0,60.485,207.06-215.383,436.233c-121.197,100.688-246.916,149.312-391.878,178.315c0,0-287.012,47.125-352.704-156.11c0,0,58.862,34.805,211.641,24.406C1979.896,2227.826,2259.594,1990.693,2298.067,1774.257z"/>
		<path d="M2298.067,1774.257c0,0,60.485,207.06-215.383,436.233c-121.197,100.688-246.916,149.312-391.878,178.315c0,0-287.012,47.125-352.704-156.11c0,0,58.862,34.805,211.641,24.406C1979.896,2227.826,2259.594,1990.693,2298.067,1774.257z"/>
		<path d="M1496.487,2128.527c0,0,38.184,92.072,159.839,90.203c210.235-3.234,551.609-189.684,614.506-413.938c0,0-176.721,209.97-498.868,285.338C1562.705,2139.085,1496.487,2128.527,1496.487,2128.527z"/>
		<path d="M1496.487,2128.527c0,0,38.184,92.072,159.839,90.203c210.235-3.234,551.609-189.684,614.506-413.938c0,0-176.721,209.97-498.868,285.338C1562.705,2139.085,1496.487,2128.527,1496.487,2128.527z"/>
		<path d="M2319.562,1784.373c67.984,66.106,49.556,575.534-455.449,704.963c0,0-201.498,64.398-354.49-55.349c201.174,25.111,498.821-106.314,617.34-227.303C2258.872,2072.029,2338.648,1933.761,2319.562,1784.373z"/>
		<path d="M2319.562,1784.373c67.984,66.106,49.556,575.534-455.449,704.963c0,0-201.498,64.398-354.49-55.349c201.174,25.111,498.821-106.314,617.34-227.303C2258.872,2072.029,2338.648,1933.761,2319.562,1784.373z"/>
		<path d="M947.427,945.126c251.781-104.964,473.12-102.836,658.46-50.581c0,0-8.138,17.765-24.361,13.907c-5.711-1.357,1.667,12.11,26.509,40.646C1419.208,872.766,1193.775,886.398,947.427,945.126z"/>
		<path id="beak" d="M947.427,945.126c251.781-104.964,473.12-102.836,658.46-50.581c0,0-8.138,17.765-24.361,13.907c-5.711-1.357,1.667,12.11,26.509,40.646C1419.208,872.766,1193.775,886.398,947.427,945.126z"/>
		<path class="blue" d="M2072.565,1258.561c0,0-40.71-39.82-105.351-69.183c-32.318-14.681-73.917-29.034-112.812-29.92c-47.728-1.085-90.031-8.288-139.967,30.381c-161.914,198.937,48.743,442.226,554.504,543.472C2215.211,1728.684,1632.122,1148.595,2072.565,1258.561z"/>
		<path class="lace" d="M2072.565,1258.561c0,0-40.71-39.82-105.351-69.183c-32.318-14.681-73.917-29.034-112.812-29.92c-47.728-1.085-90.031-8.288-139.967,30.381c-161.914,198.937,48.743,442.226,554.504,543.472C2215.211,1728.684,1632.122,1148.595,2072.565,1258.561z"/>
		<path class="blue" d="M2089,1250.758c0,0,6.621-47.435,31.076-105.404c24.456-57.972,69.361-122.52,135.318-108.428c99.035,38.683,198.1,202.659,144.854,504.171c-27.158,96.066-92.941,186.513-92.941,186.513C2319.081,1729.811,2292.455,846.947,2089,1250.758z"/>
		<path class="lace" d="M2089,1250.758c0,0,6.621-47.435,31.076-105.404c24.456-57.972,69.361-122.52,135.318-108.428c99.035,38.683,198.1,202.659,144.854,504.171c-27.158,96.066-92.941,186.513-92.941,186.513C2319.081,1729.811,2292.455,846.947,2089,1250.758z"/>
		<path class="purple" d="M2093.633,1281.527c-180.681-66.114-247.607,81.789,206.231,465.208C2290.286,1535.207,2251.655,961.503,2093.633,1281.527z"/>
		<path class="lace" d="M2093.633,1281.527c-180.681-66.114-247.607,81.789,206.231,465.208C2290.286,1535.207,2251.655,961.503,2093.633,1281.527z"/>
	</g>
	<path id="name" aria-label="Ada" data-name="Ada" d="M417.677,2435.439l0-152.894H245.765l-92.249,126.328c-13.431,19.174-18.375,29.169-20.032,37.941
		c-3.844,20.341,11.819,33.963,40.143,33.963c4.166,0,13.522,2.966,12.093,13.289c-2.264,16.348-15.079,12.881-15.079,12.881
		c-35.393-2.396-68.428-3.995-100.084-3.995c-24.159,0-62.147,7.965-68.686,3.941c-3.018-12.072-0.337-22.406,9.054-25.905
		c54.828,3.27,70.365-36.957,107.418-85.692l339.413-464.389c8.353-9.208,25.185-11.305,25.75,8.062v487.285
		c0.056,41.544,22.541,51.164,54.326,53.9c6.57,1.432,9.892,2.691,10.104,7.788c0.421,10.104-3.875,19.492-10.946,19.366
		c-34.559-2.396-66.568-4.356-101.555-4.356c-25.741,0-52.896,4.049-77.981,5.548c-5.363,0.32-7.63-3.468-7.238-8.827
		c0.588-8.042,3.799-16.372,11.548-17.859l29.29-5.63C408.223,2473.405,417.677,2450.706,417.677,2435.439z M417.241,2248.269
		v-198.701l-146.3,198.701H417.241z M917.438,1979.691c3.483-12.191-1.019-22.991-6.386-25.35l-22.441-7.839
		c-2.299-0.787-3.848-3.144-3.877-6.288c-0.044-4.717,5.261-15.944,16.871-18.653c0,0,21.873-3.034,36.793-6.069
		c14.919-3.035,41.369-12.595,41.369-12.595c5.605-1.368,10.712,3.595,9.505,9.237l-128.578,501.488
		c-2.204,9.431-2.931,17.36-2.924,18.147c0.087,9.431,4.948,14.146,12.585,14.146c15.273,0,39.598-35.339,68.058-70.351
		c4.401-2.091,15.971,9.009,14.947,15.152c-26.822,46.478-52.377,77.124-84.971,100.532c-22.523,16.175-41.69,12.624-54.763-0.776
		c-4.575-6.536-10.419-27.078-5.843-47.341l16.301-77.829c-51.168,82.524-112.751,137.262-161.123,138.031
		c-36.972,0.588-65.167-38.387-66.373-88.07c-1.859-76.581,34.42-140.766,81.201-193.702c35.512-40.184,85.083-72.502,133.194-72.502
		c21.382,0,43.687,5.744,59.873,21.93L917.438,1979.691z M692.684,2458.138c27.117,0,52.567-25.244,80.899-63.31
		c39.317-52.828,71.192-118.376,74.769-154.621c3.889-39.405-10.833-60.033-33.752-61.361c-31.615-1.831-59.88,21.979-93.443,64.425
		c-40.261,50.781-58.214,95.354-62.979,144.62C653.707,2434.125,665.436,2458.138,692.684,2458.138z M1308.221,2396.618
		c-57.465,86.784-97.032,105.135-120.191,104.601c-36.279-0.837-29.323-48.369-24-73.349c3.628-17.023,13.116-50.953,13.116-50.953
		c-72.745,99.317-132.612,127.925-167.007,126.02c-31.489-1.743-43.717-23.394-39.279-69.551
		c4.546-47.282,37.725-114.062,86.101-161.107c74.299-72.254,124.714-94.534,191.851-89.996l12.984-26.291
		c4.829-8.763,5.81-10.694,16.323-10.694c11.263,0,26.696,3.934,26.454,10.507c-0.243,6.572-10.127,33.491-14.259,43.714
		l-28.796,73.863c-10.812,28.48-10.521,28.554-33.488,101.581c-5.714,15.644-10.112,42.764-10.907,58.418
		c-0.242,6.573,3.327,12.379,7.832,12.492c11.728,0.293,26.146-11.021,66.313-65.261c3.117-3.685,4.859-4.461,8.597-1
		C1304.613,2384.01,1310.846,2393.747,1308.221,2396.618z M1191.198,2225.598c-21.169,0-48.732,9.03-89.721,47.254
		c-37.445,34.918-72.795,88.995-78.376,133.646c-2.839,22.715,3.439,39.276,20.372,41.302c32.651,3.907,78.609-51.772,111.864-92.021
		c35.392-42.834,65.666-92.413,65.666-109.086C1221.002,2228.38,1210.015,2225.598,1191.198,2225.598z"/>
	<text id="slogan" x="0" y="2661">Time-tested, safe and secure</text>
</svg>
